Merritest-LightItalic.ufo
<glyph name="quotedbl" format="1">
  <advance width="1003"/>
  <unicode hex="0022"/>
  <outline>
    <contour>
      <point x="266" y="966" type="line"/>
      <point x="352" y="1687" type="line"/>
      <point x="534" y="1687" type="line"/>
      <point x="379" y="966" type="line"/>
    </contour>
    <contour>
      <point x="745" y="966" type="line"/>
      <point x="831" y="1687" type="line"/>
      <point x="1013" y="1687" type="line"/>
      <point x="858" y="966" type="line"/>
    </contour>
  </outline>
</glyph>
<glyph name="dollar" format="1">
  <advance width="1205"/>
  <unicode hex="0024"/>
  <outline>
    <contour>
      <point x="107" y="65" type="curve"/>
      <point x="150" y="343" type="line"/>
      <point x="251" y="343" type="line"/>
      <point x="263" y="139" type="line"/>
      <point x="328" y="89"/>
      <point x="445" y="62"/>
      <point x="540" y="62" type="curve" smooth="yes"/>
      <point x="700" y="62"/>
      <point x="880" y="158"/>
      <point x="890" y="362" type="curve" smooth="yes"/>
      <point x="899" y="534"/>
      <point x="750" y="616"/>
      <point x="609" y="699" type="curve"/>
      <point x="449" y="795"/>
      <point x="251" y="896"/>
      <point x="250" y="1121" type="curve" smooth="yes"/>
      <point x="249" y="1368"/>
      <point x="444" y="1527"/>
      <point x="684" y="1548" type="curve"/>
      <point x="712" y="1729" type="line"/>
      <point x="857" y="1729" type="line"/>
      <point x="827" y="1546" type="line"/>
      <point x="967" y="1534"/>
      <point x="1062" y="1496"/>
      <point x="1107" y="1465" type="curve"/>
      <point x="1065" y="1220" type="line"/>
      <point x="971" y="1220" type="line"/>
      <point x="948" y="1401" type="line"/>
      <point x="903" y="1434"/>
      <point x="805" y="1463"/>
      <point x="703" y="1463" type="curve" smooth="yes"/>
      <point x="591" y="1463"/>
      <point x="405" y="1397"/>
      <point x="395" y="1177" type="curve" smooth="yes"/>
      <point x="388" y="1003"/>
      <point x="554" y="916"/>
      <point x="698" y="833" type="curve"/>
      <point x="858" y="739"/>
      <point x="1039" y="640"/>
      <point x="1039" y="429" type="curve" smooth="yes"/>
      <point x="1040" y="163"/>
      <point x="831" y="2"/>
      <point x="573" y="-20" type="curve"/>
      <point x="539" y="-230" type="line"/>
      <point x="395" y="-230" type="line"/>
      <point x="429" y="-20" type="line"/>
      <point x="277" y="-8"/>
      <point x="147" y="33"/>
    </contour>
  </outline>
</glyph>
<glyph name="percent" format="1">
  <advance width="1911"/>
  <unicode hex="0025"/>
  <outline>
    <contour>
      <point x="410" y="0" type="line"/>
      <point x="1357" y="1530" type="line"/>
      <point x="1486" y="1530" type="line"/>
      <point x="539" y="0" type="line"/>
    </contour>
    <contour>
      <point x="478" y="745" type="curve" smooth="yes"/>
      <point x="295" y="745"/>
      <point x="200" y="879"/>
      <point x="200" y="1055" type="curve" smooth="yes"/>
      <point x="200" y="1267"/>
      <point x="374" y="1480"/>
      <point x="613" y="1480" type="curve" smooth="yes"/>
      <point x="811" y="1480"/>
      <point x="890" y="1357"/>
      <point x="890" y="1185" type="curve" smooth="yes"/>
      <point x="890" y="966"/>
      <point x="730" y="745"/>
    </contour>
    <contour>
      <point x="501" y="828" type="curve" smooth="yes"/>
      <point x="670" y="828"/>
      <point x="747" y="1037"/>
      <point x="747" y="1179" type="curve" smooth="yes"/>
      <point x="747" y="1311"/>
      <point x="700" y="1398"/>
      <point x="591" y="1398" type="curve" smooth="yes"/>
      <point x="423" y="1398"/>
      <point x="336" y="1200"/>
      <point x="336" y="1057" type="curve" smooth="yes"/>
      <point x="336" y="922"/>
      <point x="390" y="828"/>
    </contour>
    <contour>
      <point x="1036" y="374" type="curve" smooth="yes"/>
      <point x="1036" y="586"/>
      <point x="1210" y="799"/>
      <point x="1449" y="799" type="curve" smooth="yes"/>
      <point x="1647" y="799"/>
      <point x="1726" y="676"/>
      <point x="1726" y="504" type="curve" smooth="yes"/>
      <point x="1726" y="285"/>
      <point x="1566" y="64"/>
      <point x="1314" y="64" type="curve" smooth="yes"/>
      <point x="1131" y="64"/>
      <point x="1036" y="198"/>
    </contour>
    <contour>
      <point x="1172" y="376" type="curve" smooth="yes"/>
      <point x="1172" y="241"/>
      <point x="1226" y="147"/>
      <point x="1337" y="147" type="curve" smooth="yes"/>
      <point x="1506" y="147"/>
      <point x="1583" y="356"/>
      <point x="1583" y="498" type="curve" smooth="yes"/>
      <point x="1583" y="630"/>
      <point x="1536" y="717"/>
      <point x="1427" y="717" type="curve" smooth="yes"/>
      <point x="1259" y="717"/>
      <point x="1172" y="519"/>
    </contour>
  </outline>
</glyph>
<glyph name="ampersand" format="1">
  <advance width="1549"/>
  <unicode hex="0026"/>
  <outline>
    <contour>
      <point x="59" y="366" type="curve" smooth="yes"/>
      <point x="59" y="567"/>
      <point x="226" y="677"/>
      <point x="413" y="775" type="curve"/>
      <point x="363" y="886"/>
      <point x="320" y="1042"/>
      <point x="320" y="1153" type="curve" smooth="yes"/>
      <point x="320" y="1394"/>
      <point x="513" y="1549"/>
      <point x="762" y="1549" type="curve" smooth="yes"/>
      <point x="1003" y="1549"/>
      <point x="1080" y="1405"/>
      <point x="1080" y="1269" type="curve" smooth="yes"/>
      <point x="1080" y="1024"/>
      <point x="813" y="906"/>
      <point x="577" y="775" type="curve"/>
      <point x="697" y="561"/>
      <point x="846" y="360"/>
      <point x="1009" y="214" type="curve"/>
      <point x="1079" y="296"/>
      <point x="1105" y="410"/>
      <point x="1105" y="551" type="curve" smooth="yes"/>
      <point x="1105" y="610"/>
      <point x="1094" y="656"/>
      <point x="1082" y="690" type="curve"/>
      <point x="1060" y="692"/>
      <point x="1037" y="693"/>
      <point x="1011" y="693" type="curve" smooth="yes"/>
      <point x="957" y="693"/>
      <point x="901" y="673"/>
      <point x="876" y="660" type="curve"/>
      <point x="876" y="768" type="line"/>
      <point x="892" y="784"/>
      <point x="941" y="810"/>
      <point x="1016" y="810" type="curve" smooth="yes"/>
      <point x="1102" y="810"/>
      <point x="1186" y="784"/>
      <point x="1284" y="784" type="curve" smooth="yes"/>
      <point x="1398" y="784"/>
      <point x="1452" y="830"/>
      <point x="1471" y="955" type="curve"/>
      <point x="1534" y="955" type="line"/>
      <point x="1530" y="773"/>
      <point x="1475" y="662"/>
      <point x="1316" y="662" type="curve" smooth="yes"/>
      <point x="1290" y="662"/>
      <point x="1266" y="664"/>
      <point x="1242" y="667" type="curve"/>
      <point x="1247" y="645"/>
      <point x="1250" y="618"/>
      <point x="1250" y="586" type="curve" smooth="yes"/>
      <point x="1250" y="406"/>
      <point x="1184" y="263"/>
      <point x="1074" y="160" type="curve"/>
      <point x="1112" y="131"/>
      <point x="1153" y="106"/>
      <point x="1203" y="92" type="curve"/>
      <point x="1253" y="76"/>
      <point x="1317" y="66"/>
      <point x="1368" y="69" type="curve"/>
      <point x="1359" y="-1" type="line"/>
      <point x="1281" y="-20"/>
      <point x="1229" y="-20"/>
      <point x="1193" y="-20" type="curve" smooth="yes"/>
      <point x="1108" y="-20"/>
      <point x="1019" y="8"/>
      <point x="947" y="71" type="curve"/>
      <point x="839" y="13"/>
      <point x="707" y="-17"/>
      <point x="563" y="-17" type="curve" smooth="yes"/>
      <point x="309" y="-17"/>
      <point x="59" y="95"/>
    </contour>
    <contour>
      <point x="543" y="841" type="curve"/>
      <point x="740" y="942"/>
      <point x="924" y="1049"/>
      <point x="924" y="1253" type="curve" smooth="yes"/>
      <point x="924" y="1351"/>
      <point x="888" y="1466"/>
      <point x="742" y="1466" type="curve" smooth="yes"/>
      <point x="572" y="1466"/>
      <point x="464" y="1343"/>
      <point x="464" y="1173" type="curve" smooth="yes"/>
      <point x="464" y="1044"/>
      <point x="508" y="918"/>
    </contour>
    <contour>
      <point x="222" y="369" type="curve" smooth="yes"/>
      <point x="222" y="175"/>
      <point x="367" y="72"/>
      <point x="578" y="72" type="curve" smooth="yes"/>
      <point x="709" y="72"/>
      <point x="810" y="90"/>
      <point x="887" y="125" type="curve"/>
      <point x="670" y="329"/>
      <point x="568" y="501"/>
      <point x="452" y="700" type="curve"/>
      <point x="321" y="614"/>
      <point x="222" y="514"/>
    </contour>
  </outline>
</glyph>
<glyph name="quotesingle" format="1">
  <advance width="524"/>
  <unicode hex="0027"/>
  <outline>
    <contour>
      <point x="256" y="966" type="line"/>
      <point x="342" y="1687" type="line"/>
      <point x="524" y="1687" type="line"/>
      <point x="369" y="966" type="line"/>
    </contour>
  </outline>
</glyph>
<glyph name="parenleft" format="1">
  <advance width="854"/>
  <unicode hex="0028"/>
  <outline>
    <contour>
      <point x="203" y="505" type="curve" smooth="yes"/>
      <point x="203" y="574"/>
      <point x="208" y="647"/>
      <point x="218" y="724" type="curve" smooth="yes"/>
      <point x="296" y="1301"/>
      <point x="729" y="1688"/>
      <point x="827" y="1741" type="curve"/>
      <point x="897" y="1693" type="line"/>
      <point x="807" y="1636"/>
      <point x="478" y="1299"/>
      <point x="388" y="763" type="curve"/>
      <point x="377" y="680"/>
      <point x="369" y="584"/>
      <point x="369" y="510" type="curve" smooth="yes"/>
      <point x="369" y="62"/>
      <point x="561" y="-201"/>
      <point x="643" y="-268" type="curve"/>
      <point x="557" y="-319" type="line"/>
      <point x="543" y="-319" type="line"/>
      <point x="469" y="-269"/>
      <point x="203" y="-8"/>
    </contour>
  </outline>
</glyph>
<glyph name="parenright" format="1">
  <advance width="854"/>
  <unicode hex="0029"/>
  <outline>
    <contour>
      <point x="672" y="923" type="curve" smooth="yes"/>
      <point x="672" y="854"/>
      <point x="667" y="781"/>
      <point x="657" y="704" type="curve" smooth="yes"/>
      <point x="579" y="127"/>
      <point x="146" y="-260"/>
      <point x="48" y="-313" type="curve"/>
      <point x="-22" y="-265" type="line"/>
      <point x="68" y="-208"/>
      <point x="397" y="129"/>
      <point x="487" y="665" type="curve"/>
      <point x="498" y="748"/>
      <point x="506" y="844"/>
      <point x="506" y="918" type="curve" smooth="yes"/>
      <point x="506" y="1366"/>
      <point x="314" y="1629"/>
      <point x="232" y="1696" type="curve"/>
      <point x="318" y="1747" type="line"/>
      <point x="332" y="1747" type="line"/>
      <point x="406" y="1697"/>
      <point x="672" y="1436"/>
    </contour>
  </outline>
</glyph>
<glyph name="comma" format="1">
  <advance width="563"/>
  <unicode hex="002C"/>
  <outline>
    <contour>
      <point x="91" y="116" type="curve"/>
      <point x="96" y="159" type="line"/>
      <point x="186" y="265" type="line"/>
      <point x="337" y="227"/>
      <point x="378" y="98"/>
      <point x="378" y="-4" type="curve" smooth="yes"/>
      <point x="378" y="-228"/>
      <point x="221" y="-417"/>
      <point x="5" y="-501" type="curve"/>
      <point x="-29" y="-446" type="line"/>
      <point x="-27" y="-428" type="line"/>
      <point x="92" y="-375"/>
      <point x="216" y="-226"/>
      <point x="216" y="-69" type="curve" smooth="yes"/>
      <point x="216" y="32"/>
      <point x="156" y="113"/>
    </contour>
  </outline>
</glyph>
<glyph name="period" format="1">
  <advance width="526"/>
  <unicode hex="002E"/>
  <outline>
    <contour>
      <point x="113" y="88" type="curve" smooth="yes"/>
      <point x="122" y="160"/>
      <point x="179" y="210"/>
      <point x="240" y="210" type="curve" smooth="yes"/>
      <point x="316" y="210"/>
      <point x="342" y="165"/>
      <point x="334" y="105" type="curve" smooth="yes"/>
      <point x="324" y="28"/>
      <point x="263" y="-18"/>
      <point x="200" y="-18" type="curve" smooth="yes"/>
      <point x="142" y="-18"/>
      <point x="104" y="19"/>
    </contour>
  </outline>
</glyph>
<glyph name="two" format="1">
  <advance width="1273"/>
  <unicode hex="0032"/>
  <outline>
    <contour>
      <point x="107" y="0" type="line"/>
      <point x="93" y="67" type="line"/>
      <point x="483" y="259"/>
      <point x="883" y="540"/>
      <point x="883" y="809" type="curve" smooth="yes"/>
      <point x="883" y="964"/>
      <point x="794" y="1052"/>
      <point x="632" y="1052" type="curve" smooth="yes"/>
      <point x="473" y="1052"/>
      <point x="336" y="955"/>
      <point x="260" y="892" type="curve"/>
      <point x="217" y="964" type="line"/>
      <point x="298" y="1049"/>
      <point x="471" y="1162"/>
      <point x="683" y="1162" type="curve" smooth="yes"/>
      <point x="943" y="1162"/>
      <point x="1055" y="1005"/>
      <point x="1055" y="835" type="curve" smooth="yes"/>
      <point x="1055" y="549"/>
      <point x="661" y="281"/>
      <point x="307" y="101" type="curve"/>
      <point x="945" y="131" type="line"/>
      <point x="1038" y="305" type="line"/>
      <point x="1119" y="276" type="line"/>
      <point x="1040" y="0" type="line"/>
    </contour>
  </outline>
</glyph>
<glyph name="three" format="1">
  <advance width="1128"/>
  <unicode hex="0033"/>
  <outline>
    <contour>
      <point x="67" y="-223" type="line"/>
      <point x="118" y="-229"/>
      <point x="171" y="-234"/>
      <point x="210" y="-234" type="curve" smooth="yes"/>
      <point x="488" y="-234"/>
      <point x="757" y="-93"/>
      <point x="757" y="155" type="curve" smooth="yes"/>
      <point x="757" y="309"/>
      <point x="677" y="417"/>
      <point x="461" y="419" type="curve"/>
      <point x="438" y="409"/>
      <point x="310" y="378"/>
      <point x="289" y="371" type="curve"/>
      <point x="301" y="466" type="line"/>
      <point x="544" y="524"/>
      <point x="776" y="651"/>
      <point x="776" y="851" type="curve" smooth="yes"/>
      <point x="776" y="989"/>
      <point x="686" y="1051"/>
      <point x="557" y="1051" type="curve" smooth="yes"/>
      <point x="406" y="1051"/>
      <point x="296" y="982"/>
      <point x="207" y="917" type="curve"/>
      <point x="173" y="998" type="line"/>
      <point x="240" y="1063"/>
      <point x="413" y="1162"/>
      <point x="627" y="1162" type="curve" smooth="yes"/>
      <point x="797" y="1162"/>
      <point x="954" y="1077"/>
      <point x="954" y="881" type="curve" smooth="yes"/>
      <point x="954" y="700"/>
      <point x="772" y="548"/>
      <point x="586" y="482" type="curve"/>
      <point x="837" y="482"/>
      <point x="940" y="338"/>
      <point x="940" y="176" type="curve" smooth="yes"/>
      <point x="940" y="-132"/>
      <point x="573" y="-327"/>
      <point x="223" y="-327" type="curve" smooth="yes"/>
      <point x="173" y="-327"/>
      <point x="120" y="-323"/>
      <point x="56" y="-315" type="curve"/>
    </contour>
  </outline>
</glyph>
<glyph name="seven" format="1">
  <advance width="1120"/>
  <unicode hex="0037"/>
  <outline>
    <contour>
      <point x="259" y="-262" type="line"/>
      <point x="904" y="1034" type="line"/>
      <point x="300" y="1024" type="line"/>
      <point x="210" y="813" type="line"/>
      <point x="107" y="817" type="line"/>
      <point x="177" y="1146" type="line"/>
      <point x="1039" y="1146" type="line"/>
      <point x="1067" y="1109" type="line"/>
      <point x="425" y="-315" type="line"/>
    </contour>
  </outline>
</glyph>
<glyph name="eight" format="1">
  <advance width="1289"/>
  <unicode hex="0038"/>
  <outline>
    <contour>
      <point x="139" y="333" type="curve" smooth="yes"/>
      <point x="139" y="554"/>
      <point x="345" y="701"/>
      <point x="536" y="798" type="curve"/>
      <point x="429" y="883"/>
      <point x="321" y="983"/>
      <point x="321" y="1143" type="curve" smooth="yes"/>
      <point x="321" y="1401"/>
      <point x="514" y="1550"/>
      <point x="778" y="1550" type="curve" smooth="yes"/>
      <point x="1002" y="1550"/>
      <point x="1158" y="1427"/>
      <point x="1158" y="1225" type="curve" smooth="yes"/>
      <point x="1158" y="1034"/>
      <point x="981" y="896"/>
      <point x="785" y="795" type="curve"/>
      <point x="930" y="692"/>
      <point x="1086" y="568"/>
      <point x="1086" y="398" type="curve" smooth="yes"/>
      <point x="1086" y="136"/>
      <point x="829" y="-20"/>
      <point x="569" y="-20" type="curve" smooth="yes"/>
      <point x="355" y="-20"/>
      <point x="139" y="86"/>
    </contour>
    <contour>
      <point x="710" y="848" type="curve"/>
      <point x="846" y="909"/>
      <point x="1001" y="1039"/>
      <point x="1001" y="1214" type="curve" smooth="yes"/>
      <point x="1001" y="1388"/>
      <point x="898" y="1470"/>
      <point x="761" y="1470" type="curve" smooth="yes"/>
      <point x="596" y="1470"/>
      <point x="477" y="1350"/>
      <point x="477" y="1171" type="curve" smooth="yes"/>
      <point x="477" y="1027"/>
      <point x="584" y="940"/>
    </contour>
    <contour>
      <point x="309" y="360" type="curve"/>
      <point x="309" y="188"/>
      <point x="408" y="66"/>
      <point x="597" y="66" type="curve" smooth="yes"/>
      <point x="768" y="66"/>
      <point x="918" y="175"/>
      <point x="918" y="369" type="curve" smooth="yes"/>
      <point x="918" y="519"/>
      <point x="778" y="630"/>
      <point x="606" y="747" type="curve"/>
      <point x="465" y="680"/>
      <point x="312" y="542"/>
    </contour>
  </outline>
</glyph>
<glyph name="nine" format="1">
  <advance width="1271"/>
  <unicode hex="0039"/>
  <outline>
    <contour>
      <point x="229" y="-363" type="line"/>
      <point x="542" y="-249"/>
      <point x="779" y="8"/>
      <point x="880" y="297" type="curve"/>
      <point x="814" y="238"/>
      <point x="681" y="165"/>
      <point x="503" y="165" type="curve" smooth="yes"/>
      <point x="238" y="165"/>
      <point x="136" y="353"/>
      <point x="136" y="546" type="curve" smooth="yes"/>
      <point x="136" y="824"/>
      <point x="358" y="1160"/>
      <point x="697" y="1160" type="curve" smooth="yes"/>
      <point x="969" y="1160"/>
      <point x="1107" y="947"/>
      <point x="1107" y="682" type="curve" smooth="yes"/>
      <point x="1107" y="179"/>
      <point x="743" y="-295"/>
      <point x="253" y="-432" type="curve"/>
    </contour>
    <contour>
      <point x="540" y="263" type="curve" smooth="yes"/>
      <point x="740" y="263"/>
      <point x="865" y="389"/>
      <point x="912" y="445" type="curve"/>
      <point x="930" y="514"/>
      <point x="942" y="609"/>
      <point x="942" y="696" type="curve" smooth="yes"/>
      <point x="942" y="911"/>
      <point x="853" y="1073"/>
      <point x="660" y="1073" type="curve" smooth="yes"/>
      <point x="414" y="1073"/>
      <point x="304" y="788"/>
      <point x="304" y="589" type="curve" smooth="yes"/>
      <point x="304" y="383"/>
      <point x="400" y="263"/>
    </contour>
  </outline>
</glyph>
<glyph name="less" format="1">
  <advance width="1368"/>
  <unicode hex="003C"/>
  <outline>
    <contour>
      <point x="197" y="699" type="line"/>
      <point x="210" y="802" type="line"/>
      <point x="1220" y="1324" type="line"/>
      <point x="1201" y="1168" type="line"/>
      <point x="361" y="751" type="line"/>
      <point x="1103" y="333" type="line"/>
      <point x="1085" y="176" type="line"/>
    </contour>
  </outline>
</glyph>
<glyph name="greater" format="1">
  <advance width="1368"/>
  <unicode hex="003E"/>
  <outline>
    <contour>
      <point x="1245" y="804" type="line"/>
      <point x="1232" y="701" type="line"/>
      <point x="222" y="179" type="line"/>
      <point x="241" y="335" type="line"/>
      <point x="1081" y="752" type="line"/>
      <point x="339" y="1170" type="line"/>
      <point x="357" y="1327" type="line"/>
    </contour>
  </outline>
</glyph>
<glyph name="at" format="1">
  <advance width="1969"/>
  <unicode hex="0040"/>
  <outline>
    <contour>
      <point x="120" y="334" type="curve" smooth="yes"/>
      <point x="120" y="1058"/>
      <point x="609" y="1545"/>
      <point x="1199" y="1545" type="curve" smooth="yes"/>
      <point x="1603" y="1545"/>
      <point x="1868" y="1309"/>
      <point x="1868" y="909" type="curve" smooth="yes"/>
      <point x="1868" y="350"/>
      <point x="1532" y="21"/>
      <point x="1269" y="21" type="curve" smooth="yes"/>
      <point x="1176" y="21"/>
      <point x="1172" y="113"/>
      <point x="1172" y="220" type="curve" smooth="yes"/>
      <point x="1172" y="267"/>
      <point x="1186" y="376"/>
      <point x="1210" y="480" type="curve"/>
      <point x="1119" y="265"/>
      <point x="976" y="7"/>
      <point x="821" y="7" type="curve" smooth="yes"/>
      <point x="686" y="7"/>
      <point x="537" y="137"/>
      <point x="543" y="434" type="curve" smooth="yes"/>
      <point x="549" y="725"/>
      <point x="713" y="1092"/>
      <point x="1083" y="1092" type="curve" smooth="yes"/>
      <point x="1139" y="1092"/>
      <point x="1252" y="1077"/>
      <point x="1310" y="1038" type="curve"/>
      <point x="1444" y="1063" type="line"/>
      <point x="1403" y="909"/>
      <point x="1355" y="642"/>
      <point x="1330" y="439" type="curve" smooth="yes"/>
      <point x="1317" y="336"/>
      <point x="1318" y="236"/>
      <point x="1318" y="195" type="curve" smooth="yes"/>
      <point x="1318" y="167"/>
      <point x="1326" y="138"/>
      <point x="1353" y="138" type="curve" smooth="yes"/>
      <point x="1533" y="138"/>
      <point x="1744" y="479"/>
      <point x="1744" y="853" type="curve" smooth="yes"/>
      <point x="1744" y="1281"/>
      <point x="1456" y="1440"/>
      <point x="1131" y="1440" type="curve" smooth="yes"/>
      <point x="579" y="1440"/>
      <point x="243" y="939"/>
      <point x="243" y="392" type="curve" smooth="yes"/>
      <point x="243" y="-116"/>
      <point x="537" y="-317"/>
      <point x="902" y="-317" type="curve" smooth="yes"/>
      <point x="1047" y="-317"/>
      <point x="1197" y="-275"/>
      <point x="1265" y="-242" type="curve"/>
      <point x="1291" y="-312" type="line"/>
      <point x="1199" y="-382"/>
      <point x="1046" y="-428"/>
      <point x="875" y="-428" type="curve" smooth="yes"/>
      <point x="444" y="-428"/>
      <point x="120" y="-183"/>
    </contour>
    <contour>
      <point x="686" y="445" type="curve" smooth="yes"/>
      <point x="686" y="250"/>
      <point x="748" y="138"/>
      <point x="849" y="138" type="curve" smooth="yes"/>
      <point x="985" y="138"/>
      <point x="1191" y="561"/>
      <point x="1269" y="910" type="curve"/>
      <point x="1231" y="964"/>
      <point x="1128" y="991"/>
      <point x="1071" y="991" type="curve" smooth="yes"/>
      <point x="777" y="990"/>
      <point x="686" y="689"/>
    </contour>
  </outline>
</glyph>
<glyph name="H" format="1">
  <advance width="1534"/>
  <unicode hex="0048"/>
  <outline>
    <contour>
      <point x="41" y="0" type="line"/>
      <point x="48" y="69" type="line"/>
      <point x="197" y="94" type="line"/>
      <point x="377" y="1430" type="line"/>
      <point x="242" y="1449" type="line"/>
      <point x="252" y="1530" type="line"/>
      <point x="697" y="1530" type="line"/>
      <point x="689" y="1449" type="line"/>
      <point x="538" y="1430" type="line"/>
      <point x="457" y="830" type="line"/>
      <point x="1155" y="830" type="line"/>
      <point x="1236" y="1430" type="line"/>
      <point x="1088" y="1449" type="line"/>
      <point x="1095" y="1530" type="line"/>
      <point x="1545" y="1530" type="line"/>
      <point x="1536" y="1449" type="line"/>
      <point x="1396" y="1430" type="line"/>
      <point x="1217" y="95" type="line"/>
      <point x="1371" y="69" type="line"/>
      <point x="1363" y="0" type="line"/>
      <point x="890" y="0" type="line"/>
      <point x="897" y="70" type="line"/>
      <point x="1057" y="95" type="line"/>
      <point x="1141" y="726" type="line"/>
      <point x="443" y="726" type="line"/>
      <point x="358" y="94" type="line"/>
      <point x="514" y="70" type="line"/>
      <point x="507" y="0" type="line"/>
    </contour>
  </outline>
</glyph>
<glyph name="M" format="1">
  <advance width="1847"/>
  <unicode hex="004D"/>
  <outline>
    <contour>
      <point x="-61" y="0" type="line"/>
      <point x="-53" y="70" type="line"/>
      <point x="103" y="94" type="line"/>
      <point x="468" y="1430" type="line"/>
      <point x="280" y="1449" type="line"/>
      <point x="290" y="1530" type="line"/>
      <point x="704" y="1530" type="line"/>
      <point x="843" y="463" type="line"/>
      <point x="864" y="204" type="line"/>
      <point x="963" y="459" type="line"/>
      <point x="1465" y="1530" type="line"/>
      <point x="1846" y="1530" type="line"/>
      <point x="1837" y="1449" type="line"/>
      <point x="1658" y="1430" type="line"/>
      <point x="1597" y="95" type="line"/>
      <point x="1759" y="70" type="line"/>
      <point x="1752" y="0" type="line"/>
      <point x="1242" y="0" type="line"/>
      <point x="1250" y="70" type="line"/>
      <point x="1430" y="93" type="line"/>
      <point x="1502" y="1026" type="line"/>
      <point x="1533" y="1427" type="line"/>
      <point x="1381" y="1074" type="line"/>
      <point x="869" y="-4" type="line"/>
      <point x="769" y="-18" type="line"/>
      <point x="620" y="1050" type="line"/>
      <point x="578" y="1427" type="line"/>
      <point x="490" y="1042" type="line"/>
      <point x="249" y="94" type="line"/>
      <point x="433" y="70" type="line"/>
      <point x="426" y="0" type="line"/>
    </contour>
  </outline>
</glyph>
<glyph name="N" format="1">
  <advance width="1521"/>
  <unicode hex="004E"/>
  <outline>
    <contour>
      <point x="24" y="0" type="line"/>
      <point x="31" y="69" type="line"/>
      <point x="171" y="92" type="line"/>
      <point x="361" y="1430" type="line"/>
      <point x="216" y="1449" type="line"/>
      <point x="230" y="1530" type="line"/>
      <point x="531" y="1530" type="line"/>
      <point x="1046" y="368" type="line"/>
      <point x="1112" y="172" type="line"/>
      <point x="1278" y="1431" type="line"/>
      <point x="1127" y="1449" type="line"/>
      <point x="1137" y="1530" type="line"/>
      <point x="1572" y="1530" type="line"/>
      <point x="1564" y="1449" type="line"/>
      <point x="1412" y="1430" type="line"/>
      <point x="1198" y="0" type="line"/>
      <point x="1046" y="0" type="line"/>
      <point x="535" y="1136" type="line"/>
      <point x="471" y="1336" type="line"/>
      <point x="310" y="94" type="line"/>
      <point x="474" y="70" type="line"/>
      <point x="468" y="0" type="line"/>
    </contour>
  </outline>
</glyph>
<glyph name="O" format="1">
  <advance width="1352"/>
  <unicode hex="004F"/>
  <outline>
    <contour>
      <point x="606" y="-20" type="curve" smooth="yes"/>
      <point x="301" y="-20"/>
      <point x="114" y="240"/>
      <point x="106" y="641" type="curve" smooth="yes"/>
      <point x="96" y="1155"/>
      <point x="414" y="1550"/>
      <point x="807" y="1550" type="curve" smooth="yes"/>
      <point x="1137" y="1550"/>
      <point x="1299" y="1252"/>
      <point x="1305" y="889" type="curve" smooth="yes"/>
      <point x="1313" y="378"/>
      <point x="1004" y="-20"/>
    </contour>
    <contour>
      <point x="628" y="76" type="curve"/>
      <point x="917" y="75"/>
      <point x="1148" y="402"/>
      <point x="1139" y="848" type="curve" smooth="yes"/>
      <point x="1132" y="1191"/>
      <point x="1047" y="1454"/>
      <point x="784" y="1454" type="curve" smooth="yes"/>
      <point x="491" y="1454"/>
      <point x="266" y="1109"/>
      <point x="273" y="682" type="curve" smooth="yes"/>
      <point x="279" y="320"/>
      <point x="373" y="78"/>
    </contour>
  </outline>
</glyph>
<glyph name="Q" format="1">
  <advance width="1353"/>
  <unicode hex="0051"/>
  <outline>
    <contour>
      <point x="584" y="-18" type="curve"/>
      <point x="293" y="-6"/>
      <point x="115" y="251"/>
      <point x="107" y="642" type="curve" smooth="yes"/>
      <point x="97" y="1156"/>
      <point x="415" y="1551"/>
      <point x="808" y="1551" type="curve" smooth="yes"/>
      <point x="1138" y="1551"/>
      <point x="1300" y="1253"/>
      <point x="1306" y="890" type="curve" smooth="yes"/>
      <point x="1313" y="414"/>
      <point x="1046" y="36"/>
      <point x="688" y="-13" type="curve"/>
      <point x="693" y="-187"/>
      <point x="860" y="-217"/>
      <point x="992" y="-217" type="curve" smooth="yes"/>
      <point x="1050" y="-217"/>
      <point x="1144" y="-195"/>
      <point x="1202" y="-166" type="curve"/>
      <point x="1204" y="-277" type="line"/>
      <point x="1155" y="-317"/>
      <point x="1039" y="-358"/>
      <point x="927" y="-358" type="curve" smooth="yes"/>
      <point x="746" y="-358"/>
      <point x="558" y="-249"/>
    </contour>
    <contour>
      <point x="629" y="77" type="curve"/>
      <point x="918" y="76"/>
      <point x="1149" y="403"/>
      <point x="1140" y="849" type="curve" smooth="yes"/>
      <point x="1133" y="1192"/>
      <point x="1048" y="1455"/>
      <point x="785" y="1455" type="curve" smooth="yes"/>
      <point x="492" y="1455"/>
      <point x="267" y="1110"/>
      <point x="274" y="683" type="curve" smooth="yes"/>
      <point x="280" y="321"/>
      <point x="374" y="79"/>
    </contour>
  </outline>
</glyph>
<glyph name="R" format="1">
  <advance width="1324"/>
  <unicode hex="0052"/>
  <outline>
    <contour>
      <point x="52" y="0" type="line"/>
      <point x="59" y="69" type="line"/>
      <point x="193" y="94" type="line"/>
      <point x="374" y="1430" type="line"/>
      <point x="239" y="1449" type="line"/>
      <point x="249" y="1530" type="line"/>
      <point x="459" y="1530" type="line" smooth="yes"/>
      <point x="555" y="1530"/>
      <point x="628" y="1546"/>
      <point x="728" y="1546" type="curve" smooth="yes"/>
      <point x="1060" y="1546"/>
      <point x="1207" y="1427"/>
      <point x="1212" y="1194" type="curve" smooth="yes"/>
      <point x="1217" y="944"/>
      <point x="1066" y="753"/>
      <point x="825" y="690" type="curve"/>
      <point x="904" y="629"/>
      <point x="988" y="459"/>
      <point x="1022" y="373" type="curve" smooth="yes"/>
      <point x="1115" y="137"/>
      <point x="1157" y="75"/>
      <point x="1290" y="79" type="curve"/>
      <point x="1286" y="-1" type="line"/>
      <point x="1062" y="1" type="line"/>
      <point x="1022" y="0"/>
      <point x="987" y="58"/>
      <point x="904" y="266" type="curve" smooth="yes"/>
      <point x="829" y="455"/>
      <point x="753" y="685"/>
      <point x="646" y="671" type="curve"/>
      <point x="631" y="671"/>
      <point x="483" y="670"/>
      <point x="424" y="671" type="curve"/>
      <point x="348" y="94" type="line"/>
      <point x="536" y="70" type="line"/>
      <point x="530" y="0" type="line"/>
    </contour>
    <contour>
      <point x="436" y="766" type="line"/>
      <point x="486" y="763"/>
      <point x="638" y="761"/>
      <point x="679" y="764" type="curve" smooth="yes"/>
      <point x="918" y="779"/>
      <point x="1058" y="939"/>
      <point x="1053" y="1187" type="curve" smooth="yes"/>
      <point x="1050" y="1362"/>
      <point x="961" y="1451"/>
      <point x="700" y="1451" type="curve" smooth="yes"/>
      <point x="669" y="1451"/>
      <point x="578" y="1443"/>
      <point x="529" y="1436" type="curve"/>
    </contour>
  </outline>
</glyph>
<glyph name="U" format="1">
  <advance width="1396"/>
  <unicode hex="0055"/>
  <outline>
    <contour>
      <point x="178" y="426" type="curve" smooth="yes"/>
      <point x="177" y="478"/>
      <point x="180" y="534"/>
      <point x="186" y="593" type="curve"/>
      <point x="311" y="1431" type="line"/>
      <point x="172" y="1450" type="line"/>
      <point x="182" y="1530" type="line"/>
      <point x="637" y="1530" type="line"/>
      <point x="628" y="1450" type="line"/>
      <point x="474" y="1429" type="line"/>
      <point x="351" y="607" type="line"/>
      <point x="343" y="534"/>
      <point x="340" y="475"/>
      <point x="341" y="418" type="curve" smooth="yes"/>
      <point x="345" y="202"/>
      <point x="446" y="69"/>
      <point x="651" y="69" type="curve" smooth="yes"/>
      <point x="902" y="69"/>
      <point x="1043" y="249"/>
      <point x="1088" y="627" type="curve"/>
      <point x="1207" y="1429" type="line"/>
      <point x="1072" y="1449" type="line"/>
      <point x="1081" y="1530" type="line"/>
      <point x="1485" y="1530" type="line"/>
      <point x="1476" y="1449" type="line"/>
      <point x="1347" y="1431" type="line"/>
      <point x="1227" y="627" type="line"/>
      <point x="1166" y="155"/>
      <point x="971" y="-20"/>
      <point x="628" y="-20" type="curve" smooth="yes"/>
      <point x="342" y="-20"/>
      <point x="183" y="150"/>
    </contour>
  </outline>
</glyph>
<glyph name="V" format="1">
  <advance width="1212"/>
  <unicode hex="0056"/>
  <outline>
    <contour>
      <point x="443" y="-21" type="line"/>
      <point x="218" y="1430" type="line"/>
      <point x="88" y="1449" type="line"/>
      <point x="96" y="1530" type="line"/>
      <point x="577" y="1530" type="line"/>
      <point x="568" y="1449" type="line"/>
      <point x="385" y="1430" type="line"/>
      <point x="517" y="449" type="line"/>
      <point x="549" y="133" type="line"/>
      <point x="666" y="449" type="line"/>
      <point x="1118" y="1430" type="line"/>
      <point x="958" y="1450" type="line"/>
      <point x="966" y="1530" type="line"/>
      <point x="1376" y="1530" type="line"/>
      <point x="1368" y="1450" type="line"/>
      <point x="1256" y="1431" type="line"/>
      <point x="583" y="-11" type="line"/>
    </contour>
  </outline>
</glyph>
<glyph name="X" format="1">
  <advance width="1287"/>
  <unicode hex="0058"/>
  <outline>
    <contour>
      <point x="-65" y="0" type="line"/>
      <point x="-56" y="70" type="line"/>
      <point x="78" y="93" type="line"/>
      <point x="593" y="773" type="line"/>
      <point x="296" y="1427" type="line"/>
      <point x="147" y="1449" type="line"/>
      <point x="155" y="1530" type="line"/>
      <point x="658" y="1530" type="line"/>
      <point x="649" y="1449" type="line"/>
      <point x="480" y="1431" type="line"/>
      <point x="700" y="877" type="line"/>
      <point x="1085" y="1430" type="line"/>
      <point x="923" y="1449" type="line"/>
      <point x="932" y="1530" type="line"/>
      <point x="1392" y="1530" type="line"/>
      <point x="1384" y="1449" type="line"/>
      <point x="1240" y="1431" type="line"/>
      <point x="752" y="779" type="line"/>
      <point x="1071" y="94" type="line"/>
      <point x="1234" y="70" type="line"/>
      <point x="1227" y="0" type="line"/>
      <point x="703" y="0" type="line"/>
      <point x="709" y="70" type="line"/>
      <point x="885" y="93" type="line"/>
      <point x="643" y="673" type="line"/>
      <point x="235" y="94" type="line"/>
      <point x="403" y="69" type="line"/>
      <point x="396" y="0" type="line"/>
    </contour>
  </outline>
</glyph>
<glyph name="Z" format="1">
  <advance width="1203"/>
  <unicode hex="005A"/>
  <outline>
    <contour>
      <point x="25" y="0" type="line"/>
      <point x="3" y="73" type="line"/>
      <point x="911" y="1293" type="line"/>
      <point x="1036" y="1438" type="line"/>
      <point x="410" y="1432" type="line"/>
      <point x="320" y="1167" type="line"/>
      <point x="212" y="1186" type="line"/>
      <point x="268" y="1530" type="line"/>
      <point x="1196" y="1530" type="line"/>
      <point x="1217" y="1461" type="line"/>
      <point x="291" y="207" type="line"/>
      <point x="187" y="86" type="line"/>
      <point x="877" y="106" type="line"/>
      <point x="998" y="378" type="line"/>
      <point x="1109" y="353" type="line"/>
      <point x="1016" y="0" type="line"/>
    </contour>
  </outline>
</glyph>
<glyph name="bracketleft" format="1">
  <advance width="854"/>
  <unicode hex="005B"/>
  <outline>
    <contour>
      <point x="205" y="28" type="curve" smooth="yes"/>
      <point x="222" y="314"/>
      <point x="359" y="1158"/>
      <point x="405" y="1513" type="curve" smooth="yes"/>
      <point x="425" y="1666"/>
      <point x="463" y="1713"/>
      <point x="590" y="1713" type="curve" smooth="yes"/>
      <point x="684" y="1713"/>
      <point x="847" y="1676"/>
      <point x="866" y="1676" type="curve"/>
      <point x="855" y="1606" type="line"/>
      <point x="567" y="1606" type="line"/>
      <point x="345" y="-66" type="line"/>
      <point x="414" y="-66"/>
      <point x="570" y="-68"/>
      <point x="638" y="-68" type="curve"/>
      <point x="635" y="-90"/>
      <point x="632" y="-115"/>
      <point x="630" y="-137" type="curve"/>
      <point x="545" y="-158"/>
      <point x="436" y="-174"/>
      <point x="338" y="-174" type="curve" smooth="yes"/>
      <point x="239" y="-174"/>
      <point x="202" y="-148"/>
      <point x="202" y="-61" type="curve" smooth="yes"/>
      <point x="202" y="-34"/>
      <point x="203" y="-5"/>
    </contour>
  </outline>
</glyph>
<glyph name="underscore" format="1">
  <advance width="1335"/>
  <unicode hex="005F"/>
  <outline>
    <contour>
      <point x="-95" y="-218" type="line"/>
      <point x="1283" y="-218" type="line"/>
      <point x="1267" y="-338" type="line"/>
      <point x="-111" y="-338" type="line"/>
    </contour>
  </outline>
</glyph>
<glyph name="a" format="1">
  <advance width="1138"/>
  <unicode hex="0061"/>
  <outline>
    <contour>
      <point x="375" y="-20" type="curve" smooth="yes"/>
      <point x="163" y="-20"/>
      <point x="66" y="149"/>
      <point x="66" y="399" type="curve" smooth="yes"/>
      <point x="66" y="708"/>
      <point x="302" y="1163"/>
      <point x="706" y="1163" type="curve" smooth="yes"/>
      <point x="770" y="1163"/>
      <point x="843" y="1146"/>
      <point x="899" y="1127" type="curve"/>
      <point x="900" y="1128" type="line"/>
      <point x="1018" y="1162" type="line"/>
      <point x="868" y="173" type="line" smooth="yes"/>
      <point x="858" y="104"/>
      <point x="887" y="85"/>
      <point x="906" y="85" type="curve" smooth="yes"/>
      <point x="932" y="85"/>
      <point x="957" y="109"/>
      <point x="996" y="144" type="curve"/>
      <point x="1023" y="100" type="line"/>
      <point x="1012" y="77"/>
      <point x="928" y="-20"/>
      <point x="824" y="-20" type="curve" smooth="yes"/>
      <point x="748" y="-20"/>
      <point x="701" y="17"/>
      <point x="708" y="117" type="curve"/>
      <point x="718" y="190" type="line"/>
      <point x="648" y="90"/>
      <point x="524" y="-20"/>
    </contour>
    <contour>
      <point x="407" y="94" type="curve" smooth="yes"/>
      <point x="558" y="94"/>
      <point x="683" y="244"/>
      <point x="739" y="336" type="curve"/>
      <point x="842" y="1019" type="line"/>
      <point x="798" y="1052"/>
      <point x="739" y="1064"/>
      <point x="681" y="1064" type="curve" smooth="yes"/>
      <point x="389" y="1064"/>
      <point x="230" y="692"/>
      <point x="230" y="421" type="curve" smooth="yes"/>
      <point x="230" y="206"/>
      <point x="291" y="94"/>
    </contour>
  </outline>
</glyph>
<glyph name="k" format="1">
  <advance width="1059"/>
  <unicode hex="006B"/>
  <outline>
    <contour>
      <point x="105" y="0" type="line"/>
      <point x="305" y="1515" type="line"/>
      <point x="190" y="1548" type="line"/>
      <point x="202" y="1615" type="line"/>
      <point x="434" y="1650" type="line"/>
      <point x="478" y="1627" type="line"/>
      <point x="259" y="0" type="line"/>
    </contour>
    <contour>
      <point x="666" y="88" type="curve"/>
      <point x="366" y="610" type="line"/>
      <point x="368" y="611" type="line"/>
      <point x="366" y="611" type="line"/>
      <point x="501" y="711"/>
      <point x="652" y="786"/>
      <point x="748" y="917" type="curve" smooth="yes"/>
      <point x="791" y="975"/>
      <point x="799" y="1029"/>
      <point x="805" y="1072" type="curve"/>
      <point x="816" y="1133"/>
      <point x="869" y="1163"/>
      <point x="915" y="1163" type="curve" smooth="yes"/>
      <point x="960" y="1163"/>
      <point x="999" y="1131"/>
      <point x="1000" y="1082" type="curve" smooth="yes"/>
      <point x="1001" y="1049"/>
      <point x="990" y="1003"/>
      <point x="958" y="956" type="curve" smooth="yes"/>
      <point x="867" y="825"/>
      <point x="626" y="690"/>
      <point x="516" y="624" type="curve"/>
      <point x="794" y="192" type="line"/>
      <point x="831" y="138"/>
      <point x="879" y="96"/>
      <point x="914" y="96" type="curve" smooth="yes"/>
      <point x="941" y="96"/>
      <point x="983" y="111"/>
      <point x="1023" y="151" type="curve"/>
      <point x="1051" y="101" type="line"/>
      <point x="1018" y="47"/>
      <point x="922" y="-20"/>
      <point x="825" y="-20" type="curve" smooth="yes"/>
      <point x="771" y="-20"/>
      <point x="711" y="12"/>
    </contour>
  </outline>
</glyph>
<glyph name="m" format="1">
  <advance width="1880"/>
  <unicode hex="006D"/>
  <outline>
    <contour>
      <point x="114" y="0" type="line"/>
      <point x="246" y="1002" type="line"/>
      <point x="149" y="1049" type="line"/>
      <point x="163" y="1121" type="line"/>
      <point x="373" y="1163" type="line"/>
      <point x="413" y="1143" type="line"/>
      <point x="387" y="888" type="line"/>
      <point x="500" y="1036"/>
      <point x="669" y="1163"/>
      <point x="829" y="1163" type="curve" smooth="yes"/>
      <point x="970" y="1163"/>
      <point x="1045" y="1085"/>
      <point x="1052" y="902" type="curve"/>
      <point x="1157" y="1043"/>
      <point x="1313" y="1163"/>
      <point x="1463" y="1163" type="curve" smooth="yes"/>
      <point x="1599" y="1163"/>
      <point x="1694" y="1080"/>
      <point x="1694" y="867" type="curve" smooth="yes"/>
      <point x="1694" y="771"/>
      <point x="1664" y="622"/>
      <point x="1644" y="506" type="curve"/>
      <point x="1627" y="401"/>
      <point x="1602" y="263"/>
      <point x="1595" y="158" type="curve" smooth="yes"/>
      <point x="1592" y="113"/>
      <point x="1598" y="85"/>
      <point x="1617" y="85" type="curve" smooth="yes"/>
      <point x="1648" y="85"/>
      <point x="1680" y="107"/>
      <point x="1730" y="156" type="curve"/>
      <point x="1757" y="112" type="line"/>
      <point x="1739" y="84"/>
      <point x="1648" y="-20"/>
      <point x="1537" y="-20" type="curve" smooth="yes"/>
      <point x="1469" y="-20"/>
      <point x="1431" y="13"/>
      <point x="1434" y="94" type="curve" smooth="yes"/>
      <point x="1438" y="193"/>
      <point x="1466" y="345"/>
      <point x="1484" y="462" type="curve"/>
      <point x="1503" y="576"/>
      <point x="1534" y="733"/>
      <point x="1534" y="858" type="curve" smooth="yes"/>
      <point x="1534" y="995"/>
      <point x="1492" y="1035"/>
      <point x="1405" y="1035" type="curve" smooth="yes"/>
      <point x="1297" y="1035"/>
      <point x="1150" y="914"/>
      <point x="1048" y="772" type="curve"/>
      <point x="1040" y="685"/>
      <point x="1025" y="585"/>
      <point x="1012" y="505" type="curve"/>
      <point x="944" y="0" type="line"/>
      <point x="786" y="0" type="line"/>
      <point x="849" y="457" type="line"/>
      <point x="868" y="574"/>
      <point x="893" y="738"/>
      <point x="893" y="859" type="curve" smooth="yes"/>
      <point x="893" y="997"/>
      <point x="859" y="1037"/>
      <point x="760" y="1037" type="curve" smooth="yes"/>
      <point x="641" y="1037"/>
      <point x="474" y="903"/>
      <point x="369" y="747" type="curve"/>
      <point x="269" y="0" type="line"/>
    </contour>
  </outline>
</glyph>
<glyph name="p" format="1">
  <advance width="1147"/>
  <unicode hex="0070"/>
  <outline>
    <contour>
      <point x="263" y="4" type="curve"/>
      <point x="191" y="-520" type="line"/>
      <point x="40" y="-520" type="line"/>
      <point x="246" y="1017" type="line"/>
      <point x="138" y="1057" type="line"/>
      <point x="152" y="1121" type="line"/>
      <point x="381" y="1163" type="line"/>
      <point x="420" y="1143" type="line"/>
      <point x="399" y="990" type="line"/>
      <point x="466" y="1076"/>
      <point x="579" y="1163"/>
      <point x="718" y="1163" type="curve" smooth="yes"/>
      <point x="949" y="1163"/>
      <point x="1058" y="980"/>
      <point x="1058" y="730" type="curve" smooth="yes"/>
      <point x="1058" y="418"/>
      <point x="830" y="-20"/>
      <point x="425" y="-20" type="curve" smooth="yes"/>
      <point x="373" y="-20"/>
      <point x="314" y="-10"/>
    </contour>
    <contour>
      <point x="280" y="124" type="line"/>
      <point x="326" y="90"/>
      <point x="388" y="78"/>
      <point x="449" y="78" type="curve" smooth="yes"/>
      <point x="743" y="78"/>
      <point x="894" y="448"/>
      <point x="894" y="719" type="curve" smooth="yes"/>
      <point x="894" y="934"/>
      <point x="814" y="1048"/>
      <point x="693" y="1048" type="curve" smooth="yes"/>
      <point x="559" y="1048"/>
      <point x="438" y="937"/>
      <point x="380" y="850" type="curve"/>
    </contour>
  </outline>
</glyph>
<glyph name="q" format="1">
  <advance width="1145"/>
  <unicode hex="0071"/>
  <outline>
    <contour>
      <point x="405" y="-20" type="curve" smooth="yes"/>
      <point x="179" y="-20"/>
      <point x="73" y="162"/>
      <point x="73" y="412" type="curve" smooth="yes"/>
      <point x="73" y="721"/>
      <point x="305" y="1163"/>
      <point x="714" y="1163" type="curve" smooth="yes"/>
      <point x="782" y="1163"/>
      <point x="863" y="1144"/>
      <point x="920" y="1122" type="curve"/>
      <point x="926" y="1129" type="line"/>
      <point x="1016" y="1139" type="line"/>
      <point x="804" y="-340" type="line" smooth="yes"/>
      <point x="799" y="-378"/>
      <point x="812" y="-414"/>
      <point x="827" y="-414" type="curve" smooth="yes"/>
      <point x="855" y="-414"/>
      <point x="890" y="-394"/>
      <point x="940" y="-342" type="curve"/>
      <point x="966" y="-387" type="line"/>
      <point x="950" y="-413"/>
      <point x="854" y="-518"/>
      <point x="742" y="-518" type="curve" smooth="yes"/>
      <point x="676" y="-518"/>
      <point x="639" y="-483"/>
      <point x="644" y="-397" type="curve" smooth="yes"/>
      <point x="645" y="-382"/>
      <point x="680" y="-138"/>
      <point x="721" y="144" type="curve"/>
      <point x="653" y="61"/>
      <point x="542" y="-20"/>
    </contour>
    <contour>
      <point x="430" y="94" type="curve" smooth="yes"/>
      <point x="593" y="94"/>
      <point x="730" y="248"/>
      <point x="770" y="331" type="curve"/>
      <point x="789" y="264" type="line"/>
      <point x="780" y="231"/>
      <point x="756" y="187"/>
      <point x="721" y="144" type="curve"/>
      <point x="772" y="500"/>
      <point x="831" y="918"/>
      <point x="845" y="1022" type="curve"/>
      <point x="802" y="1052"/>
      <point x="745" y="1064"/>
      <point x="689" y="1064" type="curve" smooth="yes"/>
      <point x="390" y="1064"/>
      <point x="237" y="694"/>
      <point x="237" y="423" type="curve" smooth="yes"/>
      <point x="237" y="208"/>
      <point x="314" y="94"/>
    </contour>
  </outline>
</glyph>
<glyph name="v" format="1">
  <advance width="1046"/>
  <unicode hex="0076"/>
  <outline>
    <contour>
      <point x="329" y="-20" type="line"/>
      <point x="271" y="352" type="line"/>
      <point x="172" y="979" type="line"/>
      <point x="164" y="1020"/>
      <point x="150" y="1048"/>
      <point x="125" y="1049" type="curve" smooth="yes"/>
      <point x="95" y="1050"/>
      <point x="69" y="1024"/>
      <point x="50" y="1008" type="curve"/>
      <point x="26" y="1058" type="line"/>
      <point x="39" y="1079"/>
      <point x="113" y="1163"/>
      <point x="207" y="1163" type="curve" smooth="yes"/>
      <point x="301" y="1163"/>
      <point x="321" y="1106"/>
      <point x="330" y="1026" type="curve" smooth="yes"/>
      <point x="406" y="352" type="line"/>
      <point x="428" y="132" type="line"/>
      <point x="574" y="327" type="line"/>
      <point x="697" y="511"/>
      <point x="797" y="691"/>
      <point x="831" y="924" type="curve"/>
      <point x="840" y="994"/>
      <point x="802" y="1039"/>
      <point x="802" y="1077" type="curve" smooth="yes"/>
      <point x="802" y="1136"/>
      <point x="833" y="1163"/>
      <point x="877" y="1163" type="curve" smooth="yes"/>
      <point x="949" y="1163"/>
      <point x="987" y="1087"/>
      <point x="987" y="975" type="curve" smooth="yes"/>
      <point x="987" y="781"/>
      <point x="822" y="504"/>
      <point x="692" y="313" type="curve"/>
      <point x="452" y="-9" type="line"/>
    </contour>
  </outline>
</glyph>
<glyph name="x" format="1">
  <advance width="989"/>
  <unicode hex="0078"/>
  <outline>
    <contour>
      <point x="-5" y="0" type="line"/>
      <point x="432" y="589" type="line"/>
      <point x="263" y="996" type="line" smooth="yes"/>
      <point x="247" y="1032"/>
      <point x="235" y="1058"/>
      <point x="199" y="1058" type="curve" smooth="yes"/>
      <point x="169" y="1058"/>
      <point x="133" y="1034"/>
      <point x="91" y="999" type="curve"/>
      <point x="63" y="1044" type="line"/>
      <point x="76" y="1068"/>
      <point x="174" y="1163"/>
      <point x="278" y="1163" type="curve" smooth="yes"/>
      <point x="368" y="1163"/>
      <point x="399" y="1124"/>
      <point x="420" y="1059" type="curve"/>
      <point x="525" y="694" type="line"/>
      <point x="841" y="1155" type="line"/>
      <point x="1011" y="1155" type="line"/>
      <point x="571" y="564" type="line"/>
      <point x="756" y="148" type="line"/>
      <point x="771" y="109"/>
      <point x="787" y="85"/>
      <point x="817" y="85" type="curve" smooth="yes"/>
      <point x="849" y="85"/>
      <point x="888" y="113"/>
      <point x="934" y="159" type="curve"/>
      <point x="964" y="114" type="line"/>
      <point x="952" y="88"/>
      <point x="851" y="-20"/>
      <point x="744" y="-20" type="curve" smooth="yes"/>
      <point x="657" y="-20"/>
      <point x="632" y="21"/>
      <point x="611" y="85" type="curve"/>
      <point x="479" y="462" type="line"/>
      <point x="163" y="0" type="line"/>
    </contour>
  </outline>
</glyph>
<glyph name="y" format="1">
  <advance width="1051"/>
  <unicode hex="0079"/>
  <outline>
    <contour>
      <point x="352" y="-79" type="line"/>
      <point x="172" y="979" type="line"/>
      <point x="158" y="1037"/>
      <point x="145" y="1049"/>
      <point x="125" y="1049" type="curve" smooth="yes"/>
      <point x="100" y="1049"/>
      <point x="76" y="1032"/>
      <point x="35" y="993" type="curve"/>
      <point x="11" y="1042" type="line"/>
      <point x="25" y="1067"/>
      <point x="110" y="1163"/>
      <point x="208" y="1163" type="curve" smooth="yes"/>
      <point x="297" y="1163"/>
      <point x="316" y="1109"/>
      <point x="331" y="1026" type="curve"/>
      <point x="432" y="258" type="line"/>
      <point x="458" y="-23" type="line"/>
      <point x="506" y="67"/>
      <point x="614" y="277"/>
      <point x="628" y="303" type="curve"/>
      <point x="732" y="530"/>
      <point x="825" y="696"/>
      <point x="849" y="924" type="curve" smooth="yes"/>
      <point x="856" y="995"/>
      <point x="818" y="1037"/>
      <point x="818" y="1076" type="curve" smooth="yes"/>
      <point x="818" y="1135"/>
      <point x="851" y="1162"/>
      <point x="895" y="1162" type="curve" smooth="yes"/>
      <point x="966" y="1162"/>
      <point x="1005" y="1099"/>
      <point x="1005" y="982" type="curve" smooth="yes"/>
      <point x="1005" y="755"/>
      <point x="846" y="478"/>
      <point x="746" y="290" type="curve"/>
      <point x="582" y="-37"/>
      <point x="461" y="-231"/>
      <point x="379" y="-329" type="curve"/>
      <point x="330" y="-399"/>
      <point x="214" y="-505"/>
      <point x="30" y="-505" type="curve" smooth="yes"/>
      <point x="-25" y="-505"/>
      <point x="-103" y="-489"/>
      <point x="-143" y="-476" type="curve"/>
      <point x="-106" y="-349" type="line"/>
      <point x="-85" y="-358"/>
      <point x="-34" y="-388"/>
      <point x="62" y="-388" type="curve" smooth="yes"/>
      <point x="160" y="-388"/>
      <point x="297" y="-307"/>
      <point x="402" y="-79" type="curve"/>
    </contour>
  </outline>
</glyph>
<glyph name="braceleft" format="1">
  <advance width="997"/>
  <unicode hex="007B"/>
  <outline>
    <contour>
      <point x="305" y="-48" type="curve" smooth="yes"/>
      <point x="306" y="-25"/>
      <point x="395" y="579"/>
      <point x="395" y="579" type="curve"/>
      <point x="397" y="609"/>
      <point x="372" y="634"/>
      <point x="337" y="655" type="curve" smooth="yes"/>
      <point x="290" y="683"/>
      <point x="227" y="709"/>
      <point x="165" y="726" type="curve"/>
      <point x="180" y="827" type="line"/>
      <point x="248" y="844"/>
      <point x="326" y="867"/>
      <point x="377" y="892" type="curve"/>
      <point x="426" y="913"/>
      <point x="450" y="940"/>
      <point x="454" y="967" type="curve" smooth="yes"/>
      <point x="535" y="1513" type="line"/>
      <point x="560" y="1671"/>
      <point x="598" y="1713"/>
      <point x="723" y="1713" type="curve" smooth="yes"/>
      <point x="812" y="1713"/>
      <point x="986" y="1676"/>
      <point x="986" y="1676" type="curve"/>
      <point x="986" y="1676"/>
      <point x="976" y="1621"/>
      <point x="976" y="1606" type="curve"/>
      <point x="700" y="1606" type="line"/>
      <point x="604" y="970" type="line" smooth="yes"/>
      <point x="596" y="916"/>
      <point x="561" y="877"/>
      <point x="498" y="844" type="curve" smooth="yes"/>
      <point x="464" y="827"/>
      <point x="357" y="781"/>
      <point x="339" y="776" type="curve"/>
      <point x="403" y="746"/>
      <point x="458" y="716"/>
      <point x="491" y="688" type="curve"/>
      <point x="530" y="657"/>
      <point x="550" y="619"/>
      <point x="543" y="576" type="curve" smooth="yes"/>
      <point x="449" y="-55" type="line"/>
      <point x="724" y="-55" type="line"/>
      <point x="722" y="-67"/>
      <point x="714" y="-126"/>
      <point x="714" y="-126" type="curve"/>
      <point x="624" y="-147"/>
      <point x="551" y="-164"/>
      <point x="441" y="-164" type="curve" smooth="yes"/>
      <point x="340" y="-164"/>
      <point x="304" y="-138"/>
    </contour>
  </outline>
</glyph>
<glyph name="braceright" format="1">
  <advance width="1007"/>
  <unicode hex="007D"/>
  <outline>
    <contour>
      <point x="765" y="1594" type="curve" smooth="yes"/>
      <point x="764" y="1571"/>
      <point x="675" y="967"/>
      <point x="675" y="967" type="curve"/>
      <point x="673" y="937"/>
      <point x="698" y="912"/>
      <point x="733" y="891" type="curve" smooth="yes"/>
      <point x="780" y="863"/>
      <point x="843" y="837"/>
      <point x="905" y="820" type="curve"/>
      <point x="890" y="719" type="line"/>
      <point x="822" y="702"/>
      <point x="744" y="679"/>
      <point x="693" y="654" type="curve"/>
      <point x="644" y="633"/>
      <point x="620" y="606"/>
      <point x="616" y="579" type="curve" smooth="yes"/>
      <point x="535" y="33" type="line"/>
      <point x="510" y="-125"/>
      <point x="472" y="-167"/>
      <point x="347" y="-167" type="curve" smooth="yes"/>
      <point x="258" y="-167"/>
      <point x="84" y="-130"/>
      <point x="84" y="-130" type="curve"/>
      <point x="84" y="-130"/>
      <point x="94" y="-75"/>
      <point x="94" y="-60" type="curve"/>
      <point x="370" y="-60" type="line"/>
      <point x="466" y="576" type="line" smooth="yes"/>
      <point x="474" y="630"/>
      <point x="509" y="669"/>
      <point x="572" y="702" type="curve" smooth="yes"/>
      <point x="606" y="719"/>
      <point x="713" y="765"/>
      <point x="731" y="770" type="curve"/>
      <point x="667" y="800"/>
      <point x="612" y="830"/>
      <point x="579" y="858" type="curve"/>
      <point x="540" y="889"/>
      <point x="520" y="927"/>
      <point x="527" y="970" type="curve" smooth="yes"/>
      <point x="621" y="1601" type="line"/>
      <point x="346" y="1601" type="line"/>
      <point x="348" y="1613"/>
      <point x="356" y="1672"/>
      <point x="356" y="1672" type="curve"/>
      <point x="446" y="1693"/>
      <point x="519" y="1710"/>
      <point x="629" y="1710" type="curve" smooth="yes"/>
      <point x="730" y="1710"/>
      <point x="766" y="1684"/>
    </contour>
  </outline>
</glyph>
<glyph name="asciitilde" format="1">
  <advance width="1137"/>
  <unicode hex="007E"/>
  <outline>
    <contour>
      <point x="213" y="785" type="curve"/>
      <point x="156" y="845" type="line"/>
      <point x="184" y="927"/>
      <point x="310" y="1046"/>
      <point x="461" y="1046" type="curve" smooth="yes"/>
      <point x="613" y="1046"/>
      <point x="682" y="871"/>
      <point x="802" y="871" type="curve" smooth="yes"/>
      <point x="902" y="871"/>
      <point x="969" y="934"/>
      <point x="1012" y="999" type="curve"/>
      <point x="1070" y="939" type="line"/>
      <point x="1042" y="844"/>
      <point x="923" y="738"/>
      <point x="772" y="738" type="curve" smooth="yes"/>
      <point x="619" y="738"/>
      <point x="551" y="913"/>
      <point x="431" y="913" type="curve" smooth="yes"/>
      <point x="342" y="913"/>
      <point x="266" y="864"/>
    </contour>
  </outline>
</glyph>
<glyph name="exclamdown" format="1">
  <advance width="686"/>
  <unicode hex="00A1"/>
  <outline>
    <contour>
      <point x="449" y="856" type="line"/>
      <point x="302" y="-434" type="line"/>
      <point x="107" y="-434" type="line"/>
      <point x="338" y="856" type="line"/>
    </contour>
    <contour>
      <point x="562" y="1256" type="curve" smooth="yes"/>
      <point x="553" y="1184"/>
      <point x="481" y="1134"/>
      <point x="421" y="1134" type="curve" smooth="yes"/>
      <point x="345" y="1134"/>
      <point x="319" y="1179"/>
      <point x="327" y="1239" type="curve" smooth="yes"/>
      <point x="337" y="1316"/>
      <point x="406" y="1362"/>
      <point x="468" y="1362" type="curve" smooth="yes"/>
      <point x="525" y="1362"/>
      <point x="571" y="1325"/>
    </contour>
  </outline>
</glyph>
<glyph name="cent" format="1">
  <advance width="1056"/>
  <unicode hex="00A2"/>
  <outline>
    <contour>
      <point x="420" y="-16" type="line"/>
      <point x="232" y="9"/>
      <point x="124" y="174"/>
      <point x="124" y="430" type="curve" smooth="yes"/>
      <point x="124" y="736"/>
      <point x="297" y="1105"/>
      <point x="621" y="1157" type="curve"/>
      <point x="670" y="1358" type="line"/>
      <point x="791" y="1358" type="line"/>
      <point x="743" y="1161" type="line"/>
      <point x="805" y="1155"/>
      <point x="873" y="1138"/>
      <point x="919" y="1115" type="curve"/>
      <point x="878" y="968" type="line"/>
      <point x="820" y="1017"/>
      <point x="734" y="1045"/>
      <point x="663" y="1045" type="curve" smooth="yes"/>
      <point x="448" y="1045"/>
      <point x="291" y="797"/>
      <point x="291" y="453" type="curve" smooth="yes"/>
      <point x="291" y="213"/>
      <point x="377" y="92"/>
      <point x="518" y="92" type="curve" smooth="yes"/>
      <point x="635" y="92"/>
      <point x="712" y="144"/>
      <point x="809" y="217" type="curve"/>
      <point x="841" y="151" type="line"/>
      <point x="797" y="101"/>
      <point x="693" y="6"/>
      <point x="538" y="-15" type="curve"/>
      <point x="498" y="-215" type="line"/>
      <point x="389" y="-171" type="line"/>
    </contour>
  </outline>
</glyph>
<glyph name="sterling" format="1">
  <advance width="1368"/>
  <unicode hex="00A3"/>
  <outline>
    <contour>
      <point x="23" y="60" type="curve" smooth="yes"/>
      <point x="32" y="119"/>
      <point x="146" y="199"/>
      <point x="261" y="199" type="curve"/>
      <point x="304" y="253"/>
      <point x="340" y="395"/>
      <point x="354" y="489" type="curve"/>
      <point x="396" y="749" type="line"/>
      <point x="212" y="749" type="line"/>
      <point x="227" y="854" type="line"/>
      <point x="413" y="854" type="line"/>
      <point x="437" y="997" type="line"/>
      <point x="480" y="1286"/>
      <point x="691" y="1550"/>
      <point x="972" y="1549" type="curve" smooth="yes"/>
      <point x="1085" y="1549"/>
      <point x="1166" y="1535"/>
      <point x="1230" y="1467" type="curve"/>
      <point x="1140" y="1332" type="line"/>
      <point x="1118" y="1364"/>
      <point x="1022" y="1436"/>
      <point x="893" y="1436" type="curve" smooth="yes"/>
      <point x="769" y="1436"/>
      <point x="639" y="1330"/>
      <point x="591" y="999" type="curve" smooth="yes"/>
      <point x="587" y="969"/>
      <point x="577" y="913"/>
      <point x="567" y="854" type="curve"/>
      <point x="903" y="854" type="line"/>
      <point x="889" y="749" type="line"/>
      <point x="548" y="749" type="line"/>
      <point x="540" y="706"/>
      <point x="535" y="668"/>
      <point x="532" y="647" type="curve" smooth="yes"/>
      <point x="498" y="418"/>
      <point x="454" y="299"/>
      <point x="366" y="171" type="curve"/>
      <point x="482" y="143"/>
      <point x="623" y="65"/>
      <point x="796" y="65" type="curve" smooth="yes"/>
      <point x="1017" y="65"/>
      <point x="1111" y="155"/>
      <point x="1111" y="313" type="curve" smooth="yes"/>
      <point x="1111" y="388"/>
      <point x="1065" y="465"/>
      <point x="1027" y="498" type="curve"/>
      <point x="1136" y="601" type="line"/>
      <point x="1215" y="536"/>
      <point x="1271" y="437"/>
      <point x="1271" y="322" type="curve" smooth="yes"/>
      <point x="1270" y="173"/>
      <point x="1189" y="-24"/>
      <point x="809" y="-24" type="curve" smooth="yes"/>
      <point x="604" y="-24"/>
      <point x="429" y="52"/>
      <point x="294" y="94" type="curve"/>
      <point x="248" y="37"/>
      <point x="157" y="-16"/>
      <point x="86" y="-16" type="curve" smooth="yes"/>
      <point x="52" y="-16"/>
      <point x="14" y="-3"/>
    </contour>
  </outline>
</glyph>
<glyph name="yen" format="1">
  <advance width="1483"/>
  <unicode hex="00A5"/>
  <outline>
    <contour>
      <point x="383" y="0" type="line"/>
      <point x="389" y="70" type="line"/>
      <point x="628" y="95" type="line"/>
      <point x="661" y="381" type="line"/>
      <point x="234" y="381" type="line"/>
      <point x="246" y="483" type="line"/>
      <point x="672" y="483" type="line"/>
      <point x="702" y="738" type="line"/>
      <point x="274" y="738" type="line"/>
      <point x="285" y="841" type="line"/>
      <point x="667" y="841" type="line"/>
      <point x="375" y="1436" type="line"/>
      <point x="246" y="1451" type="line"/>
      <point x="255" y="1531" type="line"/>
      <point x="745" y="1531" type="line"/>
      <point x="736" y="1451" type="line"/>
      <point x="538" y="1436" type="line"/>
      <point x="753" y="959" type="line"/>
      <point x="802" y="843" type="line"/>
      <point x="876" y="965" type="line"/>
      <point x="1235" y="1436" type="line"/>
      <point x="1071" y="1451" type="line"/>
      <point x="1080" y="1531" type="line"/>
      <point x="1534" y="1531" type="line"/>
      <point x="1525" y="1452" type="line"/>
      <point x="1387" y="1429" type="line"/>
      <point x="911" y="841" type="line"/>
      <point x="1280" y="841" type="line"/>
      <point x="1268" y="738" type="line"/>
      <point x="840" y="738" type="line"/>
      <point x="810" y="483" type="line"/>
      <point x="1239" y="483" type="line"/>
      <point x="1227" y="381" type="line"/>
      <point x="798" y="381" type="line"/>
      <point x="765" y="95" type="line"/>
      <point x="1005" y="70" type="line"/>
      <point x="997" y="0" type="line"/>
    </contour>
  </outline>
</glyph>
<glyph name="dieresis" format="1">
  <advance width="809"/>
  <unicode hex="00A8"/>
  <outline>
    <contour>
      <point x="596" y="1406" type="curve" smooth="yes"/>
      <point x="544" y="1406"/>
      <point x="502" y="1450"/>
      <point x="506" y="1508" type="curve"/>
      <point x="509" y="1575"/>
      <point x="563" y="1627"/>
      <point x="622" y="1627" type="curve" smooth="yes"/>
      <point x="684" y="1627"/>
      <point x="722" y="1586"/>
      <point x="719" y="1530" type="curve" smooth="yes"/>
      <point x="715" y="1462"/>
      <point x="661" y="1406"/>
    </contour>
    <contour>
      <point x="175" y="1406" type="curve" smooth="yes"/>
      <point x="122" y="1406"/>
      <point x="81" y="1450"/>
      <point x="84" y="1508" type="curve" smooth="yes"/>
      <point x="88" y="1575"/>
      <point x="142" y="1627"/>
      <point x="201" y="1627" type="curve" smooth="yes"/>
      <point x="262" y="1627"/>
      <point x="300" y="1586"/>
      <point x="297" y="1530" type="curve" smooth="yes"/>
      <point x="294" y="1462"/>
      <point x="239" y="1406"/>
    </contour>
  </outline>
</glyph>
<glyph name="copyright" format="1">
  <advance width="1768"/>
  <unicode hex="00A9"/>
  <outline>
    <contour>
      <point x="178" y="805" type="curve" smooth="yes"/>
      <point x="178" y="1223"/>
      <point x="517" y="1558"/>
      <point x="933" y="1558" type="curve" smooth="yes"/>
      <point x="1349" y="1558"/>
      <point x="1689" y="1223"/>
      <point x="1689" y="805" type="curve" smooth="yes"/>
      <point x="1689" y="386"/>
      <point x="1349" y="51"/>
      <point x="933" y="51" type="curve" smooth="yes"/>
      <point x="517" y="51"/>
      <point x="178" y="386"/>
    </contour>
    <contour>
      <point x="275" y="805" type="curve" smooth="yes"/>
      <point x="275" y="436"/>
      <point x="566" y="137"/>
      <point x="933" y="137" type="curve" smooth="yes"/>
      <point x="1301" y="137"/>
      <point x="1592" y="438"/>
      <point x="1592" y="805" type="curve" smooth="yes"/>
      <point x="1592" y="1173"/>
      <point x="1301" y="1473"/>
      <point x="933" y="1473" type="curve" smooth="yes"/>
      <point x="566" y="1473"/>
      <point x="275" y="1172"/>
    </contour>
    <contour>
      <point x="542" y="801" type="curve" smooth="yes"/>
      <point x="540" y="1041"/>
      <point x="701" y="1246"/>
      <point x="969" y="1246" type="curve" smooth="yes"/>
      <point x="1059" y="1246"/>
      <point x="1162" y="1230"/>
      <point x="1203" y="1208" type="curve"/>
      <point x="1203" y="1003" type="line"/>
      <point x="1142" y="1003" type="line"/>
      <point x="1099" y="1139" type="line"/>
      <point x="1070" y="1164"/>
      <point x="1008" y="1177"/>
      <point x="937" y="1177" type="curve" smooth="yes"/>
      <point x="787" y="1177"/>
      <point x="667" y="1059"/>
      <point x="666" y="848" type="curve" smooth="yes"/>
      <point x="665" y="569"/>
      <point x="817" y="447"/>
      <point x="955" y="447" type="curve" smooth="yes"/>
      <point x="1051" y="447"/>
      <point x="1137" y="481"/>
      <point x="1189" y="512" type="curve"/>
      <point x="1213" y="457" type="line"/>
      <point x="1156" y="410"/>
      <point x="1039" y="365"/>
      <point x="920" y="365" type="curve" smooth="yes"/>
      <point x="681" y="365"/>
      <point x="543" y="562"/>
    </contour>
  </outline>
</glyph>
<glyph name="ordfeminine" format="1">
  <advance width="825"/>
  <unicode hex="00AA"/>
  <outline>
    <contour>
      <point x="339" y="743" type="curve" smooth="yes"/>
      <point x="181" y="743"/>
      <point x="110" y="857"/>
      <point x="110" y="1040" type="curve" smooth="yes"/>
      <point x="110" y="1294"/>
      <point x="313" y="1576"/>
      <point x="614" y="1577" type="curve" smooth="yes"/>
      <point x="674" y="1577"/>
      <point x="745" y="1563"/>
      <point x="789" y="1548" type="curve"/>
      <point x="875" y="1579" type="line"/>
      <point x="746" y="902" type="line"/>
      <point x="740" y="853"/>
      <point x="744" y="820"/>
      <point x="765" y="820" type="curve" smooth="yes"/>
      <point x="780" y="820"/>
      <point x="800" y="828"/>
      <point x="833" y="851" type="curve"/>
      <point x="852" y="818" type="line"/>
      <point x="844" y="803"/>
      <point x="757" y="743"/>
      <point x="686" y="743" type="curve" smooth="yes"/>
      <point x="626" y="743"/>
      <point x="585" y="802"/>
      <point x="610" y="895" type="curve"/>
      <point x="609" y="907" type="line"/>
      <point x="554" y="834"/>
      <point x="467" y="743"/>
    </contour>
    <contour>
      <point x="402" y="838" type="curve" smooth="yes"/>
      <point x="480" y="838"/>
      <point x="569" y="924"/>
      <point x="618" y="985" type="curve"/>
      <point x="704" y="1441" type="line"/>
      <point x="678" y="1474"/>
      <point x="630" y="1495"/>
      <point x="595" y="1495" type="curve" smooth="yes"/>
      <point x="372" y="1495"/>
      <point x="267" y="1268"/>
      <point x="267" y="1058" type="curve" smooth="yes"/>
      <point x="267" y="926"/>
      <point x="288" y="838"/>
    </contour>
  </outline>
</glyph>
<glyph name="guillemotleft" format="1">
  <advance width="1878"/>
  <unicode hex="00AB"/>
  <outline>
    <contour>
      <point x="225" y="547" type="line"/>
      <point x="243" y="674" type="line"/>
      <point x="937" y="1086" type="line"/>
      <point x="968" y="993" type="line"/>
      <point x="418" y="614" type="line"/>
      <point x="865" y="242" type="line"/>
      <point x="809" y="152" type="line"/>
    </contour>
    <contour>
      <point x="901" y="547" type="line"/>
      <point x="919" y="674" type="line"/>
      <point x="1613" y="1086" type="line"/>
      <point x="1644" y="993" type="line"/>
      <point x="1094" y="614" type="line"/>
      <point x="1541" y="242" type="line"/>
      <point x="1485" y="152" type="line"/>
    </contour>
  </outline>
</glyph>
<glyph name="registered" format="1">
  <advance width="1768"/>
  <unicode hex="00AE"/>
  <outline>
    <contour>
      <point x="178" y="806" type="curve" smooth="yes"/>
      <point x="178" y="1224"/>
      <point x="517" y="1559"/>
      <point x="933" y="1559" type="curve" smooth="yes"/>
      <point x="1349" y="1559"/>
      <point x="1689" y="1224"/>
      <point x="1689" y="806" type="curve" smooth="yes"/>
      <point x="1689" y="387"/>
      <point x="1349" y="52"/>
      <point x="933" y="52" type="curve" smooth="yes"/>
      <point x="517" y="52"/>
      <point x="178" y="387"/>
    </contour>
    <contour>
      <point x="275" y="806" type="curve" smooth="yes"/>
      <point x="275" y="437"/>
      <point x="566" y="138"/>
      <point x="933" y="138" type="curve" smooth="yes"/>
      <point x="1301" y="138"/>
      <point x="1592" y="438"/>
      <point x="1592" y="806" type="curve" smooth="yes"/>
      <point x="1592" y="1174"/>
      <point x="1301" y="1474"/>
      <point x="933" y="1474" type="curve" smooth="yes"/>
      <point x="566" y="1474"/>
      <point x="275" y="1173"/>
    </contour>
    <contour>
      <point x="572" y="375" type="line"/>
      <point x="572" y="436" type="line"/>
      <point x="665" y="452" type="line"/>
      <point x="665" y="1154" type="line"/>
      <point x="572" y="1173" type="line"/>
      <point x="572" y="1240" type="line"/>
      <point x="715" y="1240" type="line"/>
      <point x="785" y="1238"/>
      <point x="807" y="1243"/>
      <point x="954" y="1245" type="curve"/>
      <point x="1159" y="1245"/>
      <point x="1267" y="1152"/>
      <point x="1270" y="1014" type="curve"/>
      <point x="1270" y="903"/>
      <point x="1223" y="794"/>
      <point x="1028" y="765" type="curve"/>
      <point x="1168" y="687"/>
      <point x="1194" y="499"/>
      <point x="1272" y="449" type="curve"/>
      <point x="1291" y="441"/>
      <point x="1315" y="438"/>
      <point x="1338" y="438" type="curve"/>
      <point x="1338" y="375" type="line"/>
      <point x="1200" y="375" type="line" smooth="yes"/>
      <point x="1121" y="375"/>
      <point x="1084" y="673"/>
      <point x="905" y="751" type="curve"/>
      <point x="779" y="751" type="line"/>
      <point x="779" y="452" type="line"/>
      <point x="898" y="436" type="line"/>
      <point x="898" y="375" type="line"/>
    </contour>
    <contour>
      <point x="779" y="823" type="line"/>
      <point x="815" y="817"/>
      <point x="899" y="817"/>
      <point x="953" y="817" type="curve" smooth="yes"/>
      <point x="1074" y="818"/>
      <point x="1144" y="903"/>
      <point x="1144" y="997" type="curve" smooth="yes"/>
      <point x="1144" y="1112"/>
      <point x="1067" y="1172"/>
      <point x="933" y="1172" type="curve" smooth="yes"/>
      <point x="878" y="1172"/>
      <point x="828" y="1172"/>
      <point x="779" y="1162" type="curve"/>
    </contour>
  </outline>
</glyph>
<glyph name="degree" format="1">
  <advance width="899"/>
  <unicode hex="00B0"/>
  <outline>
    <contour>
      <point x="523" y="955" type="curve" smooth="yes"/>
      <point x="340" y="955"/>
      <point x="201" y="1101"/>
      <point x="204" y="1278" type="curve" smooth="yes"/>
      <point x="207" y="1461"/>
      <point x="351" y="1600"/>
      <point x="542" y="1600" type="curve" smooth="yes"/>
      <point x="727" y="1600"/>
      <point x="867" y="1455"/>
      <point x="864" y="1278" type="curve" smooth="yes"/>
      <point x="861" y="1093"/>
      <point x="714" y="955"/>
    </contour>
    <contour>
      <point x="528" y="1052" type="curve" smooth="yes"/>
      <point x="656" y="1052"/>
      <point x="749" y="1149"/>
      <point x="751" y="1278" type="curve"/>
      <point x="754" y="1405"/>
      <point x="658" y="1502"/>
      <point x="538" y="1502" type="curve" smooth="yes"/>
      <point x="412" y="1502"/>
      <point x="319" y="1406"/>
      <point x="317" y="1278" type="curve" smooth="yes"/>
      <point x="315" y="1153"/>
      <point x="409" y="1052"/>
    </contour>
  </outline>
</glyph>
<glyph name="cedilla" format="1">
  <advance width="479"/>
  <unicode hex="00B8"/>
  <outline>
    <contour>
      <point x="287" y="21" type="curve"/>
      <point x="333" y="25" type="line"/>
      <point x="377" y="21" type="line"/>
      <point x="404" y="-24"/>
      <point x="414" y="-101"/>
      <point x="406" y="-194" type="curve" smooth="yes"/>
      <point x="388" y="-410"/>
      <point x="292" y="-464"/>
      <point x="149" y="-464" type="curve" smooth="yes"/>
      <point x="96" y="-464"/>
      <point x="33" y="-452"/>
      <point x="11" y="-436" type="curve"/>
      <point x="39" y="-331" type="line"/>
      <point x="56" y="-340"/>
      <point x="83" y="-348"/>
      <point x="124" y="-348" type="curve" smooth="yes"/>
      <point x="221" y="-348"/>
      <point x="288" y="-285"/>
      <point x="301" y="-142" type="curve"/>
      <point x="307" y="-58"/>
      <point x="299" y="-17"/>
    </contour>
  </outline>
</glyph>
<glyph name="onesuperior" format="1">
  <advance width="1020"/>
  <unicode hex="00B9"/>
  <outline>
    <contour>
      <point x="242" y="654" type="line"/>
      <point x="251" y="725" type="line"/>
      <point x="503" y="746" type="line"/>
      <point x="598" y="1461" type="line"/>
      <point x="580" y="1448"/>
      <point x="366" y="1399"/>
      <point x="313" y="1380" type="curve"/>
      <point x="308" y="1464" type="line"/>
      <point x="430" y="1499"/>
      <point x="663" y="1618"/>
      <point x="713" y="1659" type="curve"/>
      <point x="772" y="1642" type="line"/>
      <point x="652" y="746" type="line"/>
      <point x="907" y="724" type="line"/>
      <point x="898" y="654" type="line"/>
    </contour>
  </outline>
</glyph>
<glyph name="ordmasculine" format="1">
  <advance width="835"/>
  <unicode hex="00BA"/>
  <outline>
    <contour>
      <point x="425" y="733" type="curve" smooth="yes"/>
      <point x="231" y="736"/>
      <point x="120" y="872"/>
      <point x="120" y="1085" type="curve" smooth="yes"/>
      <point x="120" y="1409"/>
      <point x="356" y="1591"/>
      <point x="559" y="1589" type="curve" smooth="yes"/>
      <point x="772" y="1586"/>
      <point x="865" y="1440"/>
      <point x="865" y="1234" type="curve" smooth="yes"/>
      <point x="865" y="909"/>
      <point x="643" y="729"/>
    </contour>
    <contour>
      <point x="434" y="818" type="curve" smooth="yes"/>
      <point x="637" y="816"/>
      <point x="709" y="1012"/>
      <point x="709" y="1220" type="curve" smooth="yes"/>
      <point x="709" y="1387"/>
      <point x="660" y="1510"/>
      <point x="541" y="1510" type="curve" smooth="yes"/>
      <point x="353" y="1509"/>
      <point x="274" y="1295"/>
      <point x="274" y="1099" type="curve" smooth="yes"/>
      <point x="274" y="928"/>
      <point x="334" y="818"/>
    </contour>
  </outline>
</glyph>
<glyph name="guillemotright" format="1">
  <advance width="1878"/>
  <unicode hex="00BB"/>
  <outline>
    <contour>
      <point x="881" y="691" type="line"/>
      <point x="863" y="564" type="line"/>
      <point x="169" y="152" type="line"/>
      <point x="138" y="245" type="line"/>
      <point x="688" y="624" type="line"/>
      <point x="241" y="996" type="line"/>
      <point x="297" y="1086" type="line"/>
    </contour>
    <contour>
      <point x="1557" y="691" type="line"/>
      <point x="1539" y="564" type="line"/>
      <point x="845" y="152" type="line"/>
      <point x="814" y="245" type="line"/>
      <point x="1364" y="624" type="line"/>
      <point x="917" y="996" type="line"/>
      <point x="973" y="1086" type="line"/>
    </contour>
  </outline>
</glyph>
<glyph name="onequarter" format="1">
  <advance width="2560"/>
  <unicode hex="00BC"/>
  <outline>
    <contour>
      <point x="1855" y="-176" type="line"/>
      <point x="1903" y="172" type="line"/>
      <point x="1384" y="172" type="line"/>
      <point x="1354" y="249" type="line"/>
      <point x="1964" y="1113" type="line"/>
      <point x="2034" y="1114" type="line"/>
      <point x="2108" y="1031" type="line"/>
      <point x="1602" y="380" type="line"/>
      <point x="1506" y="259" type="line"/>
      <point x="1919" y="285" type="line"/>
      <point x="1960" y="578" type="line"/>
      <point x="2121" y="599" type="line"/>
      <point x="2080" y="295" type="line"/>
      <point x="2345" y="312" type="line"/>
      <point x="2330" y="172" type="line"/>
      <point x="2063" y="172" type="line"/>
      <point x="2017" y="-176" type="line"/>
    </contour>
    <contour>
      <point x="820" y="0" type="line"/>
      <point x="1501" y="1530" type="line"/>
      <point x="1633" y="1530" type="line"/>
      <point x="952" y="0" type="line"/>
    </contour>
    <contour>
      <point x="273" y="654" type="line"/>
      <point x="282" y="725" type="line"/>
      <point x="534" y="746" type="line"/>
      <point x="629" y="1461" type="line"/>
      <point x="611" y="1448"/>
      <point x="397" y="1399"/>
      <point x="344" y="1380" type="curve"/>
      <point x="339" y="1464" type="line"/>
      <point x="461" y="1499"/>
      <point x="694" y="1618"/>
      <point x="744" y="1659" type="curve"/>
      <point x="803" y="1642" type="line"/>
      <point x="683" y="746" type="line"/>
      <point x="938" y="724" type="line"/>
      <point x="929" y="654" type="line"/>
    </contour>
  </outline>
</glyph>
<glyph name="onehalf" format="1">
  <advance width="2560"/>
  <unicode hex="00BD"/>
  <outline>
    <contour>
      <point x="1470" y="-60" type="line"/>
      <point x="1433" y="18" type="line"/>
      <point x="1614" y="123"/>
      <point x="2110" y="411"/>
      <point x="2110" y="673" type="curve" smooth="yes"/>
      <point x="2110" y="773"/>
      <point x="2024" y="827"/>
      <point x="1897" y="827" type="curve" smooth="yes"/>
      <point x="1769" y="827"/>
      <point x="1648" y="769"/>
      <point x="1560" y="677" type="curve"/>
      <point x="1504" y="753" type="line"/>
      <point x="1565" y="833"/>
      <point x="1748" y="947"/>
      <point x="1951" y="950" type="curve" smooth="yes"/>
      <point x="2174" y="953"/>
      <point x="2271" y="825"/>
      <point x="2271" y="723" type="curve" smooth="yes"/>
      <point x="2271" y="446"/>
      <point x="1953" y="239"/>
      <point x="1648" y="41" type="curve"/>
      <point x="2167" y="61" type="line"/>
      <point x="2251" y="220" type="line"/>
      <point x="2334" y="197" type="line"/>
      <point x="2251" y="-60" type="line"/>
    </contour>
    <contour>
      <point x="820" y="0" type="line"/>
      <point x="1501" y="1530" type="line"/>
      <point x="1633" y="1530" type="line"/>
      <point x="952" y="0" type="line"/>
    </contour>
    <contour>
      <point x="273" y="654" type="line"/>
      <point x="282" y="725" type="line"/>
      <point x="534" y="746" type="line"/>
      <point x="629" y="1461" type="line"/>
      <point x="611" y="1448"/>
      <point x="397" y="1399"/>
      <point x="344" y="1380" type="curve"/>
      <point x="339" y="1464" type="line"/>
      <point x="461" y="1499"/>
      <point x="694" y="1618"/>
      <point x="744" y="1659" type="curve"/>
      <point x="803" y="1642" type="line"/>
      <point x="683" y="746" type="line"/>
      <point x="938" y="724" type="line"/>
      <point x="929" y="654" type="line"/>
    </contour>
  </outline>
</glyph>
<glyph name="Atilde" format="1">
  <advance width="1264"/>
  <unicode hex="00C3"/>
  <outline>
    <contour>
      <point x="4" y="93" type="line"/>
      <point x="726" y="1530" type="line"/>
      <point x="893" y="1530" type="line"/>
      <point x="1128" y="96" type="line"/>
      <point x="1295" y="69" type="line"/>
      <point x="1289" y="0" type="line"/>
      <point x="801" y="0" type="line"/>
      <point x="806" y="69" type="line"/>
      <point x="971" y="93" type="line"/>
      <point x="919" y="449" type="line"/>
      <point x="319" y="449" type="line"/>
      <point x="148" y="94" type="line"/>
      <point x="321" y="69" type="line"/>
      <point x="316" y="0" type="line"/>
      <point x="-148" y="0" type="line"/>
      <point x="-140" y="69" type="line"/>
    </contour>
    <contour>
      <point x="367" y="547" type="line"/>
      <point x="905" y="547" type="line"/>
      <point x="799" y="1274" type="line"/>
      <point x="781" y="1403" type="line"/>
    </contour>
    <contour>
      <point x="507" y="1731" type="curve"/>
      <point x="468" y="1800" type="line"/>
      <point x="511" y="1883"/>
      <point x="608" y="1965"/>
      <point x="709" y="1965" type="curve" smooth="yes"/>
      <point x="839" y="1965"/>
      <point x="870" y="1819"/>
      <point x="967" y="1819" type="curve" smooth="yes"/>
      <point x="1047" y="1819"/>
      <point x="1095" y="1892"/>
      <point x="1127" y="1938" type="curve"/>
      <point x="1175" y="1863" type="line"/>
      <point x="1142" y="1768"/>
      <point x="1044" y="1689"/>
      <point x="937" y="1689" type="curve" smooth="yes"/>
      <point x="781" y="1689"/>
      <point x="778" y="1833"/>
      <point x="667" y="1835" type="curve" smooth="yes"/>
      <point x="609" y="1836"/>
      <point x="544" y="1774"/>
    </contour>
  </outline>
</glyph>
<glyph name="Adieresis" format="1">
  <advance width="1264"/>
  <unicode hex="00C4"/>
  <outline>
    <contour>
      <point x="4" y="93" type="line"/>
      <point x="726" y="1530" type="line"/>
      <point x="893" y="1530" type="line"/>
      <point x="1128" y="96" type="line"/>
      <point x="1295" y="69" type="line"/>
      <point x="1289" y="0" type="line"/>
      <point x="801" y="0" type="line"/>
      <point x="806" y="69" type="line"/>
      <point x="971" y="93" type="line"/>
      <point x="919" y="449" type="line"/>
      <point x="319" y="449" type="line"/>
      <point x="148" y="94" type="line"/>
      <point x="321" y="69" type="line"/>
      <point x="316" y="0" type="line"/>
      <point x="-148" y="0" type="line"/>
      <point x="-140" y="69" type="line"/>
    </contour>
    <contour>
      <point x="367" y="547" type="line"/>
      <point x="905" y="547" type="line"/>
      <point x="799" y="1274" type="line"/>
      <point x="781" y="1403" type="line"/>
    </contour>
    <contour>
      <point x="1007" y="1717" type="curve" smooth="yes"/>
      <point x="956" y="1717"/>
      <point x="915" y="1759"/>
      <point x="916" y="1818" type="curve" smooth="yes"/>
      <point x="917" y="1886"/>
      <point x="982" y="1938"/>
      <point x="1034" y="1938" type="curve" smooth="yes"/>
      <point x="1095" y="1938"/>
      <point x="1132" y="1897"/>
      <point x="1129" y="1840" type="curve" smooth="yes"/>
      <point x="1126" y="1772"/>
      <point x="1071" y="1717"/>
    </contour>
    <contour>
      <point x="587" y="1717" type="curve" smooth="yes"/>
      <point x="536" y="1717"/>
      <point x="495" y="1761"/>
      <point x="498" y="1818" type="curve" smooth="yes"/>
      <point x="501" y="1886"/>
      <point x="560" y="1938"/>
      <point x="613" y="1938" type="curve" smooth="yes"/>
      <point x="675" y="1938"/>
      <point x="712" y="1897"/>
      <point x="709" y="1840" type="curve" smooth="yes"/>
      <point x="706" y="1772"/>
      <point x="650" y="1717"/>
    </contour>
  </outline>
</glyph>
<glyph name="AE" format="1">
  <advance width="1834"/>
  <unicode hex="00C6"/>
  <outline>
    <contour>
      <point x="20" y="93" type="line"/>
      <point x="726" y="1431" type="line"/>
      <point x="423" y="1450" type="line"/>
      <point x="434" y="1530" type="line"/>
      <point x="1786" y="1530" type="line"/>
      <point x="1779" y="1220" type="line"/>
      <point x="1693" y="1220" type="line"/>
      <point x="1657" y="1431" type="line"/>
      <point x="1156" y="1443" type="line"/>
      <point x="1070" y="840" type="line"/>
      <point x="1546" y="846" type="line"/>
      <point x="1536" y="721" type="line"/>
      <point x="1061" y="734" type="line"/>
      <point x="977" y="94" type="line"/>
      <point x="1585" y="113" type="line"/>
      <point x="1698" y="341" type="line"/>
      <point x="1782" y="316" type="line"/>
      <point x="1693" y="0" type="line"/>
      <point x="662" y="0" type="line"/>
      <point x="670" y="69" type="line"/>
      <point x="817" y="93" type="line"/>
      <point x="869" y="500" type="line"/>
      <point x="390" y="500" type="line"/>
      <point x="188" y="94" type="line"/>
      <point x="399" y="69" type="line"/>
      <point x="394" y="0" type="line"/>
      <point x="-142" y="0" type="line"/>
      <point x="-129" y="69" type="line"/>
    </contour>
    <contour>
      <point x="439" y="597" type="line"/>
      <point x="882" y="597" type="line"/>
      <point x="990" y="1430" type="line"/>
      <point x="856" y="1434" type="line"/>
    </contour>
  </outline>
</glyph>
<glyph name="Ccedilla" format="1">
  <advance width="1251"/>
  <unicode hex="00C7"/>
  <outline>
    <contour>
      <point x="333" y="-329" type="line"/>
      <point x="350" y="-338"/>
      <point x="377" y="-346"/>
      <point x="418" y="-346" type="curve" smooth="yes"/>
      <point x="515" y="-346"/>
      <point x="582" y="-283"/>
      <point x="595" y="-140" type="curve"/>
      <point x="599" y="-83"/>
      <point x="596" y="-46"/>
      <point x="591" y="-16" type="curve"/>
      <point x="237" y="-14"/>
      <point x="98" y="327"/>
      <point x="93" y="627" type="curve" smooth="yes"/>
      <point x="84" y="1175"/>
      <point x="441" y="1546"/>
      <point x="839" y="1546" type="curve" smooth="yes"/>
      <point x="1018" y="1546"/>
      <point x="1129" y="1515"/>
      <point x="1191" y="1498" type="curve" smooth="yes"/>
      <point x="1238" y="1485" type="line"/>
      <point x="1170" y="1122" type="line"/>
      <point x="1076" y="1122" type="line"/>
      <point x="1072" y="1397" type="line"/>
      <point x="1025" y="1424"/>
      <point x="965" y="1450"/>
      <point x="820" y="1450" type="curve" smooth="yes"/>
      <point x="432" y="1450"/>
      <point x="253" y="991"/>
      <point x="260" y="643" type="curve" smooth="yes"/>
      <point x="266" y="353"/>
      <point x="364" y="79"/>
      <point x="631" y="79" type="curve" smooth="yes"/>
      <point x="732" y="79"/>
      <point x="870" y="112"/>
      <point x="922" y="179" type="curve"/>
      <point x="924" y="192"/>
      <point x="980" y="376"/>
      <point x="984" y="402" type="curve"/>
      <point x="1082" y="401" type="line"/>
      <point x="1042" y="70" type="line"/>
      <point x="977" y="49"/>
      <point x="850" y="2"/>
      <point x="686" y="-12" type="curve"/>
      <point x="701" y="-57"/>
      <point x="706" y="-120"/>
      <point x="700" y="-192" type="curve" smooth="yes"/>
      <point x="682" y="-408"/>
      <point x="586" y="-462"/>
      <point x="443" y="-462" type="curve" smooth="yes"/>
      <point x="390" y="-462"/>
      <point x="327" y="-450"/>
      <point x="305" y="-434" type="curve"/>
    </contour>
  </outline>
</glyph>
<glyph name="Edieresis" format="1">
  <advance width="1210"/>
  <unicode hex="00CB"/>
  <outline>
    <contour>
      <point x="38" y="0" type="line"/>
      <point x="46" y="69" type="line"/>
      <point x="193" y="93" type="line"/>
      <point x="373" y="1430" type="line"/>
      <point x="241" y="1449" type="line"/>
      <point x="251" y="1530" type="line"/>
      <point x="1162" y="1530" type="line"/>
      <point x="1155" y="1220" type="line"/>
      <point x="1069" y="1220" type="line"/>
      <point x="1033" y="1427" type="line"/>
      <point x="536" y="1443" type="line"/>
      <point x="456" y="840" type="line"/>
      <point x="922" y="846" type="line"/>
      <point x="912" y="721" type="line"/>
      <point x="441" y="734" type="line"/>
      <point x="353" y="94" type="line"/>
      <point x="961" y="113" type="line"/>
      <point x="1074" y="341" type="line"/>
      <point x="1158" y="316" type="line"/>
      <point x="1069" y="0" type="line"/>
    </contour>
    <contour>
      <point x="985" y="1717" type="curve" smooth="yes"/>
      <point x="934" y="1717"/>
      <point x="893" y="1759"/>
      <point x="894" y="1818" type="curve" smooth="yes"/>
      <point x="895" y="1886"/>
      <point x="960" y="1938"/>
      <point x="1012" y="1938" type="curve" smooth="yes"/>
      <point x="1073" y="1938"/>
      <point x="1110" y="1897"/>
      <point x="1107" y="1840" type="curve" smooth="yes"/>
      <point x="1104" y="1772"/>
      <point x="1049" y="1717"/>
    </contour>
    <contour>
      <point x="565" y="1717" type="curve" smooth="yes"/>
      <point x="514" y="1717"/>
      <point x="473" y="1761"/>
      <point x="476" y="1818" type="curve" smooth="yes"/>
      <point x="479" y="1886"/>
      <point x="538" y="1938"/>
      <point x="591" y="1938" type="curve" smooth="yes"/>
      <point x="653" y="1938"/>
      <point x="690" y="1897"/>
      <point x="687" y="1840" type="curve" smooth="yes"/>
      <point x="684" y="1772"/>
      <point x="628" y="1717"/>
    </contour>
  </outline>
</glyph>
<glyph name="Iacute" format="1">
  <advance width="717"/>
  <unicode hex="00CD"/>
  <outline>
    <contour>
      <point x="54" y="0" type="line"/>
      <point x="61" y="69" type="line"/>
      <point x="210" y="94" type="line"/>
      <point x="390" y="1430" type="line"/>
      <point x="255" y="1449" type="line"/>
      <point x="265" y="1530" type="line"/>
      <point x="710" y="1530" type="line"/>
      <point x="702" y="1449" type="line"/>
      <point x="551" y="1430" type="line"/>
      <point x="371" y="94" type="line"/>
      <point x="527" y="70" type="line"/>
      <point x="520" y="0" type="line"/>
    </contour>
    <contour>
      <point x="507" y="1614" type="curve"/>
      <point x="463" y="1651" type="line"/>
      <point x="745" y="2000" type="line"/>
      <point x="844" y="1890" type="line"/>
      <point x="790" y="1786"/>
      <point x="604" y="1669"/>
    </contour>
  </outline>
</glyph>
<glyph name="Icircumflex" format="1">
  <advance width="717"/>
  <unicode hex="00CE"/>
  <outline>
    <contour>
      <point x="54" y="0" type="line"/>
      <point x="61" y="69" type="line"/>
      <point x="210" y="94" type="line"/>
      <point x="390" y="1430" type="line"/>
      <point x="255" y="1449" type="line"/>
      <point x="265" y="1530" type="line"/>
      <point x="710" y="1530" type="line"/>
      <point x="702" y="1449" type="line"/>
      <point x="551" y="1430" type="line"/>
      <point x="371" y="94" type="line"/>
      <point x="527" y="70" type="line"/>
      <point x="520" y="0" type="line"/>
    </contour>
    <contour>
      <point x="233" y="1619" type="line"/>
      <point x="183" y="1666" type="line"/>
      <point x="504" y="2000" type="line"/>
      <point x="646" y="2000" type="line"/>
      <point x="865" y="1665" type="line"/>
      <point x="810" y="1617" type="line"/>
      <point x="568" y="1873" type="line"/>
    </contour>
  </outline>
</glyph>
<glyph name="Eth" format="1">
  <advance width="1426"/>
  <unicode hex="00D0"/>
  <outline>
    <contour>
      <point x="39" y="2" type="line"/>
      <point x="46" y="71" type="line"/>
      <point x="193" y="96" type="line"/>
      <point x="279" y="731" type="line"/>
      <point x="116" y="731" type="line"/>
      <point x="129" y="836" type="line"/>
      <point x="293" y="836" type="line"/>
      <point x="374" y="1432" type="line"/>
      <point x="242" y="1451" type="line"/>
      <point x="252" y="1532" type="line"/>
      <point x="484" y="1532" type="line"/>
      <point x="580" y="1533"/>
      <point x="706" y="1548"/>
      <point x="805" y="1548" type="curve" smooth="yes"/>
      <point x="1205" y="1548"/>
      <point x="1366" y="1297"/>
      <point x="1371" y="926" type="curve" smooth="yes"/>
      <point x="1379" y="397"/>
      <point x="1056" y="-26"/>
      <point x="586" y="-14" type="curve" smooth="yes"/>
      <point x="558" y="-13"/>
      <point x="504" y="-10"/>
      <point x="473" y="-7" type="curve" smooth="yes"/>
      <point x="428" y="-3"/>
      <point x="322" y="2"/>
      <point x="266" y="2" type="curve" smooth="yes"/>
    </contour>
    <contour>
      <point x="354" y="107" type="line"/>
      <point x="355" y="108" type="line"/>
      <point x="433" y="93"/>
      <point x="562" y="81"/>
      <point x="631" y="81" type="curve"/>
      <point x="1028" y="103"/>
      <point x="1214" y="508"/>
      <point x="1209" y="913" type="curve" smooth="yes"/>
      <point x="1204" y="1289"/>
      <point x="1059" y="1454"/>
      <point x="760" y="1454" type="curve" smooth="yes"/>
      <point x="692" y="1454"/>
      <point x="594" y="1444"/>
      <point x="534" y="1435" type="curve"/>
      <point x="452" y="836" type="line"/>
      <point x="868" y="836" type="line"/>
      <point x="855" y="731" type="line"/>
      <point x="438" y="731" type="line"/>
    </contour>
  </outline>
</glyph>
<glyph name="Otilde" format="1">
  <advance width="1352"/>
  <unicode hex="00D5"/>
  <outline>
    <contour>
      <point x="606" y="-20" type="curve" smooth="yes"/>
      <point x="301" y="-20"/>
      <point x="114" y="240"/>
      <point x="106" y="641" type="curve" smooth="yes"/>
      <point x="96" y="1155"/>
      <point x="414" y="1550"/>
      <point x="807" y="1550" type="curve" smooth="yes"/>
      <point x="1137" y="1550"/>
      <point x="1299" y="1252"/>
      <point x="1305" y="889" type="curve" smooth="yes"/>
      <point x="1313" y="378"/>
      <point x="1004" y="-20"/>
    </contour>
    <contour>
      <point x="628" y="76" type="curve"/>
      <point x="917" y="75"/>
      <point x="1148" y="402"/>
      <point x="1139" y="848" type="curve" smooth="yes"/>
      <point x="1132" y="1191"/>
      <point x="1047" y="1454"/>
      <point x="784" y="1454" type="curve" smooth="yes"/>
      <point x="491" y="1454"/>
      <point x="266" y="1109"/>
      <point x="273" y="682" type="curve" smooth="yes"/>
      <point x="279" y="320"/>
      <point x="373" y="78"/>
    </contour>
    <contour>
      <point x="550" y="1731" type="curve"/>
      <point x="511" y="1800" type="line"/>
      <point x="554" y="1883"/>
      <point x="651" y="1965"/>
      <point x="752" y="1965" type="curve" smooth="yes"/>
      <point x="882" y="1965"/>
      <point x="913" y="1819"/>
      <point x="1010" y="1819" type="curve" smooth="yes"/>
      <point x="1090" y="1819"/>
      <point x="1138" y="1892"/>
      <point x="1170" y="1938" type="curve"/>
      <point x="1218" y="1863" type="line"/>
      <point x="1185" y="1768"/>
      <point x="1087" y="1689"/>
      <point x="980" y="1689" type="curve" smooth="yes"/>
      <point x="824" y="1689"/>
      <point x="821" y="1833"/>
      <point x="710" y="1835" type="curve" smooth="yes"/>
      <point x="652" y="1836"/>
      <point x="587" y="1774"/>
    </contour>
  </outline>
</glyph>
<glyph name="Odieresis" format="1">
  <advance width="1352"/>
  <unicode hex="00D6"/>
  <outline>
    <contour>
      <point x="606" y="-20" type="curve" smooth="yes"/>
      <point x="301" y="-20"/>
      <point x="114" y="240"/>
      <point x="106" y="641" type="curve" smooth="yes"/>
      <point x="96" y="1155"/>
      <point x="414" y="1550"/>
      <point x="807" y="1550" type="curve" smooth="yes"/>
      <point x="1137" y="1550"/>
      <point x="1299" y="1252"/>
      <point x="1305" y="889" type="curve" smooth="yes"/>
      <point x="1313" y="378"/>
      <point x="1004" y="-20"/>
    </contour>
    <contour>
      <point x="628" y="76" type="curve"/>
      <point x="917" y="75"/>
      <point x="1148" y="402"/>
      <point x="1139" y="848" type="curve" smooth="yes"/>
      <point x="1132" y="1191"/>
      <point x="1047" y="1454"/>
      <point x="784" y="1454" type="curve" smooth="yes"/>
      <point x="491" y="1454"/>
      <point x="266" y="1109"/>
      <point x="273" y="682" type="curve" smooth="yes"/>
      <point x="279" y="320"/>
      <point x="373" y="78"/>
    </contour>
    <contour>
      <point x="1050" y="1717" type="curve" smooth="yes"/>
      <point x="999" y="1717"/>
      <point x="958" y="1759"/>
      <point x="959" y="1818" type="curve" smooth="yes"/>
      <point x="960" y="1886"/>
      <point x="1025" y="1938"/>
      <point x="1077" y="1938" type="curve" smooth="yes"/>
      <point x="1138" y="1938"/>
      <point x="1175" y="1897"/>
      <point x="1172" y="1840" type="curve" smooth="yes"/>
      <point x="1169" y="1772"/>
      <point x="1114" y="1717"/>
    </contour>
    <contour>
      <point x="630" y="1717" type="curve" smooth="yes"/>
      <point x="579" y="1717"/>
      <point x="538" y="1761"/>
      <point x="541" y="1818" type="curve" smooth="yes"/>
      <point x="544" y="1886"/>
      <point x="603" y="1938"/>
      <point x="656" y="1938" type="curve" smooth="yes"/>
      <point x="718" y="1938"/>
      <point x="755" y="1897"/>
      <point x="752" y="1840" type="curve" smooth="yes"/>
      <point x="749" y="1772"/>
      <point x="693" y="1717"/>
    </contour>
  </outline>
</glyph>
<glyph name="multiply" format="1">
  <advance width="1370"/>
  <unicode hex="00D7"/>
  <outline>
    <contour>
      <point x="324" y="326" type="line"/>
      <point x="241" y="425" type="line"/>
      <point x="632" y="765" type="line"/>
      <point x="325" y="1103" type="line"/>
      <point x="430" y="1201" type="line"/>
      <point x="722" y="845" type="line"/>
      <point x="1099" y="1205" type="line"/>
      <point x="1181" y="1106" type="line"/>
      <point x="793" y="764" type="line"/>
      <point x="1102" y="426" type="line"/>
      <point x="996" y="327" type="line"/>
      <point x="704" y="684" type="line"/>
    </contour>
  </outline>
</glyph>
<glyph name="Oslash" format="1">
  <advance width="1353"/>
  <unicode hex="00D8"/>
  <outline>
    <contour>
      <point x="57" y="-83" type="line"/>
      <point x="234" y="178" type="line"/>
      <point x="155" y="292"/>
      <point x="111" y="451"/>
      <point x="107" y="643" type="curve" smooth="yes"/>
      <point x="97" y="1157"/>
      <point x="415" y="1552"/>
      <point x="808" y="1552" type="curve" smooth="yes"/>
      <point x="925" y="1552"/>
      <point x="1022" y="1514"/>
      <point x="1097" y="1449" type="curve"/>
      <point x="1243" y="1661" type="line"/>
      <point x="1312" y="1621" type="line"/>
      <point x="1155" y="1389" type="line"/>
      <point x="1253" y="1267"/>
      <point x="1302" y="1089"/>
      <point x="1306" y="891" type="curve" smooth="yes"/>
      <point x="1314" y="380"/>
      <point x="1005" y="-18"/>
      <point x="607" y="-18" type="curve" smooth="yes"/>
      <point x="477" y="-18"/>
      <point x="369" y="29"/>
      <point x="287" y="113" type="curve"/>
      <point x="125" y="-125" type="line"/>
    </contour>
    <contour>
      <point x="331" y="307" type="curve"/>
      <point x="1019" y="1344" type="line"/>
      <point x="964" y="1415"/>
      <point x="888" y="1456"/>
      <point x="785" y="1456" type="curve" smooth="yes"/>
      <point x="492" y="1456"/>
      <point x="267" y="1111"/>
      <point x="274" y="684" type="curve" smooth="yes"/>
      <point x="276" y="535"/>
      <point x="294" y="407"/>
    </contour>
    <contour>
      <point x="373" y="219" type="line"/>
      <point x="430" y="130"/>
      <point x="512" y="79"/>
      <point x="629" y="78" type="curve" smooth="yes"/>
      <point x="918" y="77"/>
      <point x="1149" y="404"/>
      <point x="1140" y="850" type="curve" smooth="yes"/>
      <point x="1136" y="1014"/>
      <point x="1115" y="1159"/>
      <point x="1065" y="1266" type="curve"/>
    </contour>
  </outline>
</glyph>
<glyph name="Ugrave" format="1">
  <advance width="1396"/>
  <unicode hex="00D9"/>
  <outline>
    <contour>
      <point x="178" y="426" type="curve" smooth="yes"/>
      <point x="177" y="478"/>
      <point x="180" y="534"/>
      <point x="186" y="593" type="curve"/>
      <point x="311" y="1431" type="line"/>
      <point x="172" y="1450" type="line"/>
      <point x="182" y="1530" type="line"/>
      <point x="637" y="1530" type="line"/>
      <point x="628" y="1450" type="line"/>
      <point x="474" y="1429" type="line"/>
      <point x="351" y="607" type="line"/>
      <point x="343" y="534"/>
      <point x="340" y="475"/>
      <point x="341" y="418" type="curve" smooth="yes"/>
      <point x="345" y="202"/>
      <point x="446" y="69"/>
      <point x="651" y="69" type="curve" smooth="yes"/>
      <point x="902" y="69"/>
      <point x="1043" y="249"/>
      <point x="1088" y="627" type="curve"/>
      <point x="1207" y="1429" type="line"/>
      <point x="1072" y="1449" type="line"/>
      <point x="1081" y="1530" type="line"/>
      <point x="1485" y="1530" type="line"/>
      <point x="1476" y="1449" type="line"/>
      <point x="1347" y="1431" type="line"/>
      <point x="1227" y="627" type="line"/>
      <point x="1166" y="155"/>
      <point x="971" y="-20"/>
      <point x="628" y="-20" type="curve" smooth="yes"/>
      <point x="342" y="-20"/>
      <point x="183" y="150"/>
    </contour>
    <contour>
      <point x="874" y="1614" type="line"/>
      <point x="777" y="1669"/>
      <point x="592" y="1789"/>
      <point x="543" y="1890" type="curve"/>
      <point x="649" y="2000" type="line"/>
      <point x="920" y="1651" type="line"/>
    </contour>
  </outline>
</glyph>
<glyph name="Udieresis" format="1">
  <advance width="1396"/>
  <unicode hex="00DC"/>
  <outline>
    <contour>
      <point x="178" y="426" type="curve" smooth="yes"/>
      <point x="177" y="478"/>
      <point x="180" y="534"/>
      <point x="186" y="593" type="curve"/>
      <point x="311" y="1431" type="line"/>
      <point x="172" y="1450" type="line"/>
      <point x="182" y="1530" type="line"/>
      <point x="637" y="1530" type="line"/>
      <point x="628" y="1450" type="line"/>
      <point x="474" y="1429" type="line"/>
      <point x="351" y="607" type="line"/>
      <point x="343" y="534"/>
      <point x="340" y="475"/>
      <point x="341" y="418" type="curve" smooth="yes"/>
      <point x="345" y="202"/>
      <point x="446" y="69"/>
      <point x="651" y="69" type="curve" smooth="yes"/>
      <point x="902" y="69"/>
      <point x="1043" y="249"/>
      <point x="1088" y="627" type="curve"/>
      <point x="1207" y="1429" type="line"/>
      <point x="1072" y="1449" type="line"/>
      <point x="1081" y="1530" type="line"/>
      <point x="1485" y="1530" type="line"/>
      <point x="1476" y="1449" type="line"/>
      <point x="1347" y="1431" type="line"/>
      <point x="1227" y="627" type="line"/>
      <point x="1166" y="155"/>
      <point x="971" y="-20"/>
      <point x="628" y="-20" type="curve" smooth="yes"/>
      <point x="342" y="-20"/>
      <point x="183" y="150"/>
    </contour>
    <contour>
      <point x="1047" y="1717" type="curve" smooth="yes"/>
      <point x="996" y="1717"/>
      <point x="955" y="1759"/>
      <point x="956" y="1818" type="curve" smooth="yes"/>
      <point x="957" y="1886"/>
      <point x="1022" y="1938"/>
      <point x="1074" y="1938" type="curve" smooth="yes"/>
      <point x="1135" y="1938"/>
      <point x="1172" y="1897"/>
      <point x="1169" y="1840" type="curve" smooth="yes"/>
      <point x="1166" y="1772"/>
      <point x="1111" y="1717"/>
    </contour>
    <contour>
      <point x="627" y="1717" type="curve" smooth="yes"/>
      <point x="576" y="1717"/>
      <point x="535" y="1761"/>
      <point x="538" y="1818" type="curve" smooth="yes"/>
      <point x="541" y="1886"/>
      <point x="600" y="1938"/>
      <point x="653" y="1938" type="curve" smooth="yes"/>
      <point x="715" y="1938"/>
      <point x="752" y="1897"/>
      <point x="749" y="1840" type="curve" smooth="yes"/>
      <point x="746" y="1772"/>
      <point x="690" y="1717"/>
    </contour>
  </outline>
</glyph>
<glyph name="Thorn" format="1">
  <advance width="1188"/>
  <unicode hex="00DE"/>
  <outline>
    <contour>
      <point x="38" y="0" type="line"/>
      <point x="45" y="69" type="line"/>
      <point x="194" y="94" type="line"/>
      <point x="374" y="1430" type="line"/>
      <point x="239" y="1449" type="line"/>
      <point x="249" y="1530" type="line"/>
      <point x="694" y="1530" type="line"/>
      <point x="686" y="1449" type="line"/>
      <point x="535" y="1430" type="line"/>
      <point x="504" y="1198" type="line"/>
      <point x="573" y="1207"/>
      <point x="657" y="1213"/>
      <point x="724" y="1213" type="curve" smooth="yes"/>
      <point x="1044" y="1213"/>
      <point x="1183" y="1074"/>
      <point x="1183" y="829" type="curve" smooth="yes"/>
      <point x="1183" y="513"/>
      <point x="917" y="314"/>
      <point x="593" y="314" type="curve" smooth="yes"/>
      <point x="493" y="314"/>
      <point x="426" y="317"/>
      <point x="385" y="319" type="curve"/>
      <point x="355" y="94" type="line"/>
      <point x="511" y="70" type="line"/>
      <point x="504" y="0" type="line"/>
    </contour>
    <contour>
      <point x="398" y="415" type="line"/>
      <point x="456" y="408"/>
      <point x="519" y="405"/>
      <point x="591" y="405" type="curve" smooth="yes"/>
      <point x="872" y="405"/>
      <point x="1022" y="589"/>
      <point x="1021" y="805" type="curve" smooth="yes"/>
      <point x="1020" y="1015"/>
      <point x="938" y="1117"/>
      <point x="672" y="1117" type="curve" smooth="yes"/>
      <point x="617" y="1117"/>
      <point x="543" y="1110"/>
      <point x="491" y="1102" type="curve"/>
    </contour>
  </outline>
</glyph>
<glyph name="adieresis" format="1">
  <advance width="1138"/>
  <unicode hex="00E4"/>
  <outline>
    <contour>
      <point x="375" y="-20" type="curve" smooth="yes"/>
      <point x="163" y="-20"/>
      <point x="66" y="149"/>
      <point x="66" y="399" type="curve" smooth="yes"/>
      <point x="66" y="708"/>
      <point x="302" y="1163"/>
      <point x="706" y="1163" type="curve" smooth="yes"/>
      <point x="770" y="1163"/>
      <point x="843" y="1146"/>
      <point x="899" y="1127" type="curve"/>
      <point x="900" y="1128" type="line"/>
      <point x="1018" y="1162" type="line"/>
      <point x="868" y="173" type="line" smooth="yes"/>
      <point x="858" y="104"/>
      <point x="887" y="85"/>
      <point x="906" y="85" type="curve" smooth="yes"/>
      <point x="932" y="85"/>
      <point x="957" y="109"/>
      <point x="996" y="144" type="curve"/>
      <point x="1023" y="100" type="line"/>
      <point x="1012" y="77"/>
      <point x="928" y="-20"/>
      <point x="824" y="-20" type="curve" smooth="yes"/>
      <point x="748" y="-20"/>
      <point x="701" y="17"/>
      <point x="708" y="117" type="curve"/>
      <point x="718" y="190" type="line"/>
      <point x="648" y="90"/>
      <point x="524" y="-20"/>
    </contour>
    <contour>
      <point x="407" y="94" type="curve" smooth="yes"/>
      <point x="558" y="94"/>
      <point x="683" y="244"/>
      <point x="739" y="336" type="curve"/>
      <point x="842" y="1019" type="line"/>
      <point x="798" y="1052"/>
      <point x="739" y="1064"/>
      <point x="681" y="1064" type="curve" smooth="yes"/>
      <point x="389" y="1064"/>
      <point x="230" y="692"/>
      <point x="230" y="421" type="curve" smooth="yes"/>
      <point x="230" y="206"/>
      <point x="291" y="94"/>
    </contour>
    <contour>
      <point x="929" y="1406" type="curve" smooth="yes"/>
      <point x="877" y="1406"/>
      <point x="835" y="1450"/>
      <point x="839" y="1508" type="curve"/>
      <point x="842" y="1575"/>
      <point x="896" y="1627"/>
      <point x="955" y="1627" type="curve" smooth="yes"/>
      <point x="1017" y="1627"/>
      <point x="1055" y="1586"/>
      <point x="1052" y="1530" type="curve" smooth="yes"/>
      <point x="1048" y="1462"/>
      <point x="994" y="1406"/>
    </contour>
    <contour>
      <point x="508" y="1406" type="curve" smooth="yes"/>
      <point x="455" y="1406"/>
      <point x="414" y="1450"/>
      <point x="417" y="1508" type="curve" smooth="yes"/>
      <point x="421" y="1575"/>
      <point x="475" y="1627"/>
      <point x="534" y="1627" type="curve" smooth="yes"/>
      <point x="595" y="1627"/>
      <point x="633" y="1586"/>
      <point x="630" y="1530" type="curve" smooth="yes"/>
      <point x="627" y="1462"/>
      <point x="572" y="1406"/>
    </contour>
  </outline>
</glyph>
<glyph name="aring" format="1">
  <advance width="1138"/>
  <unicode hex="00E5"/>
  <outline>
    <contour>
      <point x="375" y="-20" type="curve" smooth="yes"/>
      <point x="163" y="-20"/>
      <point x="66" y="149"/>
      <point x="66" y="399" type="curve" smooth="yes"/>
      <point x="66" y="708"/>
      <point x="302" y="1163"/>
      <point x="706" y="1163" type="curve" smooth="yes"/>
      <point x="770" y="1163"/>
      <point x="843" y="1146"/>
      <point x="899" y="1127" type="curve"/>
      <point x="900" y="1128" type="line"/>
      <point x="1018" y="1162" type="line"/>
      <point x="868" y="173" type="line" smooth="yes"/>
      <point x="858" y="104"/>
      <point x="887" y="85"/>
      <point x="906" y="85" type="curve" smooth="yes"/>
      <point x="932" y="85"/>
      <point x="957" y="109"/>
      <point x="996" y="144" type="curve"/>
      <point x="1023" y="100" type="line"/>
      <point x="1012" y="77"/>
      <point x="928" y="-20"/>
      <point x="824" y="-20" type="curve" smooth="yes"/>
      <point x="748" y="-20"/>
      <point x="701" y="17"/>
      <point x="708" y="117" type="curve"/>
      <point x="718" y="190" type="line"/>
      <point x="648" y="90"/>
      <point x="524" y="-20"/>
    </contour>
    <contour>
      <point x="407" y="94" type="curve" smooth="yes"/>
      <point x="558" y="94"/>
      <point x="683" y="244"/>
      <point x="739" y="336" type="curve"/>
      <point x="842" y="1019" type="line"/>
      <point x="798" y="1052"/>
      <point x="739" y="1064"/>
      <point x="681" y="1064" type="curve" smooth="yes"/>
      <point x="389" y="1064"/>
      <point x="230" y="692"/>
      <point x="230" y="421" type="curve" smooth="yes"/>
      <point x="230" y="206"/>
      <point x="291" y="94"/>
    </contour>
    <contour>
      <point x="728" y="1256" type="curve" smooth="yes"/>
      <point x="534" y="1256"/>
      <point x="442" y="1360"/>
      <point x="457" y="1517" type="curve" smooth="yes"/>
      <point x="475" y="1702"/>
      <point x="647" y="1778"/>
      <point x="796" y="1778" type="curve" smooth="yes"/>
      <point x="976" y="1778"/>
      <point x="1075" y="1686"/>
      <point x="1060" y="1530" type="curve"/>
      <point x="1044" y="1341"/>
      <point x="882" y="1256"/>
    </contour>
    <contour>
      <point x="738" y="1320" type="curve"/>
      <point x="852" y="1320"/>
      <point x="945" y="1373"/>
      <point x="956" y="1524" type="curve" smooth="yes"/>
      <point x="964" y="1637"/>
      <point x="895" y="1712"/>
      <point x="784" y="1713" type="curve" smooth="yes"/>
      <point x="673" y="1714"/>
      <point x="572" y="1660"/>
      <point x="562" y="1517" type="curve" smooth="yes"/>
      <point x="554" y="1407"/>
      <point x="627" y="1323"/>
    </contour>
  </outline>
</glyph>
<glyph name="edieresis" format="1">
  <advance width="1025"/>
  <unicode hex="00EB"/>
  <outline>
    <contour>
      <point x="83" y="437" type="curve" smooth="yes"/>
      <point x="93" y="816"/>
      <point x="330" y="1163"/>
      <point x="658" y="1163" type="curve" smooth="yes"/>
      <point x="848" y="1163"/>
      <point x="940" y="1054"/>
      <point x="940" y="913" type="curve" smooth="yes"/>
      <point x="940" y="599"/>
      <point x="449" y="472"/>
      <point x="250" y="467" type="curve"/>
      <point x="236" y="314"/>
      <point x="285" y="92"/>
      <point x="492" y="92" type="curve" smooth="yes"/>
      <point x="600" y="92"/>
      <point x="718" y="139"/>
      <point x="833" y="254" type="curve"/>
      <point x="871" y="186" type="line"/>
      <point x="814" y="107"/>
      <point x="667" y="-20"/>
      <point x="473" y="-20" type="curve" smooth="yes"/>
      <point x="185" y="-20"/>
      <point x="77" y="211"/>
    </contour>
    <contour>
      <point x="254" y="557" type="curve"/>
      <point x="470" y="564"/>
      <point x="776" y="687"/>
      <point x="776" y="899" type="curve" smooth="yes"/>
      <point x="776" y="1012"/>
      <point x="716" y="1069"/>
      <point x="621" y="1069" type="curve" smooth="yes"/>
      <point x="400" y="1069"/>
      <point x="275" y="770"/>
    </contour>
    <contour>
      <point x="852" y="1406" type="curve" smooth="yes"/>
      <point x="800" y="1406"/>
      <point x="758" y="1450"/>
      <point x="762" y="1508" type="curve"/>
      <point x="765" y="1575"/>
      <point x="819" y="1627"/>
      <point x="878" y="1627" type="curve" smooth="yes"/>
      <point x="940" y="1627"/>
      <point x="978" y="1586"/>
      <point x="975" y="1530" type="curve" smooth="yes"/>
      <point x="971" y="1462"/>
      <point x="917" y="1406"/>
    </contour>
    <contour>
      <point x="431" y="1406" type="curve" smooth="yes"/>
      <point x="378" y="1406"/>
      <point x="337" y="1450"/>
      <point x="340" y="1508" type="curve" smooth="yes"/>
      <point x="344" y="1575"/>
      <point x="398" y="1627"/>
      <point x="457" y="1627" type="curve" smooth="yes"/>
      <point x="518" y="1627"/>
      <point x="556" y="1586"/>
      <point x="553" y="1530" type="curve" smooth="yes"/>
      <point x="550" y="1462"/>
      <point x="495" y="1406"/>
    </contour>
  </outline>
</glyph>
<glyph name="icircumflex" format="1">
  <advance width="625"/>
  <unicode hex="00EE"/>
  <outline>
    <contour>
      <point x="156" y="99" type="curve"/>
      <point x="165" y="225"/>
      <point x="242" y="717"/>
      <point x="285" y="1016" type="curve"/>
      <point x="148" y="1056" type="line"/>
      <point x="162" y="1121" type="line"/>
      <point x="420" y="1163" type="line"/>
      <point x="461" y="1142" type="line"/>
      <point x="320" y="158" type="line" smooth="yes"/>
      <point x="313" y="108"/>
      <point x="329" y="85"/>
      <point x="348" y="85" type="curve" smooth="yes"/>
      <point x="377" y="85"/>
      <point x="406" y="104"/>
      <point x="456" y="156" type="curve"/>
      <point x="483" y="112" type="line"/>
      <point x="465" y="84"/>
      <point x="377" y="-20"/>
      <point x="265" y="-20" type="curve" smooth="yes"/>
      <point x="197" y="-20"/>
      <point x="148" y="11"/>
    </contour>
    <contour>
      <point x="89" y="1228" type="line"/>
      <point x="43" y="1275" type="line"/>
      <point x="384" y="1650" type="line"/>
      <point x="526" y="1650" type="line"/>
      <point x="728" y="1273" type="line"/>
      <point x="667" y="1226" type="line"/>
      <point x="435" y="1523" type="line"/>
    </contour>
  </outline>
</glyph>
<glyph name="otilde" format="1">
  <advance width="1123"/>
  <unicode hex="00F5"/>
  <outline>
    <contour>
      <point x="87" y="439" type="curve" smooth="yes"/>
      <point x="81" y="802"/>
      <point x="308" y="1163"/>
      <point x="644" y="1163" type="curve" smooth="yes"/>
      <point x="897" y="1163"/>
      <point x="1026" y="994"/>
      <point x="1031" y="703" type="curve" smooth="yes"/>
      <point x="1037" y="342"/>
      <point x="809" y="-20"/>
      <point x="473" y="-20" type="curve" smooth="yes"/>
      <point x="220" y="-20"/>
      <point x="92" y="148"/>
    </contour>
    <contour>
      <point x="501" y="78" type="curve" smooth="yes"/>
      <point x="751" y="78"/>
      <point x="869" y="429"/>
      <point x="865" y="701" type="curve" smooth="yes"/>
      <point x="862" y="926"/>
      <point x="786" y="1065"/>
      <point x="615" y="1065" type="curve" smooth="yes"/>
      <point x="363" y="1065"/>
      <point x="247" y="713"/>
      <point x="252" y="441" type="curve"/>
      <point x="255" y="212"/>
      <point x="334" y="78"/>
    </contour>
    <contour>
      <point x="357" y="1416" type="curve"/>
      <point x="319" y="1485" type="line"/>
      <point x="361" y="1568"/>
      <point x="458" y="1650"/>
      <point x="559" y="1650" type="curve" smooth="yes"/>
      <point x="689" y="1650"/>
      <point x="721" y="1504"/>
      <point x="818" y="1504" type="curve" smooth="yes"/>
      <point x="897" y="1504"/>
      <point x="946" y="1578"/>
      <point x="978" y="1623" type="curve"/>
      <point x="1025" y="1549" type="line"/>
      <point x="992" y="1453"/>
      <point x="895" y="1374"/>
      <point x="788" y="1374" type="curve" smooth="yes"/>
      <point x="632" y="1374"/>
      <point x="629" y="1519"/>
      <point x="518" y="1520" type="curve" smooth="yes"/>
      <point x="460" y="1521"/>
      <point x="394" y="1459"/>
    </contour>
  </outline>
</glyph>
<glyph name="odieresis" format="1">
  <advance width="1123"/>
  <unicode hex="00F6"/>
  <outline>
    <contour>
      <point x="87" y="439" type="curve" smooth="yes"/>
      <point x="81" y="802"/>
      <point x="308" y="1163"/>
      <point x="644" y="1163" type="curve" smooth="yes"/>
      <point x="897" y="1163"/>
      <point x="1026" y="994"/>
      <point x="1031" y="703" type="curve" smooth="yes"/>
      <point x="1037" y="342"/>
      <point x="809" y="-20"/>
      <point x="473" y="-20" type="curve" smooth="yes"/>
      <point x="220" y="-20"/>
      <point x="92" y="148"/>
    </contour>
    <contour>
      <point x="501" y="78" type="curve" smooth="yes"/>
      <point x="751" y="78"/>
      <point x="869" y="429"/>
      <point x="865" y="701" type="curve" smooth="yes"/>
      <point x="862" y="926"/>
      <point x="786" y="1065"/>
      <point x="615" y="1065" type="curve" smooth="yes"/>
      <point x="363" y="1065"/>
      <point x="247" y="713"/>
      <point x="252" y="441" type="curve"/>
      <point x="255" y="212"/>
      <point x="334" y="78"/>
    </contour>
    <contour>
      <point x="878" y="1406" type="curve" smooth="yes"/>
      <point x="826" y="1406"/>
      <point x="784" y="1450"/>
      <point x="788" y="1508" type="curve"/>
      <point x="791" y="1575"/>
      <point x="845" y="1627"/>
      <point x="904" y="1627" type="curve" smooth="yes"/>
      <point x="966" y="1627"/>
      <point x="1004" y="1586"/>
      <point x="1001" y="1530" type="curve" smooth="yes"/>
      <point x="997" y="1462"/>
      <point x="943" y="1406"/>
    </contour>
    <contour>
      <point x="457" y="1406" type="curve" smooth="yes"/>
      <point x="404" y="1406"/>
      <point x="363" y="1450"/>
      <point x="366" y="1508" type="curve" smooth="yes"/>
      <point x="370" y="1575"/>
      <point x="424" y="1627"/>
      <point x="483" y="1627" type="curve" smooth="yes"/>
      <point x="544" y="1627"/>
      <point x="582" y="1586"/>
      <point x="579" y="1530" type="curve" smooth="yes"/>
      <point x="576" y="1462"/>
      <point x="521" y="1406"/>
    </contour>
  </outline>
</glyph>
<glyph name="divide" format="1">
  <advance width="1370"/>
  <unicode hex="00F7"/>
  <outline>
    <contour>
      <point x="747" y="1046" type="curve" smooth="yes"/>
      <point x="690" y="1046"/>
      <point x="642" y="1084"/>
      <point x="650" y="1152" type="curve" smooth="yes"/>
      <point x="658" y="1225"/>
      <point x="730" y="1274"/>
      <point x="791" y="1274" type="curve" smooth="yes"/>
      <point x="865" y="1274"/>
      <point x="893" y="1230"/>
      <point x="886" y="1169" type="curve" smooth="yes"/>
      <point x="877" y="1094"/>
      <point x="808" y="1046"/>
    </contour>
    <contour>
      <point x="272" y="712" type="line"/>
      <point x="286" y="837" type="line"/>
      <point x="1155" y="837" type="line"/>
      <point x="1141" y="712" type="line"/>
    </contour>
    <contour>
      <point x="557" y="379" type="curve" smooth="yes"/>
      <point x="566" y="451"/>
      <point x="636" y="501"/>
      <point x="697" y="501" type="curve" smooth="yes"/>
      <point x="772" y="501"/>
      <point x="799" y="456"/>
      <point x="792" y="396" type="curve" smooth="yes"/>
      <point x="782" y="321"/>
      <point x="716" y="273"/>
      <point x="653" y="273" type="curve" smooth="yes"/>
      <point x="596" y="273"/>
      <point x="549" y="310"/>
    </contour>
  </outline>
</glyph>
<glyph name="thorn" format="1">
  <advance width="1147"/>
  <unicode hex="00FE"/>
  <outline>
    <contour>
      <point x="99" y="-5" type="line"/>
      <point x="294" y="1516" type="line"/>
      <point x="199" y="1550" type="line"/>
      <point x="215" y="1618" type="line"/>
      <point x="424" y="1650" type="line"/>
      <point x="467" y="1627" type="line"/>
      <point x="381" y="968" type="line"/>
      <point x="445" y="1060"/>
      <point x="567" y="1163"/>
      <point x="718" y="1163" type="curve" smooth="yes"/>
      <point x="949" y="1163"/>
      <point x="1058" y="980"/>
      <point x="1058" y="730" type="curve" smooth="yes"/>
      <point x="1058" y="421"/>
      <point x="829" y="-20"/>
      <point x="424" y="-20" type="curve" smooth="yes"/>
      <point x="370" y="-20"/>
      <point x="307" y="-9"/>
      <point x="255" y="5" type="curve"/>
      <point x="241" y="-109" type="line"/>
      <point x="183" y="-520" type="line"/>
      <point x="30" y="-520" type="line"/>
    </contour>
    <contour>
      <point x="272" y="130" type="line"/>
      <point x="318" y="91"/>
      <point x="384" y="78"/>
      <point x="449" y="78" type="curve" smooth="yes"/>
      <point x="752" y="78"/>
      <point x="894" y="461"/>
      <point x="894" y="719" type="curve" smooth="yes"/>
      <point x="894" y="926"/>
      <point x="821" y="1048"/>
      <point x="692" y="1048" type="curve" smooth="yes"/>
      <point x="542" y="1048"/>
      <point x="410" y="911"/>
      <point x="362" y="826" type="curve"/>
    </contour>
  </outline>
</glyph>
<glyph name="Abreve" format="1">
  <advance width="1264"/>
  <unicode hex="0102"/>
  <outline>
    <contour>
      <point x="4" y="93" type="line"/>
      <point x="726" y="1530" type="line"/>
      <point x="893" y="1530" type="line"/>
      <point x="1128" y="96" type="line"/>
      <point x="1295" y="69" type="line"/>
      <point x="1289" y="0" type="line"/>
      <point x="801" y="0" type="line"/>
      <point x="806" y="69" type="line"/>
      <point x="971" y="93" type="line"/>
      <point x="919" y="449" type="line"/>
      <point x="319" y="449" type="line"/>
      <point x="148" y="94" type="line"/>
      <point x="321" y="69" type="line"/>
      <point x="316" y="0" type="line"/>
      <point x="-148" y="0" type="line"/>
      <point x="-140" y="69" type="line"/>
    </contour>
    <contour>
      <point x="367" y="547" type="line"/>
      <point x="905" y="547" type="line"/>
      <point x="799" y="1274" type="line"/>
      <point x="781" y="1403" type="line"/>
    </contour>
    <contour>
      <point x="798" y="1635" type="curve" smooth="yes"/>
      <point x="612" y="1635"/>
      <point x="509" y="1799"/>
      <point x="509" y="1959" type="curve" smooth="yes"/>
      <point x="509" y="1965"/>
      <point x="509" y="1973"/>
      <point x="510" y="1979" type="curve"/>
      <point x="595" y="1979" type="line"/>
      <point x="596" y="1971"/>
      <point x="596" y="1959"/>
      <point x="598" y="1949" type="curve" smooth="yes"/>
      <point x="610" y="1858"/>
      <point x="669" y="1752"/>
      <point x="802" y="1752" type="curve" smooth="yes"/>
      <point x="950" y="1752"/>
      <point x="1028" y="1899"/>
      <point x="1044" y="1979" type="curve"/>
      <point x="1126" y="1979" type="line"/>
      <point x="1127" y="1969"/>
      <point x="1126" y="1958"/>
      <point x="1124" y="1947" type="curve" smooth="yes"/>
      <point x="1107" y="1800"/>
      <point x="966" y="1635"/>
    </contour>
  </outline>
</glyph>
<glyph name="aogonek" format="1">
  <advance width="1138"/>
  <unicode hex="0105"/>
  <outline>
    <contour>
      <point x="375" y="-20" type="curve" smooth="yes"/>
      <point x="163" y="-20"/>
      <point x="66" y="149"/>
      <point x="66" y="399" type="curve" smooth="yes"/>
      <point x="66" y="708"/>
      <point x="302" y="1163"/>
      <point x="706" y="1163" type="curve" smooth="yes"/>
      <point x="770" y="1163"/>
      <point x="843" y="1146"/>
      <point x="899" y="1127" type="curve"/>
      <point x="900" y="1128" type="line"/>
      <point x="1018" y="1162" type="line"/>
      <point x="868" y="173" type="line" smooth="yes"/>
      <point x="858" y="104"/>
      <point x="887" y="85"/>
      <point x="906" y="85" type="curve" smooth="yes"/>
      <point x="932" y="85"/>
      <point x="957" y="109"/>
      <point x="996" y="144" type="curve"/>
      <point x="1023" y="100" type="line"/>
      <point x="1017" y="88"/>
      <point x="992" y="56"/>
      <point x="954" y="28" type="curve" smooth="yes"/>
      <point x="845" y="-52"/>
      <point x="719" y="-137"/>
      <point x="718" y="-226" type="curve"/>
      <point x="715" y="-286"/>
      <point x="746" y="-313"/>
      <point x="783" y="-313" type="curve" smooth="yes"/>
      <point x="835" y="-313"/>
      <point x="887" y="-287"/>
      <point x="937" y="-245" type="curve"/>
      <point x="959" y="-322" type="line"/>
      <point x="907" y="-368"/>
      <point x="825" y="-416"/>
      <point x="709" y="-416" type="curve" smooth="yes"/>
      <point x="602" y="-416"/>
      <point x="560" y="-346"/>
      <point x="563" y="-287" type="curve"/>
      <point x="564" y="-247"/>
      <point x="577" y="-204"/>
      <point x="599" y="-175" type="curve"/>
      <point x="652" y="-98"/>
      <point x="723" y="-55"/>
      <point x="790" y="-17" type="curve"/>
      <point x="734" y="-6"/>
      <point x="702" y="33"/>
      <point x="708" y="117" type="curve"/>
      <point x="718" y="190" type="line"/>
      <point x="648" y="90"/>
      <point x="524" y="-20"/>
    </contour>
    <contour>
      <point x="407" y="94" type="curve" smooth="yes"/>
      <point x="558" y="94"/>
      <point x="683" y="244"/>
      <point x="739" y="336" type="curve"/>
      <point x="842" y="1019" type="line"/>
      <point x="798" y="1052"/>
      <point x="739" y="1064"/>
      <point x="681" y="1064" type="curve" smooth="yes"/>
      <point x="389" y="1064"/>
      <point x="230" y="692"/>
      <point x="230" y="421" type="curve" smooth="yes"/>
      <point x="230" y="206"/>
      <point x="291" y="94"/>
    </contour>
  </outline>
</glyph>
<glyph name="ccircumflex" format="1">
  <advance width="897"/>
  <unicode hex="0109"/>
  <outline>
    <contour>
      <point x="421" y="-20" type="curve" smooth="yes"/>
      <point x="200" y="-20"/>
      <point x="71" y="151"/>
      <point x="71" y="430" type="curve" smooth="yes"/>
      <point x="71" y="760"/>
      <point x="272" y="1163"/>
      <point x="646" y="1163" type="curve" smooth="yes"/>
      <point x="718" y="1163"/>
      <point x="809" y="1144"/>
      <point x="866" y="1115" type="curve"/>
      <point x="825" y="968" type="line"/>
      <point x="767" y="1017"/>
      <point x="681" y="1045"/>
      <point x="610" y="1045" type="curve" smooth="yes"/>
      <point x="395" y="1045"/>
      <point x="238" y="797"/>
      <point x="238" y="453" type="curve" smooth="yes"/>
      <point x="238" y="213"/>
      <point x="324" y="92"/>
      <point x="465" y="92" type="curve" smooth="yes"/>
      <point x="582" y="92"/>
      <point x="659" y="144"/>
      <point x="756" y="217" type="curve"/>
      <point x="788" y="151" type="line"/>
      <point x="739" y="95"/>
      <point x="611" y="-20"/>
    </contour>
    <contour>
      <point x="339" y="1228" type="line"/>
      <point x="293" y="1275" type="line"/>
      <point x="634" y="1650" type="line"/>
      <point x="776" y="1650" type="line"/>
      <point x="978" y="1273" type="line"/>
      <point x="917" y="1226" type="line"/>
      <point x="685" y="1523" type="line"/>
    </contour>
  </outline>
</glyph>
<glyph name="Cdotaccent" format="1">
  <advance width="1251"/>
  <unicode hex="010A"/>
  <outline>
    <contour>
      <point x="593" y="-16" type="curve" smooth="yes"/>
      <point x="238" y="-16"/>
      <point x="98" y="327"/>
      <point x="93" y="627" type="curve" smooth="yes"/>
      <point x="84" y="1175"/>
      <point x="441" y="1546"/>
      <point x="839" y="1546" type="curve" smooth="yes"/>
      <point x="1018" y="1546"/>
      <point x="1129" y="1515"/>
      <point x="1191" y="1498" type="curve" smooth="yes"/>
      <point x="1238" y="1485" type="line"/>
      <point x="1170" y="1122" type="line"/>
      <point x="1076" y="1122" type="line"/>
      <point x="1072" y="1397" type="line"/>
      <point x="1025" y="1424"/>
      <point x="965" y="1450"/>
      <point x="820" y="1450" type="curve" smooth="yes"/>
      <point x="432" y="1450"/>
      <point x="253" y="991"/>
      <point x="260" y="643" type="curve" smooth="yes"/>
      <point x="266" y="353"/>
      <point x="364" y="79"/>
      <point x="631" y="79" type="curve" smooth="yes"/>
      <point x="732" y="79"/>
      <point x="870" y="112"/>
      <point x="922" y="179" type="curve"/>
      <point x="924" y="192"/>
      <point x="980" y="376"/>
      <point x="984" y="402" type="curve"/>
      <point x="1082" y="401" type="line"/>
      <point x="1042" y="70" type="line"/>
      <point x="965" y="46"/>
      <point x="802" y="-16"/>
    </contour>
    <contour>
      <point x="808" y="1701" type="curve" smooth="yes"/>
      <point x="756" y="1701"/>
      <point x="714" y="1745"/>
      <point x="718" y="1802" type="curve"/>
      <point x="721" y="1870"/>
      <point x="782" y="1922"/>
      <point x="834" y="1922" type="curve" smooth="yes"/>
      <point x="895" y="1922"/>
      <point x="934" y="1881"/>
      <point x="931" y="1824" type="curve" smooth="yes"/>
      <point x="927" y="1756"/>
      <point x="871" y="1701"/>
    </contour>
  </outline>
</glyph>
<glyph name="Ccaron" format="1">
  <advance width="1251"/>
  <unicode hex="010C"/>
  <outline>
    <contour>
      <point x="593" y="-16" type="curve" smooth="yes"/>
      <point x="238" y="-16"/>
      <point x="98" y="327"/>
      <point x="93" y="627" type="curve" smooth="yes"/>
      <point x="84" y="1175"/>
      <point x="441" y="1546"/>
      <point x="839" y="1546" type="curve" smooth="yes"/>
      <point x="1018" y="1546"/>
      <point x="1129" y="1515"/>
      <point x="1191" y="1498" type="curve" smooth="yes"/>
      <point x="1238" y="1485" type="line"/>
      <point x="1170" y="1122" type="line"/>
      <point x="1076" y="1122" type="line"/>
      <point x="1072" y="1397" type="line"/>
      <point x="1025" y="1424"/>
      <point x="965" y="1450"/>
      <point x="820" y="1450" type="curve" smooth="yes"/>
      <point x="432" y="1450"/>
      <point x="253" y="991"/>
      <point x="260" y="643" type="curve" smooth="yes"/>
      <point x="266" y="353"/>
      <point x="364" y="79"/>
      <point x="631" y="79" type="curve" smooth="yes"/>
      <point x="732" y="79"/>
      <point x="870" y="112"/>
      <point x="922" y="179" type="curve"/>
      <point x="924" y="192"/>
      <point x="980" y="376"/>
      <point x="984" y="402" type="curve"/>
      <point x="1082" y="401" type="line"/>
      <point x="1042" y="70" type="line"/>
      <point x="965" y="46"/>
      <point x="802" y="-16"/>
    </contour>
    <contour>
      <point x="719" y="1614" type="line"/>
      <point x="497" y="1953" type="line"/>
      <point x="550" y="2000" type="line"/>
      <point x="792" y="1736" type="line"/>
      <point x="1115" y="2000" type="line"/>
      <point x="1165" y="1954" type="line"/>
      <point x="860" y="1614" type="line"/>
    </contour>
  </outline>
</glyph>
<glyph name="ccaron" format="1">
  <advance width="897"/>
  <unicode hex="010D"/>
  <outline>
    <contour>
      <point x="421" y="-20" type="curve" smooth="yes"/>
      <point x="200" y="-20"/>
      <point x="71" y="151"/>
      <point x="71" y="430" type="curve" smooth="yes"/>
      <point x="71" y="760"/>
      <point x="272" y="1163"/>
      <point x="646" y="1163" type="curve" smooth="yes"/>
      <point x="718" y="1163"/>
      <point x="809" y="1144"/>
      <point x="866" y="1115" type="curve"/>
      <point x="825" y="968" type="line"/>
      <point x="767" y="1017"/>
      <point x="681" y="1045"/>
      <point x="610" y="1045" type="curve" smooth="yes"/>
      <point x="395" y="1045"/>
      <point x="238" y="797"/>
      <point x="238" y="453" type="curve" smooth="yes"/>
      <point x="238" y="213"/>
      <point x="324" y="92"/>
      <point x="465" y="92" type="curve" smooth="yes"/>
      <point x="582" y="92"/>
      <point x="659" y="144"/>
      <point x="756" y="217" type="curve"/>
      <point x="788" y="151" type="line"/>
      <point x="739" y="95"/>
      <point x="611" y="-20"/>
    </contour>
    <contour>
      <point x="578" y="1255" type="line"/>
      <point x="352" y="1603" type="line"/>
      <point x="406" y="1650" type="line"/>
      <point x="652" y="1377" type="line"/>
      <point x="725" y="1438"/>
      <point x="914" y="1590"/>
      <point x="986" y="1650" type="curve"/>
      <point x="1036" y="1604" type="line"/>
      <point x="720" y="1255" type="line"/>
    </contour>
  </outline>
</glyph>
<glyph name="Emacron" format="1">
  <advance width="1210"/>
  <unicode hex="0112"/>
  <outline>
    <contour>
      <point x="38" y="0" type="line"/>
      <point x="46" y="69" type="line"/>
      <point x="193" y="93" type="line"/>
      <point x="373" y="1430" type="line"/>
      <point x="241" y="1449" type="line"/>
      <point x="251" y="1530" type="line"/>
      <point x="1162" y="1530" type="line"/>
      <point x="1155" y="1220" type="line"/>
      <point x="1069" y="1220" type="line"/>
      <point x="1033" y="1427" type="line"/>
      <point x="536" y="1443" type="line"/>
      <point x="456" y="840" type="line"/>
      <point x="922" y="846" type="line"/>
      <point x="912" y="721" type="line"/>
      <point x="441" y="734" type="line"/>
      <point x="353" y="94" type="line"/>
      <point x="961" y="113" type="line"/>
      <point x="1074" y="341" type="line"/>
      <point x="1158" y="316" type="line"/>
      <point x="1069" y="0" type="line"/>
    </contour>
    <contour>
      <point x="507" y="1745" type="line"/>
      <point x="511" y="1864" type="line"/>
      <point x="1021" y="1864" type="line"/>
      <point x="1016" y="1745" type="line"/>
    </contour>
  </outline>
</glyph>
<glyph name="Eogonek" format="1">
  <advance width="1210"/>
  <unicode hex="0118"/>
  <outline>
    <contour>
      <point x="38" y="0" type="line"/>
      <point x="46" y="69" type="line"/>
      <point x="193" y="93" type="line"/>
      <point x="373" y="1430" type="line"/>
      <point x="241" y="1449" type="line"/>
      <point x="251" y="1530" type="line"/>
      <point x="1162" y="1530" type="line"/>
      <point x="1155" y="1220" type="line"/>
      <point x="1069" y="1220" type="line"/>
      <point x="1033" y="1427" type="line"/>
      <point x="536" y="1443" type="line"/>
      <point x="456" y="840" type="line"/>
      <point x="922" y="846" type="line"/>
      <point x="912" y="721" type="line"/>
      <point x="441" y="734" type="line"/>
      <point x="353" y="94" type="line"/>
      <point x="961" y="113" type="line"/>
      <point x="1074" y="341" type="line"/>
      <point x="1158" y="316" type="line"/>
      <point x="1069" y="0" type="line"/>
      <point x="988" y="0" type="line"/>
      <point x="891" y="-71"/>
      <point x="795" y="-148"/>
      <point x="793" y="-226" type="curve"/>
      <point x="790" y="-286"/>
      <point x="822" y="-313"/>
      <point x="858" y="-313" type="curve" smooth="yes"/>
      <point x="910" y="-313"/>
      <point x="962" y="-287"/>
      <point x="1013" y="-245" type="curve"/>
      <point x="1034" y="-322" type="line"/>
      <point x="982" y="-368"/>
      <point x="900" y="-416"/>
      <point x="784" y="-416" type="curve" smooth="yes"/>
      <point x="677" y="-416"/>
      <point x="635" y="-346"/>
      <point x="638" y="-287" type="curve" smooth="yes"/>
      <point x="639" y="-248"/>
      <point x="652" y="-203"/>
      <point x="674" y="-174" type="curve"/>
      <point x="737" y="-85"/>
      <point x="821" y="-40"/>
      <point x="892" y="0" type="curve"/>
    </contour>
  </outline>
</glyph>
<glyph name="eogonek" format="1">
  <advance width="1025"/>
  <unicode hex="0119"/>
  <outline>
    <contour>
      <point x="396" y="-170" type="curve" smooth="yes"/>
      <point x="451" y="-91"/>
      <point x="524" y="-44"/>
      <point x="589" y="-4" type="curve"/>
      <point x="552" y="-14"/>
      <point x="514" y="-20"/>
      <point x="473" y="-20" type="curve" smooth="yes"/>
      <point x="185" y="-20"/>
      <point x="77" y="211"/>
      <point x="83" y="437" type="curve" smooth="yes"/>
      <point x="93" y="816"/>
      <point x="330" y="1163"/>
      <point x="658" y="1163" type="curve" smooth="yes"/>
      <point x="848" y="1163"/>
      <point x="940" y="1054"/>
      <point x="940" y="913" type="curve" smooth="yes"/>
      <point x="940" y="599"/>
      <point x="449" y="472"/>
      <point x="250" y="467" type="curve"/>
      <point x="236" y="314"/>
      <point x="285" y="92"/>
      <point x="492" y="92" type="curve" smooth="yes"/>
      <point x="600" y="92"/>
      <point x="718" y="139"/>
      <point x="833" y="254" type="curve"/>
      <point x="871" y="186" type="line"/>
      <point x="855" y="164"/>
      <point x="832" y="137"/>
      <point x="802" y="111" type="curve"/>
      <point x="803" y="112" type="line"/>
      <point x="758" y="77" type="line"/>
      <point x="711" y="43"/>
      <point x="654" y="13"/>
      <point x="589" y="-4" type="curve"/>
      <point x="612" y="9"/>
      <point x="634" y="22"/>
      <point x="654" y="35" type="curve" smooth="yes"/>
      <point x="700" y="63" type="line"/>
      <point x="802" y="111" type="line"/>
      <point x="789" y="99"/>
      <point x="774" y="88"/>
      <point x="758" y="77" type="curve"/>
      <point x="653" y="-10"/>
      <point x="517" y="-144"/>
      <point x="515" y="-221" type="curve" smooth="yes"/>
      <point x="513" y="-282"/>
      <point x="544" y="-308"/>
      <point x="581" y="-308" type="curve" smooth="yes"/>
      <point x="633" y="-308"/>
      <point x="685" y="-283"/>
      <point x="735" y="-241" type="curve"/>
      <point x="757" y="-318" type="line"/>
      <point x="705" y="-364"/>
      <point x="623" y="-412"/>
      <point x="507" y="-412" type="curve" smooth="yes"/>
      <point x="400" y="-412"/>
      <point x="358" y="-342"/>
      <point x="360" y="-283" type="curve" smooth="yes"/>
      <point x="362" y="-243"/>
      <point x="375" y="-199"/>
    </contour>
    <contour>
      <point x="254" y="557" type="curve"/>
      <point x="470" y="564"/>
      <point x="776" y="687"/>
      <point x="776" y="899" type="curve" smooth="yes"/>
      <point x="776" y="1012"/>
      <point x="716" y="1069"/>
      <point x="621" y="1069" type="curve" smooth="yes"/>
      <point x="400" y="1069"/>
      <point x="275" y="770"/>
    </contour>
  </outline>
</glyph>
<glyph name="Gbreve" format="1">
  <advance width="1361"/>
  <unicode hex="011E"/>
  <outline>
    <contour>
      <point x="617" y="-17" type="curve" smooth="yes"/>
      <point x="258" y="-17"/>
      <point x="106" y="307"/>
      <point x="101" y="627" type="curve" smooth="yes"/>
      <point x="92" y="1175"/>
      <point x="404" y="1546"/>
      <point x="847" y="1546" type="curve" smooth="yes"/>
      <point x="1051" y="1546"/>
      <point x="1176" y="1511"/>
      <point x="1248" y="1490" type="curve" smooth="yes"/>
      <point x="1286" y="1479" type="line"/>
      <point x="1229" y="1183" type="line"/>
      <point x="1127" y="1183" type="line"/>
      <point x="1120" y="1385" type="line"/>
      <point x="1069" y="1421"/>
      <point x="996" y="1451"/>
      <point x="829" y="1451" type="curve" smooth="yes"/>
      <point x="427" y="1451"/>
      <point x="268" y="1008"/>
      <point x="272" y="643" type="curve" smooth="yes"/>
      <point x="275" y="371"/>
      <point x="381" y="77"/>
      <point x="653" y="77" type="curve" smooth="yes"/>
      <point x="766" y="77"/>
      <point x="915" y="111"/>
      <point x="989" y="178" type="curve"/>
      <point x="1056" y="616" type="line"/>
      <point x="786" y="630" type="line"/>
      <point x="797" y="723" type="line"/>
      <point x="1232" y="723" type="line"/>
      <point x="1139" y="94" type="line"/>
      <point x="1100" y="90"/>
      <point x="1066" y="77"/>
      <point x="1012" y="61" type="curve" smooth="yes"/>
      <point x="913" y="31"/>
      <point x="774" y="-17"/>
    </contour>
    <contour>
      <point x="841" y="1635" type="curve" smooth="yes"/>
      <point x="655" y="1635"/>
      <point x="552" y="1799"/>
      <point x="552" y="1959" type="curve" smooth="yes"/>
      <point x="552" y="1965"/>
      <point x="552" y="1973"/>
      <point x="553" y="1979" type="curve"/>
      <point x="638" y="1979" type="line"/>
      <point x="639" y="1971"/>
      <point x="639" y="1959"/>
      <point x="641" y="1949" type="curve" smooth="yes"/>
      <point x="653" y="1858"/>
      <point x="712" y="1752"/>
      <point x="845" y="1752" type="curve" smooth="yes"/>
      <point x="993" y="1752"/>
      <point x="1071" y="1899"/>
      <point x="1087" y="1979" type="curve"/>
      <point x="1169" y="1979" type="line"/>
      <point x="1170" y="1969"/>
      <point x="1169" y="1958"/>
      <point x="1167" y="1947" type="curve" smooth="yes"/>
      <point x="1150" y="1800"/>
      <point x="1009" y="1635"/>
    </contour>
  </outline>
</glyph>
<glyph name="gbreve" format="1">
  <advance width="1144"/>
  <unicode hex="011F"/>
  <outline>
    <contour>
      <point x="141" y="-325" type="line"/>
      <point x="197" y="-350"/>
      <point x="296" y="-381"/>
      <point x="397" y="-381" type="curve" smooth="yes"/>
      <point x="579" y="-381"/>
      <point x="658" y="-321"/>
      <point x="688" y="-131" type="curve" smooth="yes"/>
      <point x="732" y="150" type="line"/>
      <point x="663" y="65"/>
      <point x="547" y="-20"/>
      <point x="407" y="-20" type="curve" smooth="yes"/>
      <point x="181" y="-20"/>
      <point x="75" y="162"/>
      <point x="75" y="412" type="curve" smooth="yes"/>
      <point x="75" y="721"/>
      <point x="307" y="1163"/>
      <point x="716" y="1163" type="curve" smooth="yes"/>
      <point x="792" y="1163"/>
      <point x="871" y="1143"/>
      <point x="927" y="1122" type="curve"/>
      <point x="1043" y="1163" type="line"/>
      <point x="850" y="-77" type="line"/>
      <point x="804" y="-393"/>
      <point x="517" y="-508"/>
      <point x="320" y="-508" type="curve" smooth="yes"/>
      <point x="232" y="-508"/>
      <point x="141" y="-490"/>
      <point x="101" y="-473" type="curve"/>
    </contour>
    <contour>
      <point x="432" y="94" type="curve" smooth="yes"/>
      <point x="570" y="94"/>
      <point x="695" y="205"/>
      <point x="753" y="289" type="curve"/>
      <point x="861" y="1016" type="line"/>
      <point x="815" y="1052"/>
      <point x="752" y="1065"/>
      <point x="692" y="1065" type="curve" smooth="yes"/>
      <point x="384" y="1065"/>
      <point x="239" y="681"/>
      <point x="239" y="423" type="curve" smooth="yes"/>
      <point x="239" y="217"/>
      <point x="309" y="94"/>
    </contour>
    <contour>
      <point x="708" y="1304" type="curve" smooth="yes"/>
      <point x="522" y="1304"/>
      <point x="419" y="1468"/>
      <point x="419" y="1628" type="curve" smooth="yes"/>
      <point x="419" y="1634"/>
      <point x="419" y="1643"/>
      <point x="420" y="1648" type="curve"/>
      <point x="505" y="1648" type="line"/>
      <point x="506" y="1640"/>
      <point x="506" y="1628"/>
      <point x="508" y="1618" type="curve" smooth="yes"/>
      <point x="520" y="1527"/>
      <point x="579" y="1422"/>
      <point x="712" y="1422" type="curve" smooth="yes"/>
      <point x="860" y="1422"/>
      <point x="938" y="1569"/>
      <point x="954" y="1649" type="curve"/>
      <point x="1036" y="1649" type="line"/>
      <point x="1037" y="1638"/>
      <point x="1036" y="1627"/>
      <point x="1034" y="1617" type="curve" smooth="yes"/>
      <point x="1017" y="1469"/>
      <point x="876" y="1304"/>
    </contour>
  </outline>
</glyph>
<glyph name="gdotaccent" format="1">
  <advance width="1144"/>
  <unicode hex="0121"/>
  <outline>
    <contour>
      <point x="141" y="-325" type="line"/>
      <point x="197" y="-350"/>
      <point x="296" y="-381"/>
      <point x="397" y="-381" type="curve" smooth="yes"/>
      <point x="579" y="-381"/>
      <point x="658" y="-321"/>
      <point x="688" y="-131" type="curve" smooth="yes"/>
      <point x="732" y="150" type="line"/>
      <point x="663" y="65"/>
      <point x="547" y="-20"/>
      <point x="407" y="-20" type="curve" smooth="yes"/>
      <point x="181" y="-20"/>
      <point x="75" y="162"/>
      <point x="75" y="412" type="curve" smooth="yes"/>
      <point x="75" y="721"/>
      <point x="307" y="1163"/>
      <point x="716" y="1163" type="curve" smooth="yes"/>
      <point x="792" y="1163"/>
      <point x="871" y="1143"/>
      <point x="927" y="1122" type="curve"/>
      <point x="1043" y="1163" type="line"/>
      <point x="850" y="-77" type="line"/>
      <point x="804" y="-393"/>
      <point x="517" y="-508"/>
      <point x="320" y="-508" type="curve" smooth="yes"/>
      <point x="232" y="-508"/>
      <point x="141" y="-490"/>
      <point x="101" y="-473" type="curve"/>
    </contour>
    <contour>
      <point x="432" y="94" type="curve" smooth="yes"/>
      <point x="570" y="94"/>
      <point x="695" y="205"/>
      <point x="753" y="289" type="curve"/>
      <point x="861" y="1016" type="line"/>
      <point x="815" y="1052"/>
      <point x="752" y="1065"/>
      <point x="692" y="1065" type="curve" smooth="yes"/>
      <point x="384" y="1065"/>
      <point x="239" y="681"/>
      <point x="239" y="423" type="curve" smooth="yes"/>
      <point x="239" y="217"/>
      <point x="309" y="94"/>
    </contour>
    <contour>
      <point x="716" y="1421" type="curve" smooth="yes"/>
      <point x="663" y="1421"/>
      <point x="621" y="1464"/>
      <point x="625" y="1522" type="curve"/>
      <point x="628" y="1590"/>
      <point x="689" y="1642"/>
      <point x="741" y="1642" type="curve" smooth="yes"/>
      <point x="803" y="1642"/>
      <point x="840" y="1600"/>
      <point x="837" y="1544" type="curve" smooth="yes"/>
      <point x="833" y="1476"/>
      <point x="778" y="1421"/>
    </contour>
  </outline>
</glyph>
<glyph name="Gcommaaccent" format="1">
  <advance width="1361"/>
  <unicode hex="0122"/>
  <outline>
    <contour>
      <point x="617" y="-17" type="curve" smooth="yes"/>
      <point x="258" y="-17"/>
      <point x="106" y="307"/>
      <point x="101" y="627" type="curve" smooth="yes"/>
      <point x="92" y="1175"/>
      <point x="404" y="1546"/>
      <point x="847" y="1546" type="curve" smooth="yes"/>
      <point x="1051" y="1546"/>
      <point x="1176" y="1511"/>
      <point x="1248" y="1490" type="curve" smooth="yes"/>
      <point x="1286" y="1479" type="line"/>
      <point x="1229" y="1183" type="line"/>
      <point x="1127" y="1183" type="line"/>
      <point x="1120" y="1385" type="line"/>
      <point x="1069" y="1421"/>
      <point x="996" y="1451"/>
      <point x="829" y="1451" type="curve" smooth="yes"/>
      <point x="427" y="1451"/>
      <point x="268" y="1008"/>
      <point x="272" y="643" type="curve" smooth="yes"/>
      <point x="275" y="371"/>
      <point x="381" y="77"/>
      <point x="653" y="77" type="curve" smooth="yes"/>
      <point x="766" y="77"/>
      <point x="915" y="111"/>
      <point x="989" y="178" type="curve"/>
      <point x="1056" y="616" type="line"/>
      <point x="786" y="630" type="line"/>
      <point x="797" y="723" type="line"/>
      <point x="1232" y="723" type="line"/>
      <point x="1139" y="94" type="line"/>
      <point x="1100" y="90"/>
      <point x="1066" y="77"/>
      <point x="1012" y="61" type="curve" smooth="yes"/>
      <point x="913" y="31"/>
      <point x="774" y="-17"/>
    </contour>
    <contour>
      <point x="532" y="-147" type="line"/>
      <point x="630" y="-52" type="line"/>
      <point x="713" y="-76"/>
      <point x="758" y="-169"/>
      <point x="751" y="-267" type="curve"/>
      <point x="738" y="-422"/>
      <point x="610" y="-540"/>
      <point x="537" y="-560" type="curve"/>
      <point x="504" y="-527" type="line"/>
      <point x="506" y="-507" type="line"/>
      <point x="557" y="-471"/>
      <point x="594" y="-410"/>
      <point x="599" y="-321" type="curve" smooth="yes"/>
      <point x="603" y="-266"/>
      <point x="571" y="-206"/>
      <point x="527" y="-191" type="curve"/>
    </contour>
  </outline>
</glyph>
<glyph name="gcommaaccent" format="1">
  <advance width="1144"/>
  <unicode hex="0123"/>
  <outline>
    <contour>
      <point x="702" y="1297" type="line"/>
      <point x="612" y="1316"/>
      <point x="560" y="1419"/>
      <point x="570" y="1521" type="curve" smooth="yes"/>
      <point x="586" y="1672"/>
      <point x="722" y="1788"/>
      <point x="801" y="1806" type="curve"/>
      <point x="834" y="1772" type="line"/>
      <point x="831" y="1752" type="line"/>
      <point x="775" y="1717"/>
      <point x="731" y="1661"/>
      <point x="721" y="1573" type="curve" smooth="yes"/>
      <point x="715" y="1516"/>
      <point x="752" y="1447"/>
      <point x="805" y="1435" type="curve"/>
      <point x="800" y="1392" type="line"/>
    </contour>
    <contour>
      <point x="141" y="-325" type="line"/>
      <point x="197" y="-350"/>
      <point x="296" y="-381"/>
      <point x="397" y="-381" type="curve" smooth="yes"/>
      <point x="579" y="-381"/>
      <point x="658" y="-321"/>
      <point x="688" y="-131" type="curve" smooth="yes"/>
      <point x="732" y="150" type="line"/>
      <point x="663" y="65"/>
      <point x="547" y="-20"/>
      <point x="407" y="-20" type="curve" smooth="yes"/>
      <point x="181" y="-20"/>
      <point x="75" y="162"/>
      <point x="75" y="412" type="curve" smooth="yes"/>
      <point x="75" y="721"/>
      <point x="307" y="1163"/>
      <point x="716" y="1163" type="curve" smooth="yes"/>
      <point x="792" y="1163"/>
      <point x="871" y="1143"/>
      <point x="927" y="1122" type="curve"/>
      <point x="1043" y="1163" type="line"/>
      <point x="850" y="-77" type="line"/>
      <point x="804" y="-393"/>
      <point x="517" y="-508"/>
      <point x="320" y="-508" type="curve" smooth="yes"/>
      <point x="232" y="-508"/>
      <point x="141" y="-490"/>
      <point x="101" y="-473" type="curve"/>
    </contour>
    <contour>
      <point x="432" y="94" type="curve" smooth="yes"/>
      <point x="570" y="94"/>
      <point x="695" y="205"/>
      <point x="753" y="289" type="curve"/>
      <point x="861" y="1016" type="line"/>
      <point x="815" y="1052"/>
      <point x="752" y="1065"/>
      <point x="692" y="1065" type="curve" smooth="yes"/>
      <point x="384" y="1065"/>
      <point x="239" y="681"/>
      <point x="239" y="423" type="curve" smooth="yes"/>
      <point x="239" y="217"/>
      <point x="309" y="94"/>
    </contour>
  </outline>
</glyph>
<glyph name="Itilde" format="1">
  <advance width="717"/>
  <unicode hex="0128"/>
  <outline>
    <contour>
      <point x="54" y="0" type="line"/>
      <point x="61" y="69" type="line"/>
      <point x="210" y="94" type="line"/>
      <point x="390" y="1430" type="line"/>
      <point x="255" y="1449" type="line"/>
      <point x="265" y="1530" type="line"/>
      <point x="710" y="1530" type="line"/>
      <point x="702" y="1449" type="line"/>
      <point x="551" y="1430" type="line"/>
      <point x="371" y="94" type="line"/>
      <point x="527" y="70" type="line"/>
      <point x="520" y="0" type="line"/>
    </contour>
    <contour>
      <point x="233" y="1731" type="curve"/>
      <point x="194" y="1800" type="line"/>
      <point x="237" y="1883"/>
      <point x="334" y="1965"/>
      <point x="435" y="1965" type="curve" smooth="yes"/>
      <point x="565" y="1965"/>
      <point x="596" y="1819"/>
      <point x="693" y="1819" type="curve" smooth="yes"/>
      <point x="773" y="1819"/>
      <point x="821" y="1892"/>
      <point x="853" y="1938" type="curve"/>
      <point x="901" y="1863" type="line"/>
      <point x="868" y="1768"/>
      <point x="770" y="1689"/>
      <point x="663" y="1689" type="curve" smooth="yes"/>
      <point x="507" y="1689"/>
      <point x="504" y="1833"/>
      <point x="393" y="1835" type="curve" smooth="yes"/>
      <point x="335" y="1836"/>
      <point x="270" y="1774"/>
    </contour>
  </outline>
</glyph>
<glyph name="itilde" format="1">
  <advance width="625"/>
  <unicode hex="0129"/>
  <outline>
    <contour>
      <point x="156" y="99" type="curve"/>
      <point x="165" y="225"/>
      <point x="242" y="717"/>
      <point x="285" y="1016" type="curve"/>
      <point x="148" y="1056" type="line"/>
      <point x="162" y="1121" type="line"/>
      <point x="420" y="1163" type="line"/>
      <point x="461" y="1142" type="line"/>
      <point x="320" y="158" type="line" smooth="yes"/>
      <point x="313" y="108"/>
      <point x="329" y="85"/>
      <point x="348" y="85" type="curve" smooth="yes"/>
      <point x="377" y="85"/>
      <point x="406" y="104"/>
      <point x="456" y="156" type="curve"/>
      <point x="483" y="112" type="line"/>
      <point x="465" y="84"/>
      <point x="377" y="-20"/>
      <point x="265" y="-20" type="curve" smooth="yes"/>
      <point x="197" y="-20"/>
      <point x="148" y="11"/>
    </contour>
    <contour>
      <point x="98" y="1416" type="curve"/>
      <point x="60" y="1485" type="line"/>
      <point x="102" y="1568"/>
      <point x="199" y="1650"/>
      <point x="300" y="1650" type="curve" smooth="yes"/>
      <point x="430" y="1650"/>
      <point x="462" y="1504"/>
      <point x="559" y="1504" type="curve" smooth="yes"/>
      <point x="638" y="1504"/>
      <point x="687" y="1578"/>
      <point x="719" y="1623" type="curve"/>
      <point x="766" y="1549" type="line"/>
      <point x="733" y="1453"/>
      <point x="636" y="1374"/>
      <point x="529" y="1374" type="curve" smooth="yes"/>
      <point x="373" y="1374"/>
      <point x="370" y="1519"/>
      <point x="259" y="1520" type="curve" smooth="yes"/>
      <point x="201" y="1521"/>
      <point x="135" y="1459"/>
    </contour>
  </outline>
</glyph>
<glyph name="Ibreve" format="1">
  <advance width="717"/>
  <unicode hex="012C"/>
  <outline>
    <contour>
      <point x="54" y="0" type="line"/>
      <point x="61" y="69" type="line"/>
      <point x="210" y="94" type="line"/>
      <point x="390" y="1430" type="line"/>
      <point x="255" y="1449" type="line"/>
      <point x="265" y="1530" type="line"/>
      <point x="710" y="1530" type="line"/>
      <point x="702" y="1449" type="line"/>
      <point x="551" y="1430" type="line"/>
      <point x="371" y="94" type="line"/>
      <point x="527" y="70" type="line"/>
      <point x="520" y="0" type="line"/>
    </contour>
    <contour>
      <point x="524" y="1635" type="curve" smooth="yes"/>
      <point x="338" y="1635"/>
      <point x="235" y="1799"/>
      <point x="235" y="1959" type="curve" smooth="yes"/>
      <point x="235" y="1965"/>
      <point x="235" y="1973"/>
      <point x="236" y="1979" type="curve"/>
      <point x="321" y="1979" type="line"/>
      <point x="322" y="1971"/>
      <point x="322" y="1959"/>
      <point x="324" y="1949" type="curve" smooth="yes"/>
      <point x="336" y="1858"/>
      <point x="395" y="1752"/>
      <point x="528" y="1752" type="curve" smooth="yes"/>
      <point x="676" y="1752"/>
      <point x="754" y="1899"/>
      <point x="770" y="1979" type="curve"/>
      <point x="852" y="1979" type="line"/>
      <point x="853" y="1969"/>
      <point x="852" y="1958"/>
      <point x="850" y="1947" type="curve" smooth="yes"/>
      <point x="833" y="1800"/>
      <point x="692" y="1635"/>
    </contour>
  </outline>
</glyph>
<glyph name="Iogonek" format="1">
  <advance width="717"/>
  <unicode hex="012E"/>
  <outline>
    <contour>
      <point x="54" y="0" type="line"/>
      <point x="61" y="69" type="line"/>
      <point x="210" y="94" type="line"/>
      <point x="390" y="1430" type="line"/>
      <point x="255" y="1449" type="line"/>
      <point x="265" y="1530" type="line"/>
      <point x="710" y="1530" type="line"/>
      <point x="702" y="1449" type="line"/>
      <point x="551" y="1430" type="line"/>
      <point x="371" y="94" type="line"/>
      <point x="527" y="70" type="line"/>
      <point x="520" y="0" type="line"/>
      <point x="334" y="0" type="line"/>
      <point x="237" y="-71"/>
      <point x="140" y="-148"/>
      <point x="139" y="-226" type="curve"/>
      <point x="136" y="-286"/>
      <point x="168" y="-313"/>
      <point x="204" y="-313" type="curve" smooth="yes"/>
      <point x="256" y="-313"/>
      <point x="308" y="-287"/>
      <point x="359" y="-245" type="curve"/>
      <point x="380" y="-322" type="line"/>
      <point x="328" y="-368"/>
      <point x="246" y="-416"/>
      <point x="130" y="-416" type="curve" smooth="yes"/>
      <point x="23" y="-416"/>
      <point x="-19" y="-346"/>
      <point x="-16" y="-287" type="curve" smooth="yes"/>
      <point x="-15" y="-248"/>
      <point x="-2" y="-203"/>
      <point x="20" y="-174" type="curve"/>
      <point x="83" y="-85"/>
      <point x="168" y="-40"/>
      <point x="239" y="0" type="curve"/>
    </contour>
  </outline>
</glyph>
<glyph name="IJ" format="1">
  <advance width="1411"/>
  <unicode hex="0132"/>
  <outline>
    <contour>
      <point x="54" y="0" type="line"/>
      <point x="61" y="69" type="line"/>
      <point x="210" y="94" type="line"/>
      <point x="390" y="1430" type="line"/>
      <point x="255" y="1449" type="line"/>
      <point x="265" y="1530" type="line"/>
      <point x="710" y="1530" type="line"/>
      <point x="702" y="1449" type="line"/>
      <point x="551" y="1430" type="line"/>
      <point x="371" y="94" type="line"/>
      <point x="527" y="70" type="line"/>
      <point x="520" y="0" type="line"/>
    </contour>
    <contour>
      <point x="913" y="82" type="curve" smooth="yes"/>
      <point x="990" y="471"/>
      <point x="1047" y="996"/>
      <point x="1107" y="1431" type="curve"/>
      <point x="944" y="1449" type="line"/>
      <point x="955" y="1530" type="line"/>
      <point x="1442" y="1530" type="line"/>
      <point x="1433" y="1449" type="line"/>
      <point x="1263" y="1431" type="line"/>
      <point x="1180" y="760"/>
      <point x="1103" y="170"/>
      <point x="1071" y="75" type="curve"/>
      <point x="989" y="-198"/>
      <point x="776" y="-310"/>
      <point x="575" y="-345" type="curve"/>
      <point x="547" y="-275" type="line"/>
      <point x="748" y="-222"/>
      <point x="886" y="-52"/>
    </contour>
  </outline>
</glyph>
<glyph name="ij" format="1">
  <advance width="1247"/>
  <unicode hex="0133"/>
  <outline>
    <contour>
      <point x="156" y="99" type="curve"/>
      <point x="165" y="225"/>
      <point x="242" y="717"/>
      <point x="285" y="1016" type="curve"/>
      <point x="148" y="1056" type="line"/>
      <point x="162" y="1121" type="line"/>
      <point x="420" y="1163" type="line"/>
      <point x="461" y="1142" type="line"/>
      <point x="320" y="158" type="line" smooth="yes"/>
      <point x="313" y="108"/>
      <point x="329" y="85"/>
      <point x="348" y="85" type="curve" smooth="yes"/>
      <point x="377" y="85"/>
      <point x="406" y="104"/>
      <point x="456" y="156" type="curve"/>
      <point x="483" y="112" type="line"/>
      <point x="465" y="84"/>
      <point x="377" y="-20"/>
      <point x="265" y="-20" type="curve" smooth="yes"/>
      <point x="197" y="-20"/>
      <point x="148" y="11"/>
    </contour>
    <contour>
      <point x="414" y="1421" type="curve" smooth="yes"/>
      <point x="361" y="1421"/>
      <point x="319" y="1464"/>
      <point x="323" y="1522" type="curve"/>
      <point x="326" y="1590"/>
      <point x="387" y="1642"/>
      <point x="439" y="1642" type="curve" smooth="yes"/>
      <point x="501" y="1642"/>
      <point x="538" y="1600"/>
      <point x="535" y="1544" type="curve" smooth="yes"/>
      <point x="531" y="1476"/>
      <point x="476" y="1421"/>
    </contour>
    <contour>
      <point x="799" y="58" type="curve" smooth="yes"/>
      <point x="908" y="1016" type="line"/>
      <point x="765" y="1056" type="line"/>
      <point x="779" y="1121" type="line"/>
      <point x="1044" y="1163" type="line"/>
      <point x="1084" y="1142" type="line"/>
      <point x="949" y="2" type="line" smooth="yes"/>
      <point x="909" y="-341"/>
      <point x="751" y="-518"/>
      <point x="523" y="-518" type="curve" smooth="yes"/>
      <point x="458" y="-518"/>
      <point x="405" y="-505"/>
      <point x="383" y="-481" type="curve"/>
      <point x="411" y="-415" type="line"/>
      <point x="429" y="-424"/>
      <point x="470" y="-432"/>
      <point x="496" y="-432" type="curve" smooth="yes"/>
      <point x="697" y="-432"/>
      <point x="769" y="-205"/>
    </contour>
    <contour>
      <point x="1038" y="1421" type="curve" smooth="yes"/>
      <point x="985" y="1421"/>
      <point x="943" y="1464"/>
      <point x="947" y="1522" type="curve"/>
      <point x="950" y="1590"/>
      <point x="1011" y="1642"/>
      <point x="1063" y="1642" type="curve" smooth="yes"/>
      <point x="1125" y="1642"/>
      <point x="1162" y="1600"/>
      <point x="1159" y="1544" type="curve" smooth="yes"/>
      <point x="1155" y="1476"/>
      <point x="1100" y="1421"/>
    </contour>
  </outline>
</glyph>
<glyph name="Jcircumflex" format="1">
  <advance width="694"/>
  <unicode hex="0134"/>
  <outline>
    <contour>
      <point x="196" y="82" type="curve" smooth="yes"/>
      <point x="273" y="471"/>
      <point x="330" y="996"/>
      <point x="390" y="1431" type="curve"/>
      <point x="227" y="1449" type="line"/>
      <point x="238" y="1530" type="line"/>
      <point x="725" y="1530" type="line"/>
      <point x="716" y="1449" type="line"/>
      <point x="546" y="1431" type="line"/>
      <point x="463" y="760"/>
      <point x="386" y="170"/>
      <point x="354" y="75" type="curve"/>
      <point x="272" y="-198"/>
      <point x="59" y="-310"/>
      <point x="-142" y="-345" type="curve"/>
      <point x="-170" y="-275" type="line"/>
      <point x="31" y="-222"/>
      <point x="169" y="-52"/>
    </contour>
    <contour>
      <point x="234" y="1619" type="line"/>
      <point x="184" y="1666" type="line"/>
      <point x="505" y="2000" type="line"/>
      <point x="647" y="2000" type="line"/>
      <point x="866" y="1665" type="line"/>
      <point x="811" y="1617" type="line"/>
      <point x="569" y="1873" type="line"/>
    </contour>
  </outline>
</glyph>
<glyph name="Lcommaaccent" format="1">
  <advance width="1173"/>
  <unicode hex="013B"/>
  <outline>
    <contour>
      <point x="38" y="0" type="line"/>
      <point x="45" y="70" type="line"/>
      <point x="194" y="94" type="line"/>
      <point x="374" y="1430" type="line"/>
      <point x="239" y="1449" type="line"/>
      <point x="249" y="1530" type="line"/>
      <point x="722" y="1530" type="line"/>
      <point x="713" y="1449" type="line"/>
      <point x="535" y="1430" type="line"/>
      <point x="354" y="94" type="line"/>
      <point x="892" y="103" type="line"/>
      <point x="1022" y="449" type="line"/>
      <point x="1116" y="431" type="line"/>
      <point x="1020" y="0" type="line"/>
    </contour>
    <contour>
      <point x="469" y="-145" type="line"/>
      <point x="567" y="-50" type="line"/>
      <point x="650" y="-74"/>
      <point x="695" y="-167"/>
      <point x="688" y="-265" type="curve"/>
      <point x="675" y="-420"/>
      <point x="547" y="-538"/>
      <point x="474" y="-558" type="curve"/>
      <point x="441" y="-525" type="line"/>
      <point x="443" y="-505" type="line"/>
      <point x="494" y="-469"/>
      <point x="531" y="-408"/>
      <point x="536" y="-319" type="curve" smooth="yes"/>
      <point x="540" y="-264"/>
      <point x="508" y="-204"/>
      <point x="464" y="-189" type="curve"/>
    </contour>
  </outline>
</glyph>
<glyph name="lcommaaccent" format="1">
  <advance width="598"/>
  <unicode hex="013C"/>
  <outline>
    <contour>
      <point x="133" y="102" type="curve" smooth="yes"/>
      <point x="133" y="116"/>
      <point x="135" y="150"/>
      <point x="139" y="170" type="curve"/>
      <point x="339" y="1515" type="line"/>
      <point x="220" y="1548" type="line"/>
      <point x="236" y="1615" type="line"/>
      <point x="465" y="1650" type="line"/>
      <point x="505" y="1627" type="line"/>
      <point x="289" y="158" type="line" smooth="yes"/>
      <point x="282" y="110"/>
      <point x="296" y="85"/>
      <point x="314" y="85" type="curve" smooth="yes"/>
      <point x="342" y="85"/>
      <point x="374" y="102"/>
      <point x="425" y="155" type="curve"/>
      <point x="451" y="112" type="line"/>
      <point x="436" y="84"/>
      <point x="346" y="-20"/>
      <point x="234" y="-20" type="curve" smooth="yes"/>
      <point x="165" y="-20"/>
      <point x="131" y="15"/>
    </contour>
    <contour>
      <point x="82" y="-147" type="line"/>
      <point x="180" y="-52" type="line"/>
      <point x="263" y="-76"/>
      <point x="308" y="-169"/>
      <point x="301" y="-267" type="curve"/>
      <point x="288" y="-422"/>
      <point x="160" y="-540"/>
      <point x="87" y="-560" type="curve"/>
      <point x="54" y="-527" type="line"/>
      <point x="56" y="-507" type="line"/>
      <point x="107" y="-471"/>
      <point x="144" y="-410"/>
      <point x="149" y="-321" type="curve" smooth="yes"/>
      <point x="153" y="-266"/>
      <point x="121" y="-206"/>
      <point x="77" y="-191" type="curve"/>
    </contour>
  </outline>
</glyph>
<glyph name="Lcaron" format="1">
  <advance width="1173"/>
  <unicode hex="013D"/>
  <outline>
    <contour>
      <point x="38" y="0" type="line"/>
      <point x="45" y="70" type="line"/>
      <point x="194" y="94" type="line"/>
      <point x="374" y="1430" type="line"/>
      <point x="239" y="1449" type="line"/>
      <point x="249" y="1530" type="line"/>
      <point x="722" y="1530" type="line"/>
      <point x="713" y="1449" type="line"/>
      <point x="535" y="1430" type="line"/>
      <point x="354" y="94" type="line"/>
      <point x="892" y="103" type="line"/>
      <point x="1022" y="449" type="line"/>
      <point x="1116" y="431" type="line"/>
      <point x="1020" y="0" type="line"/>
    </contour>
    <contour>
      <point x="949" y="987" type="curve"/>
      <point x="900" y="1011" type="line"/>
      <point x="895" y="1031" type="line"/>
      <point x="924" y="1113"/>
      <point x="956" y="1225"/>
      <point x="969" y="1346" type="curve" smooth="yes"/>
      <point x="978" y="1434"/>
      <point x="960" y="1521"/>
      <point x="940" y="1551" type="curve"/>
      <point x="955" y="1585" type="line"/>
      <point x="1079" y="1622" type="line"/>
      <point x="1113" y="1585"/>
      <point x="1117" y="1489"/>
      <point x="1107" y="1393" type="curve" smooth="yes"/>
      <point x="1088" y="1216"/>
      <point x="1015" y="1067"/>
    </contour>
  </outline>
</glyph>
<glyph name="lcaron" format="1">
  <advance width="747"/>
  <unicode hex="013E"/>
  <outline>
    <contour>
      <point x="133" y="104" type="curve" smooth="yes"/>
      <point x="133" y="118"/>
      <point x="135" y="152"/>
      <point x="139" y="172" type="curve"/>
      <point x="339" y="1517" type="line"/>
      <point x="220" y="1550" type="line"/>
      <point x="236" y="1617" type="line"/>
      <point x="465" y="1652" type="line"/>
      <point x="505" y="1629" type="line"/>
      <point x="289" y="160" type="line" smooth="yes"/>
      <point x="282" y="112"/>
      <point x="296" y="87"/>
      <point x="314" y="87" type="curve" smooth="yes"/>
      <point x="342" y="87"/>
      <point x="374" y="104"/>
      <point x="425" y="157" type="curve"/>
      <point x="451" y="114" type="line"/>
      <point x="436" y="86"/>
      <point x="346" y="-18"/>
      <point x="234" y="-18" type="curve" smooth="yes"/>
      <point x="165" y="-18"/>
      <point x="131" y="17"/>
    </contour>
    <contour>
      <point x="679" y="1022" type="curve"/>
      <point x="630" y="1046" type="line"/>
      <point x="625" y="1066" type="line"/>
      <point x="654" y="1148"/>
      <point x="686" y="1260"/>
      <point x="699" y="1381" type="curve" smooth="yes"/>
      <point x="708" y="1469"/>
      <point x="690" y="1556"/>
      <point x="670" y="1586" type="curve"/>
      <point x="685" y="1620" type="line"/>
      <point x="809" y="1657" type="line"/>
      <point x="843" y="1620"/>
      <point x="847" y="1524"/>
      <point x="837" y="1428" type="curve" smooth="yes"/>
      <point x="818" y="1251"/>
      <point x="745" y="1102"/>
    </contour>
  </outline>
</glyph>
<glyph name="Nacute" format="1">
  <advance width="1521"/>
  <unicode hex="0143"/>
  <outline>
    <contour>
      <point x="24" y="0" type="line"/>
      <point x="31" y="69" type="line"/>
      <point x="171" y="92" type="line"/>
      <point x="361" y="1430" type="line"/>
      <point x="216" y="1449" type="line"/>
      <point x="230" y="1530" type="line"/>
      <point x="531" y="1530" type="line"/>
      <point x="1046" y="368" type="line"/>
      <point x="1112" y="172" type="line"/>
      <point x="1278" y="1431" type="line"/>
      <point x="1127" y="1449" type="line"/>
      <point x="1137" y="1530" type="line"/>
      <point x="1572" y="1530" type="line"/>
      <point x="1564" y="1449" type="line"/>
      <point x="1412" y="1430" type="line"/>
      <point x="1198" y="0" type="line"/>
      <point x="1046" y="0" type="line"/>
      <point x="535" y="1136" type="line"/>
      <point x="471" y="1336" type="line"/>
      <point x="310" y="94" type="line"/>
      <point x="474" y="70" type="line"/>
      <point x="468" y="0" type="line"/>
    </contour>
    <contour>
      <point x="912" y="1614" type="curve"/>
      <point x="868" y="1651" type="line"/>
      <point x="1150" y="2000" type="line"/>
      <point x="1249" y="1890" type="line"/>
      <point x="1195" y="1786"/>
      <point x="1009" y="1669"/>
    </contour>
  </outline>
</glyph>
<glyph name="nacute" format="1">
  <advance width="1253"/>
  <unicode hex="0144"/>
  <outline>
    <contour>
      <point x="114" y="0" type="line"/>
      <point x="247" y="1002" type="line"/>
      <point x="149" y="1049" type="line"/>
      <point x="163" y="1121" type="line"/>
      <point x="374" y="1163" type="line"/>
      <point x="414" y="1143" type="line"/>
      <point x="387" y="886" type="line"/>
      <point x="501" y="1034"/>
      <point x="677" y="1163"/>
      <point x="838" y="1163" type="curve" smooth="yes"/>
      <point x="979" y="1163"/>
      <point x="1066" y="1089"/>
      <point x="1066" y="868" type="curve" smooth="yes"/>
      <point x="1066" y="768"/>
      <point x="1033" y="617"/>
      <point x="1013" y="505" type="curve" smooth="yes"/>
      <point x="995" y="403"/>
      <point x="967" y="260"/>
      <point x="961" y="157" type="curve" smooth="yes"/>
      <point x="959" y="112"/>
      <point x="965" y="85"/>
      <point x="984" y="85" type="curve" smooth="yes"/>
      <point x="1008" y="85"/>
      <point x="1040" y="102"/>
      <point x="1081" y="139" type="curve"/>
      <point x="1107" y="95" type="line"/>
      <point x="1092" y="71"/>
      <point x="1003" y="-21"/>
      <point x="900" y="-21" type="curve" smooth="yes"/>
      <point x="832" y="-21"/>
      <point x="790" y="11"/>
      <point x="795" y="96" type="curve"/>
      <point x="799" y="190"/>
      <point x="830" y="345"/>
      <point x="850" y="457" type="curve" smooth="yes"/>
      <point x="871" y="574"/>
      <point x="906" y="734"/>
      <point x="906" y="859" type="curve" smooth="yes"/>
      <point x="906" y="996"/>
      <point x="869" y="1037"/>
      <point x="769" y="1037" type="curve" smooth="yes"/>
      <point x="649" y="1037"/>
      <point x="476" y="902"/>
      <point x="368" y="745" type="curve"/>
      <point x="269" y="0" type="line"/>
    </contour>
    <contour>
      <point x="646" y="1255" type="curve"/>
      <point x="603" y="1304" type="line"/>
      <point x="925" y="1729" type="line"/>
      <point x="1038" y="1596" type="line"/>
      <point x="1000" y="1530"/>
      <point x="767" y="1323"/>
    </contour>
  </outline>
</glyph>
<glyph name="Eng" format="1">
  <advance width="1521"/>
  <unicode hex="014A"/>
  <outline>
    <contour>
      <point x="30" y="0" type="line"/>
      <point x="36" y="69" type="line"/>
      <point x="177" y="92" type="line"/>
      <point x="361" y="1430" type="line"/>
      <point x="216" y="1449" type="line"/>
      <point x="230" y="1530" type="line"/>
      <point x="531" y="1530" type="line"/>
      <point x="1046" y="368" type="line"/>
      <point x="1112" y="172" type="line"/>
      <point x="1278" y="1431" type="line"/>
      <point x="1127" y="1449" type="line"/>
      <point x="1137" y="1530" type="line"/>
      <point x="1572" y="1530" type="line"/>
      <point x="1564" y="1449" type="line"/>
      <point x="1412" y="1430" type="line"/>
      <point x="1198" y="0" type="line"/>
      <point x="1165" y="-239"/>
      <point x="928" y="-329"/>
      <point x="742" y="-365" type="curve"/>
      <point x="713" y="-294" type="line"/>
      <point x="870" y="-246"/>
      <point x="1017" y="-151"/>
      <point x="1047" y="-1" type="curve"/>
      <point x="535" y="1136" type="line"/>
      <point x="471" y="1336" type="line"/>
      <point x="315" y="94" type="line"/>
      <point x="479" y="70" type="line"/>
      <point x="473" y="0" type="line"/>
    </contour>
  </outline>
</glyph>
<glyph name="Obreve" format="1">
  <advance width="1352"/>
  <unicode hex="014E"/>
  <outline>
    <contour>
      <point x="606" y="-20" type="curve" smooth="yes"/>
      <point x="301" y="-20"/>
      <point x="114" y="240"/>
      <point x="106" y="641" type="curve" smooth="yes"/>
      <point x="96" y="1155"/>
      <point x="414" y="1550"/>
      <point x="807" y="1550" type="curve" smooth="yes"/>
      <point x="1137" y="1550"/>
      <point x="1299" y="1252"/>
      <point x="1305" y="889" type="curve" smooth="yes"/>
      <point x="1313" y="378"/>
      <point x="1004" y="-20"/>
    </contour>
    <contour>
      <point x="628" y="76" type="curve"/>
      <point x="917" y="75"/>
      <point x="1148" y="402"/>
      <point x="1139" y="848" type="curve" smooth="yes"/>
      <point x="1132" y="1191"/>
      <point x="1047" y="1454"/>
      <point x="784" y="1454" type="curve" smooth="yes"/>
      <point x="491" y="1454"/>
      <point x="266" y="1109"/>
      <point x="273" y="682" type="curve" smooth="yes"/>
      <point x="279" y="320"/>
      <point x="373" y="78"/>
    </contour>
    <contour>
      <point x="841" y="1635" type="curve" smooth="yes"/>
      <point x="655" y="1635"/>
      <point x="552" y="1799"/>
      <point x="552" y="1959" type="curve" smooth="yes"/>
      <point x="552" y="1965"/>
      <point x="552" y="1973"/>
      <point x="553" y="1979" type="curve"/>
      <point x="638" y="1979" type="line"/>
      <point x="639" y="1971"/>
      <point x="639" y="1959"/>
      <point x="641" y="1949" type="curve" smooth="yes"/>
      <point x="653" y="1858"/>
      <point x="712" y="1752"/>
      <point x="845" y="1752" type="curve" smooth="yes"/>
      <point x="993" y="1752"/>
      <point x="1071" y="1899"/>
      <point x="1087" y="1979" type="curve"/>
      <point x="1169" y="1979" type="line"/>
      <point x="1170" y="1969"/>
      <point x="1169" y="1958"/>
      <point x="1167" y="1947" type="curve" smooth="yes"/>
      <point x="1150" y="1800"/>
      <point x="1009" y="1635"/>
    </contour>
  </outline>
</glyph>
<glyph name="obreve" format="1">
  <advance width="1123"/>
  <unicode hex="014F"/>
  <outline>
    <contour>
      <point x="87" y="439" type="curve" smooth="yes"/>
      <point x="81" y="802"/>
      <point x="308" y="1163"/>
      <point x="644" y="1163" type="curve" smooth="yes"/>
      <point x="897" y="1163"/>
      <point x="1026" y="994"/>
      <point x="1031" y="703" type="curve" smooth="yes"/>
      <point x="1037" y="342"/>
      <point x="809" y="-20"/>
      <point x="473" y="-20" type="curve" smooth="yes"/>
      <point x="220" y="-20"/>
      <point x="92" y="148"/>
    </contour>
    <contour>
      <point x="501" y="78" type="curve" smooth="yes"/>
      <point x="751" y="78"/>
      <point x="869" y="429"/>
      <point x="865" y="701" type="curve" smooth="yes"/>
      <point x="862" y="926"/>
      <point x="786" y="1065"/>
      <point x="615" y="1065" type="curve" smooth="yes"/>
      <point x="363" y="1065"/>
      <point x="247" y="713"/>
      <point x="252" y="441" type="curve"/>
      <point x="255" y="212"/>
      <point x="334" y="78"/>
    </contour>
    <contour>
      <point x="665" y="1304" type="curve" smooth="yes"/>
      <point x="479" y="1304"/>
      <point x="376" y="1468"/>
      <point x="376" y="1628" type="curve" smooth="yes"/>
      <point x="376" y="1634"/>
      <point x="376" y="1643"/>
      <point x="377" y="1648" type="curve"/>
      <point x="462" y="1648" type="line"/>
      <point x="463" y="1640"/>
      <point x="463" y="1628"/>
      <point x="465" y="1618" type="curve" smooth="yes"/>
      <point x="477" y="1527"/>
      <point x="536" y="1422"/>
      <point x="669" y="1422" type="curve" smooth="yes"/>
      <point x="817" y="1422"/>
      <point x="895" y="1569"/>
      <point x="911" y="1649" type="curve"/>
      <point x="993" y="1649" type="line"/>
      <point x="994" y="1638"/>
      <point x="993" y="1627"/>
      <point x="991" y="1617" type="curve" smooth="yes"/>
      <point x="974" y="1469"/>
      <point x="833" y="1304"/>
    </contour>
  </outline>
</glyph>
<glyph name="ohungarumlaut" format="1">
  <advance width="1123"/>
  <unicode hex="0151"/>
  <outline>
    <contour>
      <point x="87" y="439" type="curve" smooth="yes"/>
      <point x="81" y="802"/>
      <point x="308" y="1163"/>
      <point x="644" y="1163" type="curve" smooth="yes"/>
      <point x="897" y="1163"/>
      <point x="1026" y="994"/>
      <point x="1031" y="703" type="curve" smooth="yes"/>
      <point x="1037" y="342"/>
      <point x="809" y="-20"/>
      <point x="473" y="-20" type="curve" smooth="yes"/>
      <point x="220" y="-20"/>
      <point x="92" y="148"/>
    </contour>
    <contour>
      <point x="501" y="78" type="curve" smooth="yes"/>
      <point x="751" y="78"/>
      <point x="869" y="429"/>
      <point x="865" y="701" type="curve" smooth="yes"/>
      <point x="862" y="926"/>
      <point x="786" y="1065"/>
      <point x="615" y="1065" type="curve" smooth="yes"/>
      <point x="363" y="1065"/>
      <point x="247" y="713"/>
      <point x="252" y="441" type="curve"/>
      <point x="255" y="212"/>
      <point x="334" y="78"/>
    </contour>
    <contour>
      <point x="860" y="1257" type="curve"/>
      <point x="808" y="1292" type="line"/>
      <point x="1055" y="1707" type="line"/>
      <point x="1171" y="1613" type="line"/>
      <point x="1136" y="1507"/>
      <point x="965" y="1312"/>
    </contour>
    <contour>
      <point x="434" y="1257" type="curve"/>
      <point x="383" y="1292" type="line"/>
      <point x="620" y="1707" type="line"/>
      <point x="736" y="1614" type="line"/>
      <point x="697" y="1497"/>
      <point x="540" y="1325"/>
    </contour>
  </outline>
</glyph>
<glyph name="oe" format="1">
  <advance width="1774"/>
  <unicode hex="0153"/>
  <outline>
    <contour>
      <point x="87" y="439" type="curve" smooth="yes"/>
      <point x="81" y="802"/>
      <point x="308" y="1163"/>
      <point x="644" y="1163" type="curve" smooth="yes"/>
      <point x="824" y="1163"/>
      <point x="937" y="1077"/>
      <point x="989" y="923" type="curve"/>
      <point x="1091" y="1068"/>
      <point x="1237" y="1163"/>
      <point x="1409" y="1163" type="curve" smooth="yes"/>
      <point x="1599" y="1163"/>
      <point x="1691" y="1054"/>
      <point x="1691" y="913" type="curve" smooth="yes"/>
      <point x="1691" y="599"/>
      <point x="1200" y="472"/>
      <point x="1001" y="467" type="curve"/>
      <point x="987" y="314"/>
      <point x="1036" y="92"/>
      <point x="1243" y="92" type="curve" smooth="yes"/>
      <point x="1351" y="92"/>
      <point x="1469" y="139"/>
      <point x="1584" y="254" type="curve"/>
      <point x="1622" y="186" type="line"/>
      <point x="1565" y="107"/>
      <point x="1418" y="-20"/>
      <point x="1224" y="-20" type="curve" smooth="yes"/>
      <point x="1039" y="-20"/>
      <point x="928" y="75"/>
      <point x="874" y="204" type="curve"/>
      <point x="778" y="69"/>
      <point x="640" y="-20"/>
      <point x="473" y="-20" type="curve" smooth="yes"/>
      <point x="220" y="-20"/>
      <point x="92" y="148"/>
    </contour>
    <contour>
      <point x="1005" y="557" type="curve"/>
      <point x="1221" y="564"/>
      <point x="1527" y="687"/>
      <point x="1527" y="899" type="curve" smooth="yes"/>
      <point x="1527" y="1012"/>
      <point x="1467" y="1069"/>
      <point x="1372" y="1069" type="curve" smooth="yes"/>
      <point x="1151" y="1069"/>
      <point x="1026" y="770"/>
    </contour>
    <contour>
      <point x="501" y="78" type="curve" smooth="yes"/>
      <point x="686" y="78"/>
      <point x="794" y="270"/>
      <point x="836" y="480" type="curve"/>
      <point x="839" y="523"/>
      <point x="845" y="565"/>
      <point x="854" y="607" type="curve"/>
      <point x="856" y="639"/>
      <point x="857" y="670"/>
      <point x="857" y="701" type="curve" smooth="yes"/>
      <point x="854" y="926"/>
      <point x="786" y="1065"/>
      <point x="615" y="1065" type="curve" smooth="yes"/>
      <point x="363" y="1065"/>
      <point x="247" y="713"/>
      <point x="252" y="441" type="curve"/>
      <point x="255" y="212"/>
      <point x="334" y="78"/>
    </contour>
  </outline>
</glyph>
<glyph name="racute" format="1">
  <advance width="824"/>
  <unicode hex="0155"/>
  <outline>
    <contour>
      <point x="133" y="0" type="line"/>
      <point x="266" y="1002" type="line"/>
      <point x="169" y="1049" type="line"/>
      <point x="183" y="1121" type="line"/>
      <point x="395" y="1163" type="line"/>
      <point x="434" y="1143" type="line"/>
      <point x="405" y="889" type="line"/>
      <point x="457" y="997"/>
      <point x="602" y="1162"/>
      <point x="784" y="1162" type="curve" smooth="yes"/>
      <point x="804" y="1162"/>
      <point x="836" y="1160"/>
      <point x="848" y="1149" type="curve"/>
      <point x="814" y="983" type="line"/>
      <point x="794" y="993"/>
      <point x="764" y="997"/>
      <point x="717" y="997" type="curve" smooth="yes"/>
      <point x="606" y="997"/>
      <point x="464" y="911"/>
      <point x="386" y="734" type="curve"/>
      <point x="288" y="0" type="line"/>
    </contour>
    <contour>
      <point x="430" y="1255" type="curve"/>
      <point x="387" y="1304" type="line"/>
      <point x="709" y="1729" type="line"/>
      <point x="822" y="1596" type="line"/>
      <point x="784" y="1530"/>
      <point x="551" y="1323"/>
    </contour>
  </outline>
</glyph>
<glyph name="Rcommaaccent" format="1">
  <advance width="1324"/>
  <unicode hex="0156"/>
  <outline>
    <contour>
      <point x="52" y="0" type="line"/>
      <point x="59" y="69" type="line"/>
      <point x="193" y="94" type="line"/>
      <point x="374" y="1430" type="line"/>
      <point x="239" y="1449" type="line"/>
      <point x="249" y="1530" type="line"/>
      <point x="459" y="1530" type="line" smooth="yes"/>
      <point x="555" y="1530"/>
      <point x="628" y="1546"/>
      <point x="728" y="1546" type="curve" smooth="yes"/>
      <point x="1060" y="1546"/>
      <point x="1207" y="1427"/>
      <point x="1212" y="1194" type="curve" smooth="yes"/>
      <point x="1217" y="944"/>
      <point x="1066" y="753"/>
      <point x="825" y="690" type="curve"/>
      <point x="904" y="629"/>
      <point x="988" y="459"/>
      <point x="1022" y="373" type="curve" smooth="yes"/>
      <point x="1115" y="137"/>
      <point x="1157" y="75"/>
      <point x="1290" y="79" type="curve"/>
      <point x="1286" y="-1" type="line"/>
      <point x="1062" y="1" type="line"/>
      <point x="1022" y="0"/>
      <point x="987" y="58"/>
      <point x="904" y="266" type="curve" smooth="yes"/>
      <point x="829" y="455"/>
      <point x="753" y="685"/>
      <point x="646" y="671" type="curve"/>
      <point x="631" y="671"/>
      <point x="483" y="670"/>
      <point x="424" y="671" type="curve"/>
      <point x="348" y="94" type="line"/>
      <point x="536" y="70" type="line"/>
      <point x="530" y="0" type="line"/>
    </contour>
    <contour>
      <point x="436" y="766" type="line"/>
      <point x="486" y="763"/>
      <point x="638" y="761"/>
      <point x="679" y="764" type="curve" smooth="yes"/>
      <point x="918" y="779"/>
      <point x="1058" y="939"/>
      <point x="1053" y="1187" type="curve" smooth="yes"/>
      <point x="1050" y="1362"/>
      <point x="961" y="1451"/>
      <point x="700" y="1451" type="curve" smooth="yes"/>
      <point x="669" y="1451"/>
      <point x="578" y="1443"/>
      <point x="529" y="1436" type="curve"/>
    </contour>
    <contour>
      <point x="573" y="-147" type="line"/>
      <point x="671" y="-52" type="line"/>
      <point x="754" y="-76"/>
      <point x="799" y="-169"/>
      <point x="792" y="-267" type="curve"/>
      <point x="779" y="-422"/>
      <point x="651" y="-540"/>
      <point x="578" y="-560" type="curve"/>
      <point x="545" y="-527" type="line"/>
      <point x="547" y="-507" type="line"/>
      <point x="598" y="-471"/>
      <point x="635" y="-410"/>
      <point x="640" y="-321" type="curve" smooth="yes"/>
      <point x="644" y="-266"/>
      <point x="612" y="-206"/>
      <point x="568" y="-191" type="curve"/>
    </contour>
  </outline>
</glyph>
<glyph name="rcommaaccent" format="1">
  <advance width="824"/>
  <unicode hex="0157"/>
  <outline>
    <contour>
      <point x="133" y="0" type="line"/>
      <point x="266" y="1002" type="line"/>
      <point x="169" y="1049" type="line"/>
      <point x="183" y="1121" type="line"/>
      <point x="395" y="1163" type="line"/>
      <point x="434" y="1143" type="line"/>
      <point x="405" y="889" type="line"/>
      <point x="457" y="997"/>
      <point x="602" y="1162"/>
      <point x="784" y="1162" type="curve" smooth="yes"/>
      <point x="804" y="1162"/>
      <point x="836" y="1160"/>
      <point x="848" y="1149" type="curve"/>
      <point x="814" y="983" type="line"/>
      <point x="794" y="993"/>
      <point x="764" y="997"/>
      <point x="717" y="997" type="curve" smooth="yes"/>
      <point x="606" y="997"/>
      <point x="464" y="911"/>
      <point x="386" y="734" type="curve"/>
      <point x="288" y="0" type="line"/>
    </contour>
    <contour>
      <point x="97" y="-147" type="line"/>
      <point x="195" y="-52" type="line"/>
      <point x="278" y="-76"/>
      <point x="323" y="-169"/>
      <point x="316" y="-267" type="curve"/>
      <point x="303" y="-422"/>
      <point x="175" y="-540"/>
      <point x="102" y="-560" type="curve"/>
      <point x="69" y="-527" type="line"/>
      <point x="71" y="-507" type="line"/>
      <point x="122" y="-471"/>
      <point x="159" y="-410"/>
      <point x="164" y="-321" type="curve" smooth="yes"/>
      <point x="168" y="-266"/>
      <point x="136" y="-206"/>
      <point x="92" y="-191" type="curve"/>
    </contour>
  </outline>
</glyph>
<glyph name="Scedilla" format="1">
  <advance width="1094"/>
  <unicode hex="015E"/>
  <outline>
    <contour>
      <point x="50" y="65" type="curve"/>
      <point x="91" y="343" type="line"/>
      <point x="185" y="347" type="line"/>
      <point x="198" y="137" type="line"/>
      <point x="254" y="99"/>
      <point x="368" y="74"/>
      <point x="460" y="74" type="curve" smooth="yes"/>
      <point x="610" y="74"/>
      <point x="796" y="149"/>
      <point x="796" y="354" type="curve" smooth="yes"/>
      <point x="796" y="524"/>
      <point x="690" y="620"/>
      <point x="561" y="703" type="curve"/>
      <point x="404" y="800"/>
      <point x="225" y="920"/>
      <point x="221" y="1138" type="curve" smooth="yes"/>
      <point x="216" y="1395"/>
      <point x="425" y="1550"/>
      <point x="680" y="1550" type="curve" smooth="yes"/>
      <point x="871" y="1550"/>
      <point x="998" y="1502"/>
      <point x="1053" y="1465" type="curve"/>
      <point x="1007" y="1203" type="line"/>
      <point x="921" y="1203" type="line"/>
      <point x="907" y="1400" type="line"/>
      <point x="866" y="1428"/>
      <point x="781" y="1455"/>
      <point x="677" y="1455" type="curve" smooth="yes"/>
      <point x="554" y="1455"/>
      <point x="378" y="1407"/>
      <point x="378" y="1200" type="curve" smooth="yes"/>
      <point x="378" y="1020"/>
      <point x="510" y="925"/>
      <point x="651" y="840" type="curve"/>
      <point x="800" y="747"/>
      <point x="950" y="633"/>
      <point x="954" y="424" type="curve" smooth="yes"/>
      <point x="958" y="161"/>
      <point x="763" y="1"/>
      <point x="512" y="-20" type="curve"/>
      <point x="526" y="-65"/>
      <point x="530" y="-125"/>
      <point x="524" y="-194" type="curve" smooth="yes"/>
      <point x="506" y="-410"/>
      <point x="410" y="-464"/>
      <point x="267" y="-464" type="curve" smooth="yes"/>
      <point x="214" y="-464"/>
      <point x="151" y="-452"/>
      <point x="129" y="-436" type="curve"/>
      <point x="157" y="-331" type="line"/>
      <point x="174" y="-340"/>
      <point x="201" y="-348"/>
      <point x="242" y="-348" type="curve" smooth="yes"/>
      <point x="339" y="-348"/>
      <point x="406" y="-285"/>
      <point x="419" y="-142" type="curve" smooth="yes"/>
      <point x="423" y="-87"/>
      <point x="421" y="-51"/>
      <point x="416" y="-22" type="curve"/>
      <point x="246" y="-15"/>
      <point x="94" y="30"/>
    </contour>
  </outline>
</glyph>
<glyph name="Tcaron" format="1">
  <advance width="1235"/>
  <unicode hex="0164"/>
  <outline>
    <contour>
      <point x="221" y="0" type="line"/>
      <point x="228" y="75" type="line"/>
      <point x="469" y="94" type="line"/>
      <point x="659" y="1443" type="line"/>
      <point x="292" y="1422" type="line"/>
      <point x="198" y="1064" type="line"/>
      <point x="107" y="1064" type="line"/>
      <point x="188" y="1530" type="line"/>
      <point x="1318" y="1530" type="line"/>
      <point x="1243" y="1065" type="line"/>
      <point x="1155" y="1064" type="line"/>
      <point x="1185" y="1423" type="line"/>
      <point x="820" y="1443" type="line"/>
      <point x="630" y="94" type="line"/>
      <point x="879" y="75" type="line"/>
      <point x="873" y="0" type="line"/>
    </contour>
    <contour>
      <point x="677" y="1614" type="line"/>
      <point x="455" y="1953" type="line"/>
      <point x="508" y="2000" type="line"/>
      <point x="750" y="1736" type="line"/>
      <point x="1073" y="2000" type="line"/>
      <point x="1123" y="1954" type="line"/>
      <point x="818" y="1614" type="line"/>
    </contour>
  </outline>
</glyph>
<glyph name="Tbar" format="1">
  <advance width="1235"/>
  <unicode hex="0166"/>
  <outline>
    <contour>
      <point x="221" y="0" type="line"/>
      <point x="228" y="75" type="line"/>
      <point x="469" y="94" type="line"/>
      <point x="558" y="731" type="line"/>
      <point x="280" y="731" type="line"/>
      <point x="294" y="836" type="line"/>
      <point x="573" y="836" type="line"/>
      <point x="659" y="1443" type="line"/>
      <point x="292" y="1422" type="line"/>
      <point x="198" y="1064" type="line"/>
      <point x="107" y="1064" type="line"/>
      <point x="188" y="1530" type="line"/>
      <point x="1318" y="1530" type="line"/>
      <point x="1243" y="1065" type="line"/>
      <point x="1155" y="1064" type="line"/>
      <point x="1185" y="1423" type="line"/>
      <point x="820" y="1443" type="line"/>
      <point x="734" y="836" type="line"/>
      <point x="1036" y="836" type="line"/>
      <point x="1022" y="731" type="line"/>
      <point x="719" y="731" type="line"/>
      <point x="630" y="94" type="line"/>
      <point x="879" y="75" type="line"/>
      <point x="873" y="0" type="line"/>
    </contour>
  </outline>
</glyph>
<glyph name="umacron" format="1">
  <advance width="1204"/>
  <unicode hex="016B"/>
  <outline>
    <contour>
      <point x="165" y="254" type="curve" smooth="yes"/>
      <point x="165" y="346"/>
      <point x="185" y="488"/>
      <point x="201" y="606" type="curve" smooth="yes"/>
      <point x="255" y="1002" type="line"/>
      <point x="158" y="1049" type="line"/>
      <point x="172" y="1120" type="line"/>
      <point x="382" y="1163" type="line"/>
      <point x="422" y="1142" type="line"/>
      <point x="353" y="599" type="line" smooth="yes"/>
      <point x="338" y="479"/>
      <point x="321" y="385"/>
      <point x="321" y="279" type="curve" smooth="yes"/>
      <point x="321" y="123"/>
      <point x="383" y="90"/>
      <point x="477" y="90" type="curve" smooth="yes"/>
      <point x="587" y="90"/>
      <point x="718" y="186"/>
      <point x="792" y="279" type="curve"/>
      <point x="907" y="1155" type="line"/>
      <point x="1062" y="1155" type="line"/>
      <point x="932" y="159" type="line" smooth="yes"/>
      <point x="925" y="108"/>
      <point x="936" y="87"/>
      <point x="956" y="87" type="curve" smooth="yes"/>
      <point x="983" y="87"/>
      <point x="1016" y="106"/>
      <point x="1067" y="158" type="curve"/>
      <point x="1093" y="113" type="line"/>
      <point x="1077" y="86"/>
      <point x="981" y="-18"/>
      <point x="869" y="-18" type="curve" smooth="yes"/>
      <point x="794" y="-18"/>
      <point x="758" y="34"/>
      <point x="776" y="119" type="curve" smooth="yes"/>
      <point x="777" y="126"/>
      <point x="778" y="146"/>
      <point x="779" y="169" type="curve"/>
      <point x="697" y="76"/>
      <point x="571" y="-20"/>
      <point x="411" y="-20" type="curve" smooth="yes"/>
      <point x="261" y="-20"/>
      <point x="165" y="44"/>
    </contour>
    <contour>
      <point x="404" y="1432" type="line"/>
      <point x="408" y="1551" type="line"/>
      <point x="918" y="1551" type="line"/>
      <point x="913" y="1432" type="line"/>
    </contour>
  </outline>
</glyph>
